<svg width="38" height="29" viewBox="0 0 38 29" fill="none" xmlns="http://www.w3.org/2000/svg">
<path d="M20.8156 11.0352C22.5695 11.0973 24.2716 10.6361 25.2556 9.75222C25.9953 9.0879 25.5303 9.03982 25.0933 8.39051C24.8255 7.99234 24.7369 7.38346 24.7046 6.92883C24.6323 5.9083 24.6306 4.90825 24.3801 3.89392C24.152 2.96629 23.5332 2.1209 22.6177 1.48633L21.8297 1.01822C20.6907 0.453402 19.3563 0.161621 17.9982 0.18042C15.0336 0.143481 12.1884 1.57522 11.6161 3.89392C11.3658 4.90825 11.364 5.9083 11.2915 6.92883C11.2592 7.38346 11.1707 7.99256 10.9029 8.39051C10.4663 9.03982 10.0012 9.0879 10.7406 9.75222C11.5626 10.4906 12.5837 11.173 14.3446 11.108L15.8226 10.903L20.8156 11.0352Z" fill="#7A7473"/>
<path d="M16.6567 3.56848C16.13 4.14012 13.8607 5.95152 13.0756 6.19137C13.0756 6.19137 13.0414 6.31049 13.0069 6.42998L12.9742 6.40746C12.8919 6.353 12.7952 6.31272 12.6907 6.28938C12.5862 6.26604 12.4763 6.26019 12.3686 6.27224C12.2629 6.28364 12.1618 6.31297 12.0729 6.35808C11.984 6.40319 11.9095 6.46294 11.8548 6.53293C11.7915 6.62952 11.7554 6.73518 11.749 6.84308C11.7029 7.26524 11.8097 7.68894 12.0578 8.0679C12.1747 8.25942 12.3444 8.42943 12.5553 8.56632C12.7267 8.67234 12.9311 8.74263 13.1487 8.77032L13.3423 8.79306C13.5307 9.3276 13.865 9.82572 14.3233 10.2547C14.7338 10.6466 15.2542 10.9631 15.8463 11.1811C15.8401 11.4209 15.8042 11.6596 15.739 11.8942C15.6781 12.1594 15.6972 12.3965 15.214 12.5297C15.182 12.5385 14.9571 12.5952 14.864 12.6191C14.864 12.6191 15.0874 14.7887 18.001 14.7887C20.9146 14.7887 21.4724 12.7157 21.4724 12.7157C21.4237 12.7004 20.8795 12.5386 20.848 12.5299C20.3649 12.3965 20.384 12.1598 20.3229 11.8946C20.26 11.6661 20.2242 11.4338 20.216 11.2004C21.5037 10.8007 22.5446 9.47326 22.7244 9.10066C22.7513 9.03844 22.806 8.92129 22.8548 8.78213L22.9562 8.77025C23.1738 8.74256 23.3782 8.67227 23.5496 8.56625C23.7607 8.42938 23.9306 8.25935 24.0477 8.06775C24.2958 7.68879 24.4026 7.26508 24.3564 6.84294C24.35 6.73503 24.314 6.62936 24.2506 6.53278C24.1959 6.4628 24.1214 6.40306 24.0325 6.35795C23.9436 6.31284 23.8426 6.2835 23.7369 6.27209C23.5736 6.2543 23.4071 6.27703 23.262 6.33694C23.262 6.24397 23.262 6.16477 23.262 6.16477C22.5393 6.1 20.8018 5.5226 19.8184 5.16603C18.7471 4.77748 17.2302 3.86268 16.7348 3.55347" fill="white"/>
<path d="M23.2928 6.531C23.3976 6.46554 23.5316 6.43375 23.6665 6.44235C23.8014 6.45096 23.9266 6.49929 24.0156 6.57712C24.1266 6.68414 24.1316 6.84166 24.1365 6.97179C24.1429 7.11214 24.1304 7.25262 24.0992 7.39101C23.9814 7.89519 23.6314 8.50523 22.8954 8.6017C22.8371 8.61434 22.7876 8.64398 22.7577 8.68422C22.7277 8.72446 22.7197 8.77207 22.7354 8.81677C22.7527 8.86091 22.7917 8.89824 22.8442 8.92099C22.8967 8.94374 22.9587 8.95015 23.0172 8.93888C23.781 8.8387 24.2366 8.29219 24.4507 7.76696C24.5642 7.48905 24.6118 7.19791 24.5911 6.90724C24.5692 6.61631 24.4591 6.33996 24.1073 6.18834C23.9277 6.11291 23.7221 6.08159 23.5183 6.09866C23.3146 6.11572 23.1227 6.18035 22.9689 6.28372C22.9264 6.31669 22.9026 6.3611 22.9026 6.40736C22.9026 6.45361 22.9264 6.49802 22.9689 6.531C23.0125 6.56292 23.0705 6.58075 23.1309 6.58075C23.1913 6.58075 23.2493 6.56292 23.2928 6.531Z" fill="#211715"/>
<path d="M22.7193 8.34027C22.7062 8.51168 22.6638 8.68105 22.5932 8.84408C22.5711 8.90011 22.5469 8.95555 22.5226 9.011C22.5144 9.02946 22.506 9.04786 22.4976 9.06622C22.4835 9.09668 22.4812 9.09537 22.4914 9.07839C22.3929 9.23937 22.281 9.39541 22.1564 9.54556C21.8004 9.99548 21.3459 10.3955 20.8128 10.7283C20.5216 10.9113 20.181 11.0428 19.8154 11.1136C19.5281 11.164 19.6497 11.5013 19.9373 11.4509C20.6904 11.3187 21.3216 10.906 21.8196 10.4731C22.2442 10.1163 22.5988 9.71446 22.8724 9.28006C23.0525 8.9847 23.1563 8.66557 23.1779 8.34019C23.1874 8.11513 22.7292 8.11543 22.7196 8.34019L22.7193 8.34027Z" fill="#211715"/>
<path d="M13.1363 6.28368C13.004 6.19427 12.8429 6.13341 12.6695 6.10739C12.4962 6.08136 12.3168 6.09111 12.1501 6.13563C11.7633 6.24667 11.574 6.49176 11.5267 6.79514C11.4415 7.37073 11.6355 7.95021 12.0721 8.42403C12.3103 8.68974 12.6745 8.87436 13.0879 8.93885C13.1464 8.94985 13.2082 8.94333 13.2606 8.92062C13.313 8.89791 13.3521 8.86073 13.3697 8.81674C13.3853 8.77204 13.3773 8.72443 13.3474 8.6842C13.3174 8.64396 13.268 8.61432 13.2097 8.60166C12.474 8.5052 12.1235 7.89494 12.0058 7.39098C11.9747 7.25257 11.9622 7.1121 11.9685 6.97175C11.9733 6.84505 11.978 6.69489 12.0798 6.58786C12.1228 6.54724 12.176 6.51353 12.2362 6.48866C12.2964 6.4638 12.3624 6.44827 12.4305 6.44298C12.4986 6.43769 12.5674 6.44274 12.6329 6.45784C12.6984 6.47294 12.7594 6.49779 12.8122 6.53096C12.8559 6.56267 12.9139 6.58035 12.9743 6.58035C13.0346 6.58035 13.0926 6.56267 13.1363 6.53096C13.1787 6.49797 13.2025 6.45357 13.2025 6.40732C13.2025 6.36107 13.1787 6.31667 13.1363 6.28368Z" fill="#211715"/>
<path d="M12.958 8.28513C13.2338 9.49888 14.0965 10.6882 15.5713 11.2728C15.969 11.4308 16.4023 11.5297 16.8483 11.5643C16.909 11.564 16.967 11.5455 17.0099 11.5127C17.0528 11.48 17.0771 11.4357 17.0774 11.3894C17.0761 11.3433 17.0516 11.2994 17.0089 11.2669C16.9662 11.2343 16.9087 11.2155 16.8483 11.2145C15.3303 11.0941 14.1481 10.0544 13.672 9.01087C13.5522 8.74408 13.4613 8.47027 13.4 8.19217C13.3834 8.14766 13.3445 8.10992 13.2918 8.08708C13.2391 8.06423 13.1767 8.05812 13.1181 8.07006C13.0603 8.08326 13.0113 8.113 12.9815 8.15307C12.9517 8.19314 12.9433 8.24045 12.958 8.28513Z" fill="#211715"/>
<path d="M22.4557 1.60964C23.2306 2.14935 23.7883 2.84616 24.0637 3.6187C24.2112 4.07926 24.3049 4.5489 24.3437 5.0221C24.3972 5.51483 24.42 6.00903 24.4487 6.50279C24.4597 6.93772 24.5128 7.37143 24.6076 7.80039C24.6571 8.00552 24.7367 8.20574 24.845 8.39725C24.9458 8.56013 25.0651 8.716 25.2014 8.8631C25.2509 8.91964 25.3016 8.97589 25.3454 9.03512C25.364 9.05926 25.3807 9.08424 25.3953 9.10994C25.3803 9.08219 25.4115 9.15679 25.4151 9.17129C25.4056 9.13282 25.4151 9.20284 25.4145 9.21632C25.4145 9.22324 25.4078 9.2491 25.4145 9.21807C25.4104 9.2353 25.4049 9.25234 25.3981 9.26907C25.365 9.33879 25.3188 9.40449 25.2609 9.46411C24.9751 9.76868 24.6131 10.0271 24.1958 10.2245C23.1977 10.7126 21.9893 10.8997 20.8151 10.8607C20.5203 10.851 20.5209 11.2008 20.8151 11.2104C21.9487 11.2577 23.0782 11.0738 24.0879 10.6779C24.5515 10.4922 24.9703 10.2477 25.3264 9.95488C25.6186 9.7108 25.9894 9.37573 25.8362 9.01967C25.7658 8.88432 25.6717 8.75687 25.5564 8.64081C25.4141 8.48862 25.296 8.32407 25.2046 8.15062C25.0186 7.76156 24.9634 7.33971 24.9336 6.92886C24.8583 5.89013 24.8565 4.84257 24.5934 3.81782C24.3445 2.8735 23.7094 2.01381 22.7795 1.36251C22.5632 1.21001 22.2383 1.45671 22.4555 1.60979L22.4557 1.60964Z" fill="#211715"/>
<path d="M14.345 10.9331C13.5713 10.9699 12.802 10.8203 12.1458 10.5054C11.8661 10.3651 11.6068 10.2024 11.3725 10.0201C11.1055 9.83226 10.8702 9.61991 10.6718 9.38787C10.6365 9.34563 10.6095 9.29968 10.5916 9.25148C10.5821 9.22254 10.5791 9.19259 10.5826 9.16288C10.579 9.18059 10.596 9.12762 10.5988 9.11953C10.6111 9.08347 10.592 9.12216 10.6148 9.08762C10.6449 9.04262 10.678 8.99885 10.714 8.95648C10.9223 8.70927 11.1331 8.47285 11.2573 8.19147C11.5485 7.53166 11.5308 6.80104 11.5699 6.1137C11.6135 5.34527 11.6548 4.56474 11.8717 3.81138C12.0297 3.26111 12.3313 2.74076 12.7585 2.28136C13.5837 1.39366 14.8582 0.783911 16.2294 0.514554C16.9721 0.374914 17.7385 0.323916 18.5016 0.363374C19.4199 0.402979 20.3169 0.589369 21.1348 0.910465C21.3334 0.989225 21.5268 1.07557 21.7141 1.16918C21.9617 1.29253 22.1914 0.989881 21.9454 0.867188C20.3953 0.0946732 18.4661 -0.151296 16.6526 0.0877516C15.1535 0.285343 13.72 0.864856 12.7251 1.75008C12.2151 2.20208 11.8266 2.72621 11.5817 3.29263C11.2718 4.01349 11.2024 4.79701 11.1471 5.54978C11.1169 5.96186 11.0994 6.37431 11.0721 6.78654C11.059 7.12494 11.0093 7.46194 10.9236 7.7941C10.8844 7.94442 10.8259 8.09141 10.7488 8.23292C10.6614 8.37551 10.5579 8.51202 10.4395 8.64093C10.2796 8.82409 10.0948 9.01578 10.1279 9.24835C10.171 9.55034 10.4844 9.79828 10.7367 10.0147C10.9708 10.2193 11.2271 10.4082 11.5031 10.5797C12.1239 10.9663 12.8791 11.2063 13.676 11.2704C13.8981 11.2869 14.1215 11.2911 14.3443 11.2828C14.638 11.273 14.6396 10.9232 14.3443 10.9331H14.345Z" fill="#211715"/>
<path d="M16.5732 3.67709C17.3245 4.15485 18.1158 4.59473 18.9421 4.99393C19.3626 5.1875 19.7992 5.35998 20.2491 5.51028C20.7609 5.6871 21.2777 5.85657 21.802 6.01067C22.2722 6.1491 22.7581 6.29204 23.2611 6.33962C23.3218 6.33935 23.3799 6.32084 23.4228 6.28811C23.4657 6.25537 23.4899 6.21105 23.4903 6.16476C23.4888 6.11873 23.4642 6.07488 23.4216 6.04233C23.3789 6.00977 23.3215 5.99099 23.2611 5.9899C23.3191 5.99537 23.2039 5.98262 23.1857 5.9797C23.1416 5.97329 23.0978 5.96586 23.0541 5.95784C22.9534 5.93956 22.8536 5.91821 22.7548 5.8954C22.5278 5.84302 22.3039 5.78255 22.0817 5.71909C21.5913 5.57898 21.1088 5.42299 20.6306 5.26008C20.1809 5.11354 19.7431 4.94664 19.3195 4.76028C18.8578 4.54899 18.4149 4.31409 17.9813 4.07096C17.6126 3.86424 17.2512 3.65052 16.897 3.42981C16.8532 3.39822 16.7952 3.38062 16.735 3.38062C16.6747 3.38062 16.6167 3.39822 16.573 3.42981C16.5304 3.46278 16.5066 3.50719 16.5066 3.55345C16.5066 3.59972 16.5304 3.64412 16.573 3.67709H16.5732Z" fill="#211715"/>
<path d="M16.4589 3.48033C16.4302 3.51115 16.4006 3.54146 16.3707 3.57147C16.4073 3.53505 16.3572 3.58452 16.3483 3.59333C16.3271 3.61378 16.3056 3.63418 16.2839 3.65453C16.192 3.74072 16.0974 3.82524 16.0017 3.90895C15.7642 4.11631 15.519 4.31849 15.2692 4.51732C14.7574 4.93405 14.2134 5.32705 13.6401 5.6942C13.5273 5.76675 13.4097 5.83484 13.2878 5.8982C13.2345 5.92596 13.1804 5.95284 13.1246 5.97754C13.0983 5.9892 13.0716 6.00049 13.0445 6.01098C13.0259 6.01827 12.9419 6.04566 13.0146 6.023C12.9571 6.03655 12.9085 6.06635 12.8787 6.10632C12.849 6.14629 12.8404 6.19342 12.8546 6.23808C12.8711 6.28264 12.9099 6.32044 12.9627 6.3433C13.0154 6.36616 13.0779 6.37223 13.1364 6.36019C13.3823 6.27496 13.6116 6.16424 13.8178 6.03116C14.0992 5.86359 14.3659 5.68145 14.6266 5.49537C15.1974 5.08814 15.7423 4.66041 16.2612 4.21219C16.472 4.03544 16.67 3.85014 16.8545 3.65708C16.8846 3.61695 16.8929 3.56939 16.8775 3.52465C16.8622 3.4799 16.8244 3.44156 16.7723 3.41789C16.7195 3.39542 16.6575 3.38941 16.599 3.4011C16.5406 3.41279 16.4904 3.44129 16.4589 3.48062V3.48033Z" fill="#211715"/>
<path d="M15.6168 11.1938C15.6124 11.3624 15.5909 11.5305 15.5526 11.6965C15.521 11.8375 15.5027 11.9844 15.4551 12.1228C15.4508 12.135 15.4465 12.1471 15.4414 12.1593C15.4363 12.1714 15.4208 12.2017 15.437 12.1733C15.4212 12.201 15.4016 12.2274 15.3785 12.2519C15.4019 12.2272 15.3695 12.2584 15.361 12.265C15.3458 12.2772 15.3294 12.2887 15.312 12.2992C15.336 12.2849 15.2984 12.3052 15.2901 12.3091C15.2676 12.3196 15.2448 12.3295 15.2213 12.3386C15.0855 12.3833 14.9457 12.4207 14.8031 12.4506C14.7453 12.4639 14.6964 12.4936 14.6666 12.5337C14.6368 12.5738 14.6283 12.6211 14.6431 12.6658C14.6598 12.7102 14.6986 12.7479 14.7513 12.7707C14.804 12.7936 14.8663 12.7997 14.9249 12.7879C15.1098 12.7481 15.2904 12.6973 15.4649 12.6359C15.6627 12.5568 15.8119 12.4216 15.8803 12.2593C15.931 12.1129 15.9674 11.9639 15.9892 11.8134C16.0384 11.6089 16.0671 11.4019 16.0751 11.1941C16.0809 10.969 15.6227 10.969 15.6169 11.1941L15.6168 11.1938Z" fill="#211715"/>
<path d="M19.987 11.2003C20.0044 11.4608 20.0455 11.7201 20.1099 11.9763C20.1496 12.1641 20.1829 12.347 20.3562 12.495C20.5097 12.6261 20.7271 12.6805 20.9352 12.7421C21.0941 12.7893 21.2537 12.8353 21.4116 12.8844C21.4702 12.8964 21.5327 12.8903 21.5854 12.8675C21.6382 12.8446 21.677 12.8068 21.6935 12.7622C21.7082 12.7176 21.6997 12.6703 21.6699 12.6303C21.6401 12.5902 21.5912 12.5605 21.5334 12.5472C21.3931 12.5035 21.2512 12.4626 21.1099 12.4206C21.0473 12.402 20.9848 12.3833 20.922 12.365C20.8379 12.3422 20.7609 12.3066 20.6954 12.2604C20.6876 12.2543 20.6801 12.2479 20.673 12.2413C20.6862 12.2548 20.6853 12.2533 20.6701 12.2369C20.657 12.221 20.645 12.2047 20.6341 12.1879C20.6271 12.1766 20.6279 12.1784 20.6364 12.1932C20.6313 12.1834 20.6269 12.1733 20.6224 12.1633C20.6147 12.1454 20.6083 12.1273 20.6025 12.109C20.5779 12.0319 20.5666 11.9527 20.5499 11.8745C20.4939 11.652 20.4588 11.4267 20.4449 11.2003C20.4384 10.9756 19.9801 10.9748 19.9866 11.2003H19.987Z" fill="#211715"/>
<path d="M15.0654 12.8926C15.5739 14.1726 16.8805 17.4693 17.1777 18.1978C17.4047 18.754 17.6164 19.3111 17.8735 19.8617C18.6216 18.4909 19.2992 17.1323 20.2315 15.1367C20.7001 14.1336 21.0672 13.1571 21.2397 12.6298C21.0505 12.3553 20.8037 12.1064 20.509 11.8928C19.8684 12.3818 19.1194 12.7802 18.2966 13.0696C18.2507 13.0854 18.1997 13.1047 18.185 13.1415H17.766C17.7512 13.105 17.7001 13.0854 17.6543 13.0696C16.8315 12.7802 16.0824 12.3818 15.4419 11.8928C15.2241 12.0484 15.0336 12.2249 14.8752 12.4179L14.8842 12.437C14.9155 12.5154 14.9789 12.6748 15.0654 12.8926Z" fill="white"/>
<path d="M28.9746 17.1756C28.9746 17.1756 25.0682 13.8031 24.8808 13.732C24.0507 13.4176 22.284 12.8097 21.4464 12.4701C21.4464 12.4701 21.3875 12.4462 21.3062 12.4127C21.0111 13.3345 20.6524 14.2437 20.2316 15.1366C19.7552 16.1566 19.3453 17.0097 18.9585 17.7834C18.5883 18.5238 18.2393 19.1912 17.8735 19.8615C17.6164 19.311 17.4047 18.7541 17.1778 18.1977C16.8304 17.3453 15.1 12.976 14.8841 12.4369C14.8841 12.4369 14.8566 12.3683 14.8292 12.2998L14.3535 12.4717C13.359 12.8314 11.722 13.4558 10.8922 13.7702C10.7394 13.8279 10.5428 13.9192 10.4019 13.9742C10.1419 14.0616 9.89498 14.1702 9.6654 14.2979C9.23894 14.6059 9.03683 14.724 8.68035 15.4177C8.13388 16.4805 7.15933 18.6516 6.68275 19.6929C6.22985 20.6818 5.75975 21.335 6.25238 22.0973C6.745 22.8595 7.79086 23.3546 8.56273 23.7643C10.3426 24.709 13.0906 25.8616 13.9556 26.1672L14.3713 26.3141H24.5443C24.2404 24.5888 23.8569 22.426 23.9293 22.0554C23.9795 21.7963 24.0308 21.5343 24.082 21.2713C24.6936 22.0494 26.0212 23.2341 27.3386 23.0867C28.7634 22.9272 29.0172 21.5333 29.0931 20.6627C29.1975 19.4693 29.277 18.406 28.9746 17.1756Z" fill="#F9B54C"/>
<path d="M28.7537 17.2221C28.9317 18.0089 28.995 18.8083 28.9423 19.6058C28.9122 20.2145 28.8895 20.8495 28.7445 21.4345C28.6292 21.8998 28.4345 22.3911 27.9555 22.6988C27.7198 22.8441 27.4262 22.9238 27.1232 22.9246C26.7623 22.9158 26.4116 22.8314 26.1094 22.6806C25.3531 22.3334 24.7524 21.7743 24.2973 21.2052C24.144 21.0133 23.7475 21.1888 23.9017 21.3817C24.3522 21.9452 24.9288 22.4746 25.6354 22.8607C26.3064 23.2271 27.1671 23.4223 27.9418 23.1216C28.5864 22.8714 28.9235 22.3322 29.0998 21.8223C29.3059 21.2263 29.3343 20.5994 29.3774 19.9871C29.4449 19.0295 29.4251 18.0753 29.196 17.1298C29.1794 17.0853 29.1405 17.0475 29.0878 17.0247C29.0351 17.0019 28.9727 16.9957 28.9141 17.0077C28.8562 17.0208 28.8072 17.0506 28.7774 17.0906C28.7476 17.1307 28.7392 17.1781 28.7541 17.2227L28.7537 17.2221Z" fill="#211715"/>
<path d="M19.7414 14.6548C20.2839 14.24 20.7046 13.7481 21.1015 13.2494C21.1975 13.129 21.2925 13.0081 21.3879 12.8878C21.4476 12.8128 21.5344 12.7353 21.5005 12.6413C21.4655 12.5706 21.4194 12.5035 21.3632 12.4413C21.1761 12.1928 20.9428 11.9664 20.6705 11.7691C20.627 11.737 20.5689 11.7191 20.5085 11.7191C20.448 11.7191 20.3899 11.737 20.3465 11.7691C19.8007 12.1868 19.1725 12.5367 18.4848 12.8059C18.3355 12.8647 18.1194 12.9079 18.017 13.0153C17.9729 13.0684 17.9518 13.1306 17.9568 13.1933C17.9617 13.256 17.9924 13.3159 18.0445 13.3645C18.2391 13.5818 18.4727 13.7819 18.6918 13.9847C18.9332 14.2082 19.1771 14.4301 19.4165 14.655C19.4597 14.6876 19.518 14.7059 19.5788 14.7059C19.6396 14.7059 19.6979 14.6876 19.7411 14.655C19.7828 14.6217 19.806 14.5774 19.806 14.5314C19.806 14.4853 19.7828 14.441 19.7411 14.4077C19.4974 14.179 19.2491 13.9532 19.0036 13.7258C18.864 13.5965 18.7245 13.4671 18.5881 13.336C18.5442 13.2938 18.4055 13.1903 18.4137 13.1416L18.3824 13.2298C18.3718 13.2464 18.3428 13.244 18.384 13.2307C18.4115 13.2219 18.4383 13.2115 18.4653 13.2016C18.5133 13.1846 18.5611 13.1671 18.6085 13.1492C18.7116 13.1104 18.8134 13.0697 18.914 13.0273C19.1273 12.937 19.3346 12.8392 19.5358 12.7337C19.9429 12.5223 20.323 12.2821 20.671 12.0163H20.347C20.6468 12.2358 20.8954 12.4927 21.0821 12.7759V12.5994C20.5767 13.2282 20.1059 13.8811 19.4173 14.4074C19.2087 14.5669 19.5326 14.8143 19.7414 14.6548Z" fill="#211715"/>
<path d="M16.5333 14.4075C15.8448 13.8812 15.374 13.2283 14.8686 12.5995V12.776C15.0553 12.4928 15.3039 12.236 15.6037 12.0164H15.2797C15.6278 12.2822 16.0079 12.5224 16.415 12.7338C16.6105 12.8358 16.8118 12.9311 17.0188 13.0197C17.1192 13.0625 17.2211 13.1035 17.3243 13.1427C17.3717 13.1606 17.4195 13.1782 17.4675 13.1954C17.4959 13.2056 17.5243 13.2156 17.5528 13.2255C17.5622 13.2286 17.5714 13.2322 17.5803 13.2363C17.6023 13.246 17.5983 13.2438 17.5683 13.2296L17.5371 13.1414C17.5453 13.1901 17.4065 13.2936 17.3627 13.3358C17.2262 13.4669 17.0868 13.5963 16.9472 13.7257C16.7016 13.9531 16.4533 14.1788 16.2097 14.4075C16.1683 14.441 16.1453 14.4852 16.1453 14.5312C16.1453 14.5772 16.1683 14.6214 16.2097 14.6548C16.2529 14.6873 16.3111 14.7055 16.3717 14.7055C16.4323 14.7055 16.4905 14.6873 16.5337 14.6548C16.9721 14.2434 17.4338 13.8447 17.8518 13.4209C17.9396 13.3474 17.991 13.2528 17.9974 13.1534C17.9914 12.9804 17.7807 12.9244 17.6094 12.8608C17.2624 12.7313 16.9288 12.5818 16.6117 12.4135C16.2508 12.2226 15.9135 12.0069 15.6041 11.7691C15.5606 11.7371 15.5026 11.7192 15.4421 11.7192C15.3817 11.7192 15.3236 11.7371 15.2801 11.7691C15.0079 11.9665 14.7746 12.1929 14.5875 12.4413C14.5312 12.5035 14.4851 12.5706 14.4502 12.6413C14.4181 12.7301 14.4947 12.8025 14.5516 12.8738C14.6513 12.9988 14.7499 13.1244 14.8495 13.2495C15.2465 13.7481 15.6671 14.2403 16.2097 14.6548C16.4179 14.8143 16.742 14.567 16.5333 14.4075Z" fill="#211715"/>
<path d="M21.3308 12.6211C21.9773 12.8825 22.644 13.1157 23.306 13.3531C23.9514 13.5846 24.6106 13.8043 25.2356 14.0671C25.6288 14.2197 25.9621 14.4491 26.2015 14.7319C26.3558 14.9233 26.7523 14.7477 26.5972 14.5553C26.3712 14.2775 26.0644 14.0432 25.7006 13.8705C25.3859 13.7262 25.0606 13.596 24.7262 13.4805C24.0266 13.2229 23.3204 12.9758 22.6197 12.72C22.2648 12.5903 21.9098 12.4599 21.562 12.3193C21.3016 12.214 21.0698 12.516 21.3308 12.6213V12.6211Z" fill="#211715"/>
<path d="M17.9927 19.6425C18.6946 18.3442 19.3489 17.0259 20.2315 15.1366C20.6563 14.2367 21.0171 13.32 21.3124 12.3904C22.0495 12.6823 23.0332 13.3342 23.4302 13.7504C23.0123 14.1202 22.4363 14.6421 22.3337 14.7527C22.3594 14.766 22.8621 15.0083 22.8839 15.1097C22.8986 15.1784 22.8429 15.2707 22.7016 15.4375C22.4024 15.7911 20.2791 18.5717 19.515 19.4318L17.9927 19.6425Z" fill="#FC8059"/>
<path d="M17.3201 21.4693C17.3245 21.3491 17.278 21.2311 17.1876 21.1327C17.0972 21.0343 16.9677 20.9607 16.8183 20.9228C16.4811 20.8392 16.0688 20.9239 15.8854 21.1647C15.813 21.2609 15.7746 21.3699 15.7739 21.4808C15.7733 21.5918 15.8104 21.701 15.8816 21.7977C15.9788 21.9094 16.1207 21.9941 16.2861 22.0392C16.4515 22.0843 16.6315 22.0874 16.7994 22.0481C17.1344 21.9728 17.3178 21.7257 17.3201 21.4696C17.3201 21.4232 17.296 21.3787 17.253 21.3459C17.2101 21.3131 17.1518 21.2947 17.091 21.2947C17.0302 21.2947 16.972 21.3131 16.929 21.3459C16.886 21.3787 16.8619 21.4232 16.8619 21.4696C16.8619 21.4841 16.861 21.4987 16.8594 21.5133C16.8586 21.5206 16.8563 21.5286 16.8563 21.5361C16.8563 21.4827 16.8629 21.5039 16.8581 21.5207C16.8532 21.5375 16.8493 21.5524 16.8435 21.5681C16.8405 21.576 16.8373 21.5839 16.8339 21.5917C16.8268 21.6076 16.8015 21.6367 16.837 21.589C16.826 21.6035 16.8179 21.6196 16.8061 21.6341C16.8003 21.6414 16.7938 21.6487 16.7877 21.656C16.7643 21.6839 16.8259 21.6236 16.7958 21.6481C16.7801 21.6612 16.7639 21.6735 16.747 21.6857C16.715 21.709 16.7939 21.6626 16.7558 21.6807C16.7419 21.6873 16.7284 21.6943 16.7139 21.7002C16.6911 21.7096 16.6709 21.7061 16.7222 21.6991C16.7092 21.702 16.6965 21.7054 16.684 21.7094C16.6707 21.7125 16.6572 21.7152 16.6435 21.7176L16.6294 21.7198C16.6047 21.7231 16.6103 21.7228 16.6462 21.7189C16.6462 21.7189 16.5565 21.7224 16.5487 21.7222C16.5319 21.7222 16.5152 21.7207 16.4984 21.7203C16.4724 21.7182 16.4769 21.7188 16.5117 21.7222C16.5022 21.721 16.4916 21.7197 16.4816 21.7182C16.453 21.7138 16.4261 21.7069 16.3983 21.7006C16.3514 21.6898 16.4455 21.7195 16.4033 21.7024C16.3918 21.6978 16.3801 21.6937 16.369 21.6887C16.3578 21.6838 16.3478 21.6784 16.3371 21.6735C16.2981 21.6555 16.378 21.7015 16.3447 21.6785C16.3244 21.6644 16.3056 21.65 16.287 21.6348C16.2575 21.6102 16.3186 21.6706 16.2953 21.6429C16.2893 21.6356 16.2829 21.6289 16.2771 21.6216C16.2691 21.6062 16.259 21.5914 16.247 21.5775C16.2744 21.5973 16.2646 21.6145 16.2545 21.5892C16.2515 21.5819 16.2478 21.5741 16.245 21.5665C16.2386 21.5495 16.2372 21.5305 16.23 21.5139C16.2485 21.556 16.2353 21.5531 16.2342 21.5348C16.2342 21.5288 16.233 21.5228 16.2327 21.5168C16.2319 21.4988 16.2323 21.4808 16.234 21.4628C16.2348 21.4532 16.2378 21.4428 16.2375 21.4332C16.239 21.4811 16.2327 21.458 16.2369 21.4411C16.2423 21.4191 16.2497 21.3975 16.259 21.3763C16.2628 21.3674 16.2685 21.3587 16.2718 21.3499C16.2536 21.397 16.26 21.3717 16.2692 21.3578C16.2801 21.3418 16.2979 21.3268 16.3074 21.3106C16.2868 21.3461 16.284 21.3324 16.302 21.3172C16.3101 21.3103 16.3186 21.3036 16.3274 21.2972C16.3361 21.2908 16.3475 21.2854 16.3551 21.2786C16.325 21.296 16.3196 21.2994 16.3389 21.2889C16.346 21.2852 16.3531 21.2817 16.3604 21.2784C16.3716 21.2733 16.3833 21.269 16.3947 21.2638C16.4362 21.2458 16.3429 21.2766 16.3894 21.2651C16.4166 21.2579 16.4442 21.2519 16.4722 21.247L16.487 21.2448C16.512 21.2416 16.507 21.242 16.4723 21.2457C16.4792 21.2414 16.5121 21.243 16.5211 21.2427C16.5385 21.2421 16.5558 21.2421 16.5732 21.2427C16.5845 21.2427 16.5958 21.2435 16.6072 21.2442C16.6333 21.2463 16.6292 21.2456 16.5947 21.2422C16.6169 21.236 16.6743 21.2546 16.6964 21.2601C16.7223 21.2665 16.7327 21.2807 16.693 21.2574C16.708 21.2641 16.7236 21.2701 16.7395 21.2755C16.7504 21.2803 16.7606 21.2857 16.7713 21.2908C16.8046 21.3067 16.728 21.2617 16.7722 21.2924C16.7809 21.2985 16.7893 21.3048 16.7973 21.3115C16.8378 21.3448 16.7772 21.2861 16.7981 21.3105C16.8129 21.3278 16.826 21.345 16.8387 21.3633C16.8592 21.3929 16.8196 21.3217 16.8334 21.3536C16.8382 21.3646 16.843 21.3754 16.8476 21.3867C16.8506 21.3951 16.8534 21.4036 16.8558 21.4121C16.8603 21.4279 16.8609 21.4673 16.8571 21.4087C16.8584 21.4291 16.8616 21.4492 16.8619 21.4696C16.8619 21.516 16.886 21.5605 16.929 21.5933C16.972 21.6261 17.0302 21.6445 17.091 21.6445C17.1518 21.6445 17.2101 21.6261 17.253 21.5933C17.296 21.5605 17.3201 21.516 17.3201 21.4696V21.4693Z" fill="#211715"/>
<path d="M21.0936 12.3364C20.9904 12.7061 20.8521 13.071 20.713 13.4337C20.4971 13.9965 20.2602 14.5543 20.0025 15.1072C19.5242 16.1314 19.0361 17.1531 18.5208 18.1672C18.2776 18.6456 18.0279 19.122 17.7716 19.5964C17.7558 19.6411 17.7638 19.6888 17.7937 19.729C17.8237 19.7693 17.8733 19.7989 17.9317 19.8115C17.9903 19.8226 18.0522 19.8162 18.1046 19.7935C18.1571 19.7707 18.1961 19.7334 18.2135 19.6894C18.6857 18.8156 19.1362 17.9353 19.565 17.0483C20.1019 15.9455 20.6398 14.8407 21.083 13.7134C21.2494 13.2896 21.4151 12.8627 21.5359 12.4297C21.5972 12.2102 21.1555 12.1164 21.094 12.3367L21.0936 12.3364Z" fill="#211715"/>
<path d="M14.2378 12.3209C13.1876 12.7006 12.1495 13.0982 11.1094 13.493C10.8312 13.5985 10.5613 13.7142 10.2858 13.8232C10.0238 13.9268 10.2554 14.2288 10.517 14.1252C10.7633 14.0279 11.0033 13.923 11.2522 13.8287C11.4916 13.7379 11.7311 13.647 11.9706 13.5561C12.5216 13.3473 13.0734 13.1396 13.6258 12.9332C13.9064 12.8288 14.1877 12.7254 14.4696 12.6229C14.5216 12.5992 14.5594 12.5608 14.5748 12.5161C14.5902 12.4713 14.5819 12.4238 14.5518 12.3836C14.5202 12.3443 14.4699 12.3159 14.4115 12.3042C14.3531 12.2925 14.291 12.2985 14.2382 12.3209H14.2378Z" fill="#211715"/>
<path d="M16.4352 19.4319C15.6715 18.5718 13.5478 15.7912 13.2486 15.4376C13.1073 15.2706 13.0517 15.1783 13.0665 15.1098C13.0882 15.0086 13.5908 14.7662 13.6166 14.7528C13.514 14.6422 12.9381 14.1203 12.52 13.7505C12.9313 13.3193 13.972 12.6352 14.7176 12.3606L14.8359 12.3169L14.8836 12.437C15.0995 12.9761 16.8294 17.3453 17.1772 18.1978C17.4391 18.8394 17.6805 19.4821 17.9948 20.1147L16.4352 19.4319Z" fill="#FC8059"/>
<path d="M14.663 12.4834C14.9333 13.1586 15.2017 13.8342 15.4681 14.5104C15.848 15.4672 16.2285 16.4239 16.6096 17.3805C16.7293 17.6798 16.8495 17.979 16.9704 18.278C17.1422 18.6997 17.3061 19.1231 17.488 19.5424C17.6635 19.9468 17.8828 20.3409 18.0256 20.7532C18.3862 21.7946 18.1847 22.8611 18.0138 23.9109C17.9302 24.4248 17.8429 24.9181 17.7401 25.4336C17.6778 25.8022 17.5912 26.1682 17.4807 26.5302C17.4731 26.5525 17.4654 26.5747 17.4564 26.5966C17.4486 26.6158 17.4144 26.6804 17.454 26.6098C17.4252 26.6502 17.4178 26.6974 17.433 26.7419C17.4483 26.7863 17.4852 26.8247 17.5362 26.8491C17.5887 26.8722 17.6511 26.8785 17.7097 26.8668C17.7684 26.855 17.8186 26.8261 17.8496 26.7864C18.0044 26.5095 18.0434 26.1854 18.1066 25.8912C18.2167 25.3788 18.3101 24.8644 18.3986 24.3496C18.482 23.8645 18.5603 23.3786 18.6245 22.8918C18.7061 22.3762 18.7105 21.8551 18.6377 21.3387C18.5702 20.9378 18.4445 20.5438 18.2629 20.1641C18.0629 19.7431 17.8714 19.3216 17.698 18.8937C17.5214 18.4588 17.346 18.0235 17.1717 17.5879C16.8 16.6595 16.4303 15.7307 16.0626 14.8013C15.758 14.0343 15.4535 13.2673 15.1488 12.5003C15.1343 12.4636 15.1196 12.4269 15.1049 12.3902C15.019 12.1755 14.5765 12.2671 14.663 12.4832V12.4834Z" fill="#211715"/>
<path d="M14.602 12.2095C14.1449 12.3908 13.7183 12.6136 13.3315 12.8731C12.9553 13.1047 12.6164 13.3696 12.3221 13.6622C12.297 13.6957 12.2869 13.7345 12.2934 13.7728C12.2999 13.811 12.3226 13.8466 12.358 13.8741C12.5782 14.069 12.7967 14.2651 13.0135 14.4624C13.1051 14.5459 13.1962 14.6297 13.2867 14.7139C13.3197 14.7448 13.3524 14.776 13.3851 14.8071C13.3947 14.8164 13.4333 14.8439 13.3904 14.8118C13.401 14.8209 13.4105 14.8307 13.419 14.841L13.5012 14.6018C13.3041 14.6895 13.1222 14.7958 12.9596 14.918C12.7209 15.121 12.9 15.3439 13.0619 15.5388C13.2365 15.7491 13.4007 15.9645 13.5679 16.1783C14.1699 16.9486 14.7687 17.7205 15.3818 18.4858C15.6603 18.8336 15.9385 19.1825 16.2378 19.5204C16.4022 19.7058 16.7994 19.531 16.6336 19.3439C16.0597 18.6968 15.5426 18.0186 15.0165 17.3487C14.5246 16.7225 14.0427 16.0916 13.544 15.4689C13.5153 15.4334 13.4867 15.3979 13.4581 15.3627C13.4162 15.3123 13.3736 15.2623 13.3367 15.2097C13.3223 15.1897 13.3099 15.1689 13.2995 15.1475C13.2962 15.1398 13.2935 15.1321 13.2917 15.1242C13.2855 15.1027 13.2883 15.1533 13.2944 15.1225C13.2911 15.1393 13.2858 15.1558 13.2787 15.172C13.2892 15.1454 13.2604 15.1861 13.2779 15.1712C13.2993 15.153 13.322 15.1359 13.3457 15.1193C13.3905 15.088 13.4379 15.0588 13.4875 15.0319C13.5676 14.9873 13.6503 14.9457 13.733 14.9039C13.785 14.8801 13.8226 14.8418 13.838 14.7971C13.8534 14.7524 13.8452 14.7049 13.8152 14.6647C13.4726 14.3009 13.0657 13.9659 12.6828 13.6271L12.7186 13.8389C12.9948 13.5734 13.3093 13.3325 13.6563 13.1207C14.0151 12.8821 14.4105 12.6776 14.834 12.5118C14.886 12.488 14.9238 12.4497 14.9392 12.4049C14.9545 12.3602 14.9463 12.3126 14.9162 12.2725C14.8847 12.2332 14.8344 12.2047 14.776 12.193C14.7176 12.1813 14.6555 12.1873 14.6027 12.2098L14.602 12.2095Z" fill="#211715"/>
<path d="M21.1169 12.5115C21.5403 12.6773 21.9358 12.8818 22.2947 13.1204C22.6416 13.3322 22.9561 13.5731 23.2323 13.8386L23.2681 13.6268C22.8853 13.9656 22.4783 14.3006 22.1357 14.6644C22.1059 14.7046 22.0979 14.7521 22.1132 14.7968C22.1286 14.8414 22.1661 14.8798 22.2179 14.9036C22.2866 14.9384 22.3554 14.9728 22.4225 15.0092C22.5157 15.0597 22.5803 15.1204 22.6793 15.1762C22.6724 15.1723 22.6648 15.1531 22.6682 15.1665C22.6738 15.1883 22.6594 15.1394 22.6586 15.1348C22.6536 15.1137 22.6465 15.1348 22.6594 15.1255C22.67 15.1177 22.6619 15.1168 22.6575 15.1311C22.6377 15.1796 22.6085 15.2256 22.5709 15.2676C22.532 15.3173 22.49 15.3656 22.45 15.4149C22.2625 15.6461 22.0818 15.8807 21.8994 16.1143C21.3131 16.8652 20.729 17.6171 20.1309 18.3625C19.8662 18.6924 19.6016 19.0232 19.3175 19.3436C19.1518 19.5305 19.5486 19.7057 19.7131 19.5201C20.3116 18.8452 20.8498 18.1372 21.3982 17.4383C21.8834 16.8199 22.355 16.1943 22.8535 15.5818C22.9897 15.4143 23.223 15.186 23.0602 14.9851C22.9253 14.8184 22.6585 14.7073 22.4492 14.6017L22.5314 14.8409C22.5397 14.8305 22.5492 14.8207 22.56 14.8117C22.5181 14.8409 22.5548 14.817 22.5653 14.807C22.598 14.7759 22.6307 14.7447 22.6637 14.7138C22.7539 14.6294 22.845 14.5456 22.9369 14.4623C23.1533 14.265 23.3719 14.0689 23.5925 13.8741C23.6276 13.8464 23.6501 13.8108 23.6565 13.7726C23.663 13.7344 23.6531 13.6957 23.6283 13.6621C23.334 13.3695 22.9952 13.1046 22.619 12.8731C22.2322 12.6135 21.8055 12.3907 21.3484 12.2095C21.2956 12.1872 21.2336 12.1813 21.1753 12.193C21.1169 12.2047 21.0667 12.233 21.035 12.2722C21.0048 12.3123 20.9965 12.3599 21.0119 12.4047C21.0273 12.4494 21.0651 12.4878 21.1172 12.5115H21.1169Z" fill="#211715"/>
<path d="M25.1747 14.0698C25.1046 14.7274 24.9891 15.3823 24.8714 16.0356C24.7091 16.9348 24.5333 17.8325 24.3559 18.73C24.1632 19.7047 23.9675 20.6792 23.7771 21.6544C23.7358 21.8156 23.7073 21.9786 23.6917 22.1425C23.6883 22.2422 23.696 22.3424 23.7043 22.4418C23.7307 22.7587 23.7762 23.0747 23.823 23.3901C23.97 24.3819 24.1488 25.3709 24.3231 26.3601L24.5441 26.1388H11.3731C11.0783 26.1388 11.0779 26.4885 11.3731 26.4885H24.5441C24.7089 26.4885 24.7844 26.3773 24.765 26.2671C24.6099 25.3864 24.4526 24.5057 24.3163 23.6231C24.2636 23.2816 24.2128 22.9397 24.177 22.597C24.1651 22.483 24.1545 22.3687 24.1505 22.2546C24.149 22.2141 24.1483 22.1736 24.1505 22.1332C24.1512 22.1163 24.154 22.0994 24.1543 22.0825C24.1543 22.0778 24.1557 22.0729 24.1561 22.068C24.1476 22.1568 24.1656 22.0211 24.1689 22.005C24.5339 20.1267 24.9252 18.2512 25.2695 16.3706C25.4096 15.6056 25.5512 14.8393 25.6332 14.0694C25.6327 14.0231 25.6084 13.9789 25.5655 13.9462C25.5227 13.9135 25.4647 13.8949 25.4041 13.8945C25.3437 13.8954 25.2861 13.9141 25.2433 13.9467C25.2006 13.9793 25.1761 14.0233 25.1749 14.0694L25.1747 14.0698Z" fill="#211715"/>
<path d="M9.9397 14.1497C10.0106 14.8162 10.1283 15.4799 10.247 16.1423C10.4058 17.0286 10.5792 17.9134 10.7541 18.7979C10.9468 19.7727 11.1424 20.747 11.333 21.722C11.3555 21.8377 11.3771 21.9534 11.4005 22.0688C11.4196 22.1615 11.4016 22.0283 11.4036 22.0907C11.4043 22.1115 11.4066 22.1324 11.4072 22.1533C11.4095 22.2502 11.4023 22.3474 11.3942 22.4441C11.3682 22.7539 11.324 23.0633 11.2784 23.3715C11.1362 24.3344 10.9633 25.2945 10.7941 26.2548C10.7801 26.2995 10.7887 26.3466 10.8185 26.3865C10.8482 26.4265 10.8967 26.4563 10.9542 26.47C11.0127 26.482 11.0752 26.4759 11.1279 26.453C11.1807 26.4301 11.2195 26.3923 11.236 26.3478C11.3915 25.465 11.5492 24.5823 11.6871 23.6978C11.7411 23.3511 11.7931 23.0042 11.8315 22.6563C11.8654 22.4593 11.8743 22.2602 11.8581 22.0619C11.7872 21.5783 11.6704 21.096 11.575 20.6148C11.4767 20.1188 11.3782 19.6228 11.2795 19.1267C11.0996 18.2197 10.9202 17.3126 10.7532 16.404C10.6156 15.655 10.4782 14.904 10.3979 14.15C10.3965 14.1039 10.3719 14.0601 10.3292 14.0276C10.2866 13.995 10.2291 13.9762 10.1688 13.9751C10.1082 13.9754 10.0502 13.994 10.0073 14.0267C9.96443 14.0594 9.94015 14.1037 9.9397 14.15V14.1497Z" fill="#211715"/>
<path d="M20.3257 18.1745C16.7853 19.3045 12.2329 20.7449 8.60327 21.9035C9.65572 23.8241 11.6993 27.5476 12.4015 28.829H12.4024C16.9944 27.3706 20.2624 26.3016 24.1138 25.0724C23.3551 23.6881 21.0768 19.5445 20.3261 18.1744L20.3257 18.1745Z" fill="white"/>
<path d="M20.2647 18.006C18.7675 18.4838 17.2698 18.9604 15.7714 19.4358C14.1954 19.9365 12.6195 20.4373 11.0435 20.9381C10.2097 21.2034 9.37598 21.469 8.54222 21.7349C8.43959 21.7676 8.3297 21.8542 8.38221 21.95C8.88648 22.8703 9.3911 23.7906 9.89607 24.7107C10.4294 25.6831 10.9627 26.6554 11.4961 27.6276C11.6913 27.9832 11.8863 28.3389 12.0813 28.6946C12.1158 28.7785 12.1629 28.8592 12.2214 28.935C12.3086 29.0239 12.4339 29.0072 12.551 28.97L12.9208 28.8524C13.3691 28.7099 13.8173 28.5671 14.2652 28.424C15.8776 27.9091 17.4887 27.3918 19.0983 26.8721C20.5945 26.3901 22.0911 25.9089 23.5883 25.4288C23.7837 25.3663 23.9791 25.3038 24.1745 25.2414C24.2772 25.2087 24.3872 25.1222 24.3345 25.0263C23.8593 24.159 23.3833 23.292 22.9066 22.4253C22.3342 21.3834 21.7619 20.3415 21.1896 19.2996C21.063 19.0691 20.9364 18.8386 20.8099 18.6081C20.7574 18.5123 20.7049 18.4165 20.6523 18.3207C20.5902 18.2075 20.5452 18.0549 20.3865 18.0062C20.3279 17.9941 20.2655 18.0002 20.2127 18.0231C20.16 18.0459 20.1211 18.0837 20.1047 18.1283C20.09 18.173 20.0984 18.2203 20.1282 18.2603C20.158 18.3004 20.2069 18.3301 20.2647 18.3434L20.1046 18.2213C20.57 19.0705 21.0361 19.9195 21.5029 20.7682C22.0702 21.8009 22.6375 22.8335 23.2047 23.8661C23.4338 24.2838 23.6629 24.7015 23.892 25.1193L24.0521 24.9042C22.5942 25.3695 21.1375 25.8372 19.682 26.3073C18.1901 26.7882 16.6976 27.2681 15.2045 27.7471C14.2504 28.0528 13.2957 28.3573 12.3405 28.6607H12.4623H12.4614L12.6214 28.7829C12.1895 27.9946 11.7571 27.2063 11.3245 26.4182C10.7608 25.3907 10.1972 24.3632 9.63372 23.3357C9.36341 22.843 9.09324 22.3502 8.82319 21.8574L8.66318 22.0725C10.1815 21.5879 11.7005 21.1046 13.22 20.6226C14.7901 20.1238 16.3601 19.625 17.9301 19.126C18.7488 18.8656 19.5674 18.6049 20.3857 18.3438C20.4432 18.3302 20.4917 18.3004 20.5215 18.2605C20.5512 18.2205 20.5598 18.1734 20.5457 18.1287C20.5294 18.0842 20.4908 18.0463 20.4382 18.0234C20.3856 18.0004 20.3233 17.9941 20.2647 18.006Z" fill="#211715"/>
<path d="M21.1445 24.9254C21.0204 24.7641 20.7681 24.7252 20.559 24.6462C20.076 24.4637 19.5751 24.3145 19.0925 24.1231C18.8538 24.0283 18.6438 23.8416 18.3808 23.7914C18.1326 23.744 17.7743 23.7926 17.5215 23.8118C17.0676 23.8464 16.3656 23.952 15.9249 23.9072L15.7232 23.8756C15.2297 24.5638 14.7208 25.2467 14.1694 25.9117C14.6094 26.1554 15.0059 26.4418 15.3491 26.7635C15.6185 27.0399 15.8456 27.3624 16.1867 27.5829C16.4789 27.7716 17.1298 27.7719 17.178 27.7622C17.5394 27.6893 18.213 27.5895 18.3584 27.3438C18.6389 27.429 18.8268 27.4775 19.0231 27.373C19.2391 27.2576 19.3153 27.1529 19.2541 27.0014C19.3238 27.0576 19.4084 27.1018 19.5022 27.1311C19.596 27.1603 19.697 27.174 19.7983 27.1711C20.1148 27.1739 20.5143 26.9858 20.5143 26.7142C20.5143 26.4819 20.1576 26.1925 19.9816 26.0096C19.7836 25.8035 19.4654 25.5276 19.2309 25.281C19.5105 25.432 19.8955 25.434 20.2166 25.5249C20.5156 25.6094 20.7978 25.6908 21.0674 25.4948C21.1599 25.4193 21.2175 25.3228 21.2314 25.22C21.2454 25.1172 21.2148 25.0137 21.1445 24.9254Z" fill="white"/>
<path d="M15.9252 24.082C16.4068 24.1268 16.9018 24.0435 17.3786 23.9989C17.6273 23.9694 17.8781 23.9517 18.1297 23.946C18.3788 23.9469 18.5417 24.0411 18.7348 24.1513C18.9632 24.2717 19.2078 24.3733 19.4644 24.4542C19.7364 24.5494 20.0114 24.6396 20.2819 24.7374C20.405 24.782 20.527 24.8262 20.6526 24.8666C20.7419 24.8894 20.8253 24.924 20.899 24.9686C20.9579 25.0162 20.9948 25.0772 21.0042 25.1422C21.0137 25.2073 20.9952 25.2729 20.9514 25.3293C20.7957 25.507 20.5262 25.4246 20.3142 25.3657C20.0317 25.2872 19.7127 25.2774 19.4433 25.174C19.1805 25.0732 18.9481 25.3749 19.212 25.476C19.5004 25.5866 19.8171 25.6049 20.1189 25.6827C20.3967 25.7542 20.6753 25.8382 20.9658 25.7492C21.5635 25.566 21.6259 24.9154 21.0994 24.6476C20.9857 24.5969 20.8663 24.5539 20.7426 24.5192C20.5965 24.4703 20.4545 24.4137 20.3094 24.3631C19.9959 24.2538 19.6786 24.1506 19.3694 24.0341C19.2384 23.9867 19.1133 23.9305 18.9956 23.866C18.8902 23.801 18.7785 23.742 18.6614 23.6898C18.3836 23.5782 18.0791 23.5887 17.7757 23.6145C17.4674 23.6406 17.1603 23.6722 16.8525 23.7019C16.5461 23.7408 16.2347 23.751 15.9252 23.7321C15.8645 23.7324 15.8064 23.7509 15.7635 23.7836C15.7206 23.8164 15.6964 23.8607 15.696 23.907C15.6975 23.953 15.722 23.9969 15.7647 24.0295C15.8074 24.062 15.8648 24.0808 15.9252 24.0819V24.082Z" fill="#211715"/>
<path d="M19.0774 25.4135C19.3112 25.6515 19.5666 25.8764 19.8011 26.114C19.9021 26.216 20.0112 26.3141 20.1066 26.4196C20.1914 26.4994 20.2523 26.5925 20.2849 26.6922C20.3116 26.8793 19.9943 26.996 19.7985 26.9955C19.4995 26.9947 19.3653 26.8376 19.2047 26.6797C19.1616 26.6471 19.1034 26.6289 19.0427 26.6289C18.982 26.6289 18.9238 26.6471 18.8807 26.6797C18.8391 26.713 18.8159 26.7573 18.8159 26.8033C18.8159 26.8494 18.8391 26.8936 18.8807 26.927C19.0402 27.0838 19.2149 27.2471 19.4903 27.3118C19.642 27.3464 19.8021 27.354 19.9583 27.3339C20.1145 27.3138 20.2625 27.2666 20.3909 27.1958C20.6519 27.0494 20.8039 26.817 20.7173 26.5693C20.6348 26.3338 20.4049 26.1436 20.2146 25.9556C19.9705 25.7143 19.7123 25.481 19.4728 25.237C19.4409 25.1981 19.3906 25.1699 19.3324 25.1582C19.2741 25.1466 19.2123 25.1523 19.1594 25.1743C19.1072 25.1979 19.0694 25.2363 19.054 25.2811C19.0386 25.3259 19.0469 25.3735 19.0772 25.4136L19.0774 25.4135Z" fill="#211715"/>
<path d="M19.0291 27.0372C19.0487 27.0868 19.055 27.1027 19.0268 27.1368C18.9848 27.1818 18.9287 27.2182 18.8635 27.2425C18.7307 27.2914 18.5452 27.2133 18.4195 27.1752C18.3708 27.165 18.3191 27.1672 18.2722 27.1817C18.2254 27.1962 18.1862 27.2221 18.1607 27.2554C18.1407 27.2928 18.1057 27.3245 18.0608 27.3459C18.0025 27.3753 17.9409 27.4008 17.8769 27.4222C17.726 27.4697 17.5703 27.5079 17.4114 27.5363C17.3378 27.5509 17.2639 27.5648 17.19 27.5791C17.1737 27.5822 17.1565 27.5847 17.1407 27.5887C17.0872 27.6019 17.1558 27.5754 17.1679 27.5887C17.152 27.5884 17.136 27.589 17.1202 27.5905C17.0057 27.5923 16.8912 27.586 16.7782 27.5717C16.6287 27.559 16.4845 27.5217 16.3557 27.4624C16.2081 27.3709 16.0792 27.2632 15.9733 27.1427C15.7389 26.8971 15.5341 26.6391 15.2613 26.4163C14.952 26.1614 14.6079 25.9325 14.2348 25.7335C14.1822 25.7105 14.1199 25.7042 14.0612 25.716C14.0026 25.7277 13.9524 25.7565 13.9213 25.7963C13.8918 25.8365 13.8839 25.8839 13.8992 25.9285C13.9146 25.9731 13.9519 26.0114 14.0035 26.0354C14.3478 26.2211 14.6647 26.4348 14.9486 26.6727C15.2306 26.9041 15.431 27.1799 15.6957 27.4377C15.8212 27.5726 15.9782 27.6887 16.1589 27.7801C16.3219 27.8485 16.5003 27.8931 16.6847 27.9116C16.8285 27.9308 16.9742 27.9401 17.1201 27.9394C17.2506 27.9302 17.3793 27.9099 17.5039 27.8788C17.8666 27.8074 18.3743 27.7132 18.5562 27.4313L18.2974 27.5115C18.5815 27.5972 18.8843 27.6611 19.1556 27.5134C19.4101 27.375 19.5667 27.1856 19.4706 26.9433C19.3857 26.7283 18.9432 26.8199 19.0287 27.0362L19.0291 27.0372Z" fill="#211715"/>
<path d="M9.79473 20.699C10.3688 20.9277 15.3154 23.3445 15.9148 23.6078C15.2982 24.4748 14.6641 25.3364 13.9557 26.1668C13.0907 25.8613 10.3426 24.7086 8.5628 23.764C7.79083 23.3542 6.74487 22.8589 6.25244 22.0969L9.79473 20.699Z" fill="#F9B54C"/>
<path d="M9.67893 20.85C9.94233 20.9555 10.1936 21.0811 10.4466 21.2001C10.9102 21.4184 11.3723 21.6386 11.8329 21.8606C12.8466 22.3468 13.8576 22.8363 14.8719 23.3219C15.1793 23.4691 15.4846 23.6206 15.7991 23.759L15.7169 23.5198C15.0991 24.3882 14.4636 25.2499 13.7578 26.0788L14.0712 26.0161C13.6129 25.8538 13.168 25.6689 12.7251 25.4843C12.0666 25.2099 11.4153 24.9258 10.7713 24.6318C10.1038 24.3273 9.44274 24.0135 8.80128 23.6778C8.19467 23.3604 7.56601 23.0524 7.05229 22.6465C6.54258 22.2439 6.17397 21.7436 6.29751 21.1686C6.37667 20.864 6.49348 20.5659 6.64635 20.2781C6.77549 20.0104 6.90186 19.7419 7.02546 19.4727C7.49326 18.447 7.956 17.42 8.44213 16.3993C8.55077 16.171 8.66126 15.9433 8.7736 15.7163C8.88465 15.4744 9.01757 15.2386 9.17142 15.0107C9.2893 14.8447 9.44266 14.6949 9.62518 14.5675C9.66939 14.5349 9.71426 14.5028 9.75884 14.4706C9.78223 14.4537 9.80772 14.4374 9.82977 14.4196C9.85517 14.3988 9.78462 14.4414 9.84056 14.4127C9.95159 14.3555 10.066 14.3027 10.1826 14.2524C10.244 14.2259 10.3059 14.2 10.3688 14.1757C10.3915 14.1669 10.4145 14.1588 10.4372 14.1502C10.4927 14.1292 10.4086 14.1566 10.4622 14.1429C10.7406 14.0721 10.6213 13.7343 10.3403 13.8056C10.0851 13.8793 9.84416 13.9792 9.62432 14.1026C9.4198 14.2166 9.23545 14.3504 9.07585 14.5005C8.64949 14.886 8.44576 15.3879 8.21787 15.8538C7.70339 16.9079 7.22413 17.9722 6.74048 19.0349C6.64263 19.25 6.54544 19.4652 6.44625 19.68C6.29197 20.0139 6.11497 20.3424 5.98017 20.6814C5.85579 20.9612 5.80154 21.2563 5.82026 21.5514C5.8599 21.8605 5.99923 22.1573 6.22581 22.4153C6.66907 22.9395 7.32829 23.3239 7.99113 23.6752C8.61884 24.0079 9.25295 24.3319 9.90319 24.6385C11.1004 25.2031 12.3251 25.7464 13.5861 26.2244C13.6702 26.2563 13.7547 26.2877 13.84 26.3179C13.8928 26.3399 13.9547 26.3457 14.013 26.334C14.0713 26.3224 14.1215 26.2942 14.1534 26.2552C14.8592 25.4262 15.4947 24.5645 16.1125 23.6961C16.1421 23.6559 16.1501 23.6084 16.1348 23.5638C16.1195 23.5191 16.082 23.4808 16.0303 23.4568C15.2919 23.1317 14.5792 22.7687 13.8584 22.4216C12.8483 21.9353 11.8398 21.4471 10.8245 20.9673C10.5233 20.8249 10.2243 20.6737 9.91025 20.548C9.64934 20.4435 9.41744 20.7453 9.67893 20.85V20.85Z" fill="#211715"/>
<path d="M22.9947 12.8371C23.0708 12.8425 23.1442 12.8615 23.2089 12.8926C23.2736 12.9237 23.3278 12.966 23.367 13.0161L30.5254 14.443C30.7186 14.2409 30.9519 14.0243 31.2773 13.9942C31.3707 13.9856 31.4655 13.9935 31.5542 14.0174C31.643 14.0413 31.7233 14.0806 31.7889 14.132C31.8545 14.1835 31.9036 14.2459 31.9324 14.3142C31.9613 14.3826 31.9691 14.4551 31.9551 14.5261C31.9152 14.6631 31.8321 14.7906 31.7132 14.8977C31.6114 15.0029 31.5047 15.1053 31.3932 15.2048C31.4767 15.2067 31.5585 15.2232 31.6322 15.2532C31.7059 15.2832 31.7694 15.3259 31.8179 15.3778C31.911 15.487 31.9515 15.6175 31.9324 15.7469C31.9258 15.8058 31.9104 15.864 31.8866 15.9203C31.7991 16.0967 31.6767 16.2617 31.5238 16.4098L31.1757 16.7842C31.0901 16.8926 30.9732 16.9847 30.8339 17.0534C30.9282 17.0826 31.0064 17.1356 31.0555 17.2036C31.1063 17.2873 31.127 17.3798 31.1155 17.4716C31.0933 17.5834 31.0212 17.6859 30.9114 17.7618C30.6981 17.9076 30.4723 18.0424 30.2355 18.1653C30.1626 18.2002 30.0806 18.2226 29.9952 18.2309C29.9099 18.2393 29.8232 18.2334 29.7411 18.2137C29.6793 18.1931 29.6238 18.1629 29.5783 18.1249L22.9902 15.0357C22.8188 14.7161 22.5061 14.227 22.2307 13.8132C22.0458 13.5352 22.0493 13.1137 22.3824 12.9403C22.5623 12.8484 22.7809 12.8116 22.9947 12.8371Z" fill="white"/>
<path d="M22.5005 18.189C22.6819 17.1842 23.5166 12.5015 23.7011 11.4819C23.7045 11.463 23.7127 11.4447 23.7253 11.4282C23.7379 11.4118 23.7547 11.3973 23.7747 11.3858C23.7946 11.3743 23.8174 11.3659 23.8416 11.3612C23.8658 11.3564 23.8911 11.3553 23.9158 11.358C24.9863 11.4728 29.5215 11.9586 30.6581 12.0805C30.6828 12.0831 30.7066 12.0894 30.7282 12.099C30.7497 12.1086 30.7686 12.1214 30.7836 12.1366C30.7987 12.1518 30.8097 12.1691 30.816 12.1875C30.8223 12.206 30.8238 12.2252 30.8204 12.2441C30.4683 14.1808 29.923 17.1787 29.6016 18.933C29.5982 18.9519 29.5899 18.9701 29.5773 18.9865C29.5647 19.003 29.5479 19.0174 29.528 19.0289C29.5081 19.0404 29.4854 19.0488 29.4612 19.0536C29.437 19.0584 29.4118 19.0595 29.3871 19.0569C28.2202 18.933 23.777 18.4697 22.6632 18.352C22.6385 18.3494 22.6147 18.3432 22.5931 18.3336C22.5716 18.3241 22.5527 18.3114 22.5376 18.2962C22.5225 18.2811 22.5114 18.2638 22.5051 18.2454C22.4987 18.227 22.4971 18.2078 22.5005 18.189Z" fill="white"/>
<path d="M25.2159 14.9101L24.9075 14.8765L24.7591 14.8604L24.6884 14.8527C24.6782 14.8517 24.668 14.8508 24.658 14.8494C24.6328 14.846 24.6188 14.8349 24.6646 14.8557C24.6335 14.8417 24.679 14.8655 24.6803 14.8678C24.6785 14.8647 24.6444 14.84 24.6738 14.8653C24.7032 14.8905 24.6702 14.8484 24.6851 14.8798C24.7 14.9112 24.6882 14.8769 24.6851 14.8741C24.6875 14.8767 24.6905 14.9204 24.6912 14.892C24.6902 14.9369 24.6856 14.9221 24.6881 14.9088C24.6918 14.8894 24.6955 14.8698 24.699 14.85C24.7142 14.7675 24.729 14.685 24.7434 14.6027L24.7509 14.56C24.7523 14.5519 24.7498 14.5231 24.7522 14.5533L24.75 14.5668C24.7554 14.5533 24.754 14.5541 24.7462 14.5694C24.724 14.5974 24.7512 14.5694 24.7517 14.5651C24.7517 14.5678 24.7146 14.5989 24.7401 14.5797C24.7019 14.6081 24.7073 14.5974 24.7234 14.5912C24.6868 14.6017 24.6799 14.6042 24.7027 14.5984L24.7147 14.5964L24.6787 14.6007C24.697 14.6014 24.6958 14.6008 24.6751 14.5991C24.6464 14.5885 24.6669 14.5982 24.6817 14.5998L24.7529 14.6076L24.9104 14.6247C25.0119 14.6357 25.1136 14.6494 25.2154 14.6583C25.25 14.6612 25.2003 14.6558 25.1963 14.6502C25.1963 14.6502 25.2149 14.6594 25.2173 14.6598L25.1895 14.6443C25.2015 14.6543 25.2006 14.6531 25.1871 14.6406L25.1764 14.6302C25.1879 14.646 25.1855 14.6404 25.1691 14.6132C25.1708 14.6193 25.1729 14.6253 25.1754 14.6312C25.1601 14.6118 25.1708 14.5924 25.1695 14.6133C25.1731 14.5539 25.1695 14.6126 25.167 14.6279L25.1227 14.8683C25.1196 14.8857 25.1165 14.9031 25.1132 14.9205C25.112 14.9267 25.1098 14.9337 25.1091 14.94C25.106 14.9722 25.1329 14.9077 25.1138 14.9335C25.0924 14.9627 25.1431 14.9071 25.1233 14.9232C25.1054 14.9378 25.169 14.9014 25.1357 14.9148C25.1879 14.8941 25.1705 14.9047 25.1505 14.9083C25.1327 14.9113 25.1427 14.9101 25.1807 14.905C25.1721 14.9051 25.1636 14.9047 25.1551 14.9038C25.0944 14.9039 25.0362 14.9224 24.9933 14.9552C24.9504 14.9879 24.9262 15.0323 24.926 15.0787C24.9276 15.1246 24.9522 15.1684 24.9948 15.201C25.0375 15.2335 25.0948 15.2523 25.1551 15.2535C25.2423 15.2574 25.3286 15.2387 25.4 15.2003C25.4714 15.1619 25.5236 15.1062 25.5481 15.0422C25.559 15.0045 25.5667 14.9662 25.5712 14.9277L25.5969 14.7879C25.6042 14.7486 25.6114 14.7091 25.6187 14.6696C25.6377 14.5958 25.6213 14.5192 25.5725 14.4537C25.5241 14.3939 25.4495 14.3489 25.362 14.3268C25.3012 14.3147 25.2392 14.3068 25.1766 14.3032L24.7963 14.2618C24.7177 14.2479 24.6357 14.2499 24.5583 14.2675C24.4671 14.2915 24.3908 14.3404 24.3441 14.4049C24.3119 14.4606 24.2934 14.5203 24.2896 14.5811C24.2883 14.5884 24.287 14.5957 24.2858 14.603C24.2953 14.5498 24.2879 14.5907 24.2858 14.6015C24.2816 14.6247 24.2775 14.648 24.2733 14.6712C24.2658 14.7126 24.2582 14.7539 24.2505 14.7951C24.2312 14.8576 24.2309 14.9226 24.2499 14.9852C24.2795 15.0585 24.3452 15.1203 24.4332 15.1575C24.5052 15.1822 24.5825 15.1967 24.6613 15.2C24.8056 15.2157 24.9498 15.2314 25.094 15.247C25.1537 15.2577 25.2165 15.2515 25.2705 15.2294C25.3217 15.2061 25.3593 15.1687 25.3755 15.1249C25.4006 15.0426 25.3428 14.9238 25.2159 14.9101Z" fill="#211715"/>
<path d="M30.7237 14.5314C30.8778 14.3705 31.1034 14.1367 31.4026 14.1681C31.4752 14.1761 31.5434 14.1998 31.5988 14.2364C31.6543 14.2731 31.6948 14.3212 31.7156 14.3749C31.7633 14.4974 31.6921 14.6089 31.6055 14.71C31.1729 15.1927 30.6303 15.6122 30.0035 15.9486C29.9524 15.9729 29.9153 16.0112 29.9 16.0557C29.8848 16.1002 29.8924 16.1475 29.9213 16.1878C29.9523 16.2276 30.0026 16.2565 30.0612 16.2682C30.1199 16.2799 30.1822 16.2736 30.2348 16.2505C30.8582 15.9062 31.4105 15.4925 31.8731 15.0232C32.1022 14.7905 32.2836 14.5204 32.1324 14.2276C32.0623 14.091 31.9334 13.9767 31.7667 13.9036C31.6001 13.8305 31.4058 13.8029 31.2159 13.8254C30.8182 13.8715 30.5508 14.1214 30.328 14.3545C30.2978 14.3947 30.2895 14.4422 30.3048 14.487C30.3202 14.5318 30.3581 14.5701 30.4102 14.5937C30.463 14.6161 30.5251 14.6221 30.5835 14.6104C30.6419 14.5987 30.6921 14.5703 30.7237 14.531V14.5314Z" fill="#211715"/>
<path d="M30.7175 17.2047C30.7461 17.2143 30.7735 17.2258 30.7995 17.2389C30.7751 17.2262 30.8267 17.2573 30.8275 17.2579C30.846 17.2738 30.8487 17.2754 30.8357 17.263C30.8438 17.2723 30.8509 17.282 30.8568 17.2922C30.8432 17.2686 30.8694 17.325 30.8688 17.3232C30.8855 17.3584 30.8926 17.3959 30.8897 17.4332C30.8897 17.4799 30.8992 17.4174 30.8854 17.4609C30.8831 17.4681 30.8607 17.5253 30.8696 17.5078C30.8427 17.5641 30.7949 17.6133 30.7321 17.6493C30.6873 17.6794 30.6414 17.7087 30.5956 17.738C30.5336 17.7777 30.4711 17.817 30.4081 17.8557C30.3766 17.8751 30.3448 17.8942 30.3126 17.913C30.3581 17.8861 30.297 17.9218 30.2886 17.9266C30.2754 17.9338 30.262 17.9416 30.2487 17.949C30.1928 17.982 30.1323 18.0101 30.0683 18.0329C30.0738 18.0311 30.0247 18.0448 30.0206 18.0458C30.0034 18.05 29.9861 18.0536 29.9686 18.0567C29.9399 18.0606 29.9335 18.0618 29.9507 18.0601C29.9244 18.0626 29.8978 18.0629 29.8715 18.0608C29.9014 18.0633 29.7776 18.0374 29.8487 18.0608C29.7958 18.0389 29.7339 18.0332 29.6756 18.0448C29.6174 18.0565 29.5672 18.0846 29.5351 18.1236C29.5049 18.1637 29.4966 18.2113 29.5119 18.256C29.5273 18.3008 29.5652 18.3391 29.6173 18.3628C29.7391 18.3996 29.8705 18.4139 30.0009 18.4045C30.1313 18.3951 30.2569 18.3622 30.3674 18.3087C30.4982 18.2461 30.6225 18.1759 30.7391 18.0987C30.8439 18.0343 30.9473 17.9685 31.0492 17.9012C31.1362 17.8438 31.2074 17.7737 31.2585 17.695C31.3096 17.6163 31.3396 17.5306 31.3469 17.443C31.3586 17.333 31.3269 17.2228 31.2559 17.1266C31.1849 17.0304 31.0778 16.9525 30.9485 16.9031C30.8956 16.881 30.8337 16.8752 30.7754 16.8869C30.717 16.8985 30.6668 16.9268 30.635 16.9659C30.6047 17.006 30.5964 17.0535 30.6118 17.0983C30.6272 17.1431 30.665 17.1814 30.7171 17.205L30.7175 17.2047Z" fill="#211715"/>
<path d="M31.425 15.3803C31.6837 15.4037 31.7357 15.6459 31.69 15.8029C31.6232 16.0308 31.4176 16.2214 31.2445 16.4079C31.1479 16.5121 31.0523 16.6168 30.9545 16.7201C30.8942 16.7986 30.8076 16.8636 30.7037 16.9083C30.4635 16.985 30.2753 16.8235 30.2293 16.6584C30.1678 16.4384 29.7259 16.5315 29.7873 16.7514C29.8743 17.0629 30.2378 17.3069 30.6656 17.2706C31.1315 17.231 31.3698 16.8761 31.6138 16.6133C31.8661 16.3414 32.1454 16.064 32.1639 15.7167C32.182 15.5515 32.1149 15.3875 31.977 15.2594C31.8391 15.1313 31.6413 15.0492 31.4254 15.0306C31.3647 15.0309 31.3067 15.0494 31.2638 15.0822C31.2209 15.1149 31.1966 15.1592 31.1963 15.2055C31.1977 15.2515 31.2223 15.2954 31.2649 15.328C31.3076 15.3605 31.3651 15.3793 31.4254 15.3804L31.425 15.3803Z" fill="#211715"/>
<path d="M30.2638 16.5632C30.2678 16.5554 30.2719 16.5476 30.276 16.5397C30.2871 16.5184 30.2799 16.5386 30.2718 16.547C30.2823 16.5328 30.2911 16.5179 30.298 16.5025C30.3165 16.4722 30.3361 16.4423 30.3568 16.4128C30.395 16.3574 30.4377 16.3035 30.4814 16.2504C30.5707 16.142 30.6638 16.0353 30.7543 15.9274C30.7845 15.8873 30.7927 15.8397 30.7774 15.795C30.762 15.7502 30.7242 15.7119 30.6721 15.6882C30.6194 15.6658 30.5573 15.6598 30.4989 15.6715C30.4404 15.6832 30.3902 15.7116 30.3586 15.7509C30.1625 15.9849 29.9558 16.2099 29.8219 16.4703C29.8138 16.4928 29.8117 16.5163 29.8157 16.5394C29.8196 16.5625 29.8296 16.5848 29.845 16.605C29.8755 16.6441 29.9245 16.6727 29.9819 16.6851C30.0404 16.6961 30.1023 16.6896 30.1547 16.6669C30.2071 16.6442 30.2462 16.607 30.2638 16.563V16.5632Z" fill="#211715"/>
<path d="M23.5649 12.9279C23.2599 12.4976 22.328 12.6116 22.0255 12.9789C21.8826 13.1754 21.8402 13.4055 21.9066 13.6245C21.9664 13.8701 22.1615 14.0953 22.3039 14.3167C22.4662 14.5688 22.6285 14.8222 22.7685 15.082C22.7863 15.126 22.8253 15.163 22.8777 15.1857C22.9301 15.2084 22.9918 15.215 23.0503 15.2042C23.1087 15.1916 23.1583 15.162 23.1882 15.1217C23.2182 15.0814 23.2261 15.0338 23.2103 14.9891C23.0738 14.736 22.9213 14.4881 22.7647 14.2419C22.6785 14.1064 22.5909 13.9713 22.5019 13.8368C22.4305 13.7416 22.3788 13.6385 22.3484 13.5313C22.3102 13.36 22.3446 13.1539 22.5565 13.0629C22.6777 13.0115 22.8177 12.992 22.9548 13.0076C23.0022 13.0136 23.0479 13.0254 23.0903 13.0426C23.1255 13.0551 23.1536 13.077 23.1692 13.1042C23.3096 13.3022 23.7054 13.126 23.5649 12.9276V12.9279Z" fill="#211715"/>
<path d="M22.7215 18.2354C22.8275 17.6494 22.9325 17.0633 23.0366 16.4771C23.1888 15.6259 23.3409 14.7747 23.4929 13.9233C23.6176 13.2259 23.7424 12.5286 23.8674 11.8312C23.8851 11.7325 23.913 11.6317 23.9213 11.5325C23.9247 11.4914 23.9388 11.5245 23.915 11.5252C23.8974 11.5258 23.8497 11.523 23.8836 11.5302C23.9172 11.5355 23.9512 11.5391 23.9855 11.5411L24.2075 11.5649L25.5317 11.7068L28.9319 12.0711L30.2633 12.2137L30.4946 12.2385C30.5248 12.2418 30.5549 12.2458 30.5852 12.2482C30.6358 12.2526 30.613 12.265 30.6018 12.244C30.579 12.2019 30.5922 12.2379 30.5864 12.2682L30.4527 13.0021C30.2466 14.136 30.0402 15.2698 29.8336 16.4037C29.7354 16.9428 29.637 17.482 29.5385 18.0211C29.4963 18.2523 29.4541 18.4835 29.4117 18.7146C29.4022 18.7682 29.3881 18.8223 29.3821 18.8762C29.3821 18.8796 29.3718 18.9088 29.3735 18.9098C29.8555 19.2013 29.3775 18.8905 29.3873 18.8902C29.4141 18.8893 29.4514 18.8912 29.4092 18.8845C29.3361 18.8729 29.2597 18.8687 29.1858 18.8609C28.1755 18.7545 27.1652 18.6486 26.1548 18.5432C25.1286 18.4358 24.1024 18.3284 23.0763 18.2208L22.8543 18.1974C22.8209 18.1939 22.7875 18.1909 22.7541 18.1869C22.7342 18.1827 22.7139 18.18 22.6934 18.1786C22.7244 18.155 22.7236 18.265 22.7294 18.1888C22.7462 17.964 22.2878 17.9647 22.2711 18.1888C22.2657 18.2659 22.2967 18.3418 22.3585 18.4029C22.4203 18.464 22.5088 18.5061 22.6078 18.5215C22.6781 18.5323 22.751 18.5367 22.8224 18.5441L23.4056 18.6054L25.019 18.7743C26.1684 18.8946 27.3177 19.015 28.467 19.1353L29.0808 19.1999C29.1542 19.2076 29.2275 19.2153 29.3009 19.223C29.5148 19.2456 29.7247 19.1915 29.8047 19.0242C29.8424 18.917 29.8658 18.8072 29.8745 18.6964C29.8972 18.5718 29.92 18.4472 29.9428 18.3227L30.0869 17.5337C30.3016 16.3572 30.5159 15.1807 30.7298 14.0042C30.8279 13.4643 30.9261 12.9245 31.0243 12.3846C31.054 12.2211 31.0661 12.0556 30.8576 11.9547C30.7676 11.9191 30.6685 11.8989 30.5672 11.8956L30.0161 11.8365L26.6664 11.4776L25.012 11.3002L24.3811 11.2326C24.2083 11.2028 24.032 11.1865 23.855 11.184C23.7612 11.1901 23.6728 11.2202 23.6042 11.2694C23.5356 11.3186 23.4907 11.3839 23.4767 11.455C23.4672 11.5028 23.4593 11.5509 23.4507 11.5988C23.4279 11.7251 23.4052 11.8516 23.3826 11.9782C23.3198 12.3276 23.2573 12.677 23.1949 13.0265C23.037 13.9086 22.8794 14.7907 22.7219 15.6727C22.5927 16.3959 22.4633 17.1191 22.3337 17.8423C22.3157 17.9423 22.2977 18.0422 22.2797 18.1421C22.2656 18.1867 22.2743 18.2338 22.304 18.2737C22.3337 18.3137 22.3822 18.3435 22.4397 18.3571C22.4982 18.3691 22.5606 18.3631 22.6133 18.3403C22.666 18.3175 22.7049 18.2799 22.7215 18.2354Z" fill="#211715"/>
<path d="M28.8281 15.303L28.5195 15.2694L28.3713 15.2533L28.3005 15.2461C28.2904 15.245 28.2801 15.2442 28.2701 15.2428C28.2449 15.2393 28.2309 15.2282 28.2768 15.249C28.2456 15.235 28.2912 15.2588 28.2925 15.2611C28.2906 15.2579 28.2566 15.2333 28.2859 15.2585C28.3152 15.2837 28.2823 15.2417 28.2973 15.2731C28.3123 15.3045 28.3003 15.2702 28.2973 15.2674C28.2996 15.2699 28.3026 15.3137 28.3033 15.2852C28.3023 15.3302 28.2978 15.3154 28.3003 15.3021C28.3039 15.2825 28.3076 15.263 28.3111 15.2434C28.3264 15.1608 28.3412 15.0782 28.3555 14.9956C28.3581 14.9814 28.3606 14.9671 28.3631 14.9529C28.3644 14.9448 28.3619 14.9161 28.3643 14.9462L28.3622 14.9597C28.3675 14.9462 28.3662 14.9471 28.3584 14.9623C28.3361 14.9903 28.3634 14.9623 28.3638 14.958C28.3638 14.9607 28.3267 14.9918 28.3522 14.9726C28.314 15.001 28.3194 14.9904 28.3356 14.9841C28.2989 14.9946 28.292 14.997 28.3148 14.9913L28.3268 14.9893L28.2909 14.9936C28.3091 14.9942 28.3079 14.9937 28.2872 14.992C28.2585 14.9814 28.279 14.991 28.2939 14.9927L28.3651 15.0004L28.5225 15.0176C28.624 15.0287 28.7258 15.0423 28.828 15.0512C28.8625 15.0542 28.8128 15.0487 28.8089 15.0431C28.8089 15.0431 28.8274 15.0522 28.8299 15.0527L28.802 15.0372C28.8141 15.0472 28.8133 15.046 28.7998 15.0335L28.7891 15.0231C28.8006 15.0389 28.7982 15.0332 28.7818 15.0061C28.7834 15.0122 28.7855 15.0182 28.788 15.0241C28.7726 15.0047 28.7834 14.9853 28.7822 15.0062C28.7857 14.9468 28.7822 15.0055 28.7796 15.0208L28.7354 15.2612C28.7322 15.2786 28.7291 15.296 28.7259 15.3134C28.7246 15.3196 28.7223 15.3266 28.7218 15.3329C28.7187 15.365 28.7455 15.3005 28.7264 15.3263C28.705 15.3555 28.7557 15.3 28.736 15.3161C28.718 15.3307 28.7816 15.2943 28.7483 15.3076C28.8006 15.2869 28.783 15.2975 28.7632 15.3012C28.7452 15.3041 28.7553 15.303 28.7933 15.2979C28.7847 15.298 28.7762 15.2976 28.7678 15.2966C28.7071 15.2968 28.6489 15.3152 28.606 15.348C28.563 15.3808 28.5388 15.4251 28.5386 15.4715C28.5402 15.5175 28.5649 15.5613 28.6075 15.5938C28.6501 15.6263 28.7075 15.6451 28.7678 15.6463C28.8549 15.6502 28.9412 15.6315 29.0126 15.5931C29.084 15.5547 29.1361 15.499 29.1606 15.435C29.1716 15.3973 29.1793 15.3591 29.1838 15.3206L29.2095 15.1808C29.2168 15.1414 29.224 15.1019 29.2313 15.0625C29.2503 14.9886 29.2339 14.912 29.1851 14.8466C29.1367 14.7867 29.0621 14.7417 28.9746 14.7197C28.9138 14.7075 28.8518 14.6996 28.7892 14.696L28.409 14.6546C28.3303 14.6408 28.2483 14.6428 28.171 14.6603C28.0797 14.6843 28.0034 14.7333 27.9568 14.7978C27.9245 14.8534 27.906 14.9131 27.9022 14.9739C27.9009 14.9812 27.8997 14.9885 27.8983 14.9958C27.9079 14.9427 27.9005 14.9835 27.8983 14.9943C27.8941 15.0176 27.89 15.0408 27.8858 15.0641C27.8783 15.1054 27.8706 15.1467 27.863 15.1879C27.8437 15.2504 27.8435 15.3154 27.8623 15.378C27.8921 15.4513 27.9578 15.513 28.0457 15.5502C28.1177 15.575 28.1951 15.5894 28.2739 15.5928L28.7065 15.6398C28.7662 15.6505 28.829 15.6443 28.8831 15.6222C28.9343 15.5989 28.9719 15.5615 28.9881 15.5177C29.0127 15.4355 28.9549 15.3167 28.8281 15.303Z" fill="#211715"/>
<path d="M27.0386 15.1107L26.7301 15.0772L26.5818 15.0611L26.5111 15.0535C26.501 15.0524 26.4907 15.0515 26.4806 15.0502C26.4554 15.0467 26.4414 15.0356 26.4872 15.0564C26.4561 15.0424 26.5016 15.0662 26.5031 15.0685C26.5012 15.0654 26.4672 15.0407 26.4965 15.0659C26.5258 15.0911 26.4929 15.0491 26.5078 15.0805C26.5228 15.1119 26.5108 15.0776 26.5078 15.0748C26.5101 15.0774 26.5132 15.1211 26.5139 15.0927C26.5128 15.1376 26.5082 15.1228 26.5108 15.1095C26.5144 15.0899 26.5182 15.0703 26.5217 15.0507C26.537 14.9681 26.5518 14.8857 26.5661 14.8034C26.5687 14.7889 26.5711 14.7749 26.5735 14.7607C26.575 14.7526 26.5725 14.7242 26.5749 14.754L26.5728 14.7675C26.578 14.754 26.5768 14.7548 26.5689 14.7701C26.5466 14.7981 26.5739 14.7704 26.5744 14.7658C26.5744 14.7685 26.5372 14.7996 26.5627 14.7804C26.5245 14.8088 26.53 14.7981 26.5461 14.7918C26.5095 14.8024 26.5025 14.8049 26.5253 14.7991L26.5373 14.7971L26.5014 14.8014C26.5197 14.8021 26.5185 14.8015 26.4977 14.7998C26.4691 14.7891 26.4895 14.7988 26.5044 14.8004L26.5755 14.8082L26.7331 14.8254C26.8345 14.8364 26.9363 14.8501 27.0386 14.8589C27.073 14.8619 27.0234 14.8565 27.0195 14.8509C27.0195 14.8509 27.038 14.86 27.0405 14.8605L27.0126 14.845C27.0246 14.855 27.0239 14.8538 27.0103 14.8412L26.9996 14.8309C27.0111 14.8467 27.0087 14.8411 26.9923 14.8139C26.9939 14.82 26.996 14.826 26.9986 14.8319C26.9832 14.8125 26.994 14.7931 26.9926 14.814C26.9963 14.7545 26.9926 14.8133 26.9902 14.8286L26.9459 15.069C26.9427 15.0864 26.9396 15.1038 26.9363 15.1212C26.9351 15.1274 26.9328 15.1344 26.9322 15.1407C26.9291 15.1729 26.956 15.1083 26.9369 15.1342C26.9155 15.1633 26.9662 15.1078 26.9464 15.1239C26.9285 15.1385 26.9921 15.1021 26.9587 15.1155C27.0111 15.0948 26.9935 15.1054 26.9736 15.109C26.9557 15.112 26.9657 15.1108 27.0037 15.1057C26.9952 15.1058 26.9866 15.1054 26.9781 15.1045C26.9174 15.1046 26.8593 15.1231 26.8163 15.1559C26.7734 15.1886 26.7492 15.233 26.749 15.2793C26.7506 15.3253 26.7753 15.3691 26.8179 15.4016C26.8605 15.4341 26.9179 15.453 26.9781 15.4542C27.0653 15.4581 27.1516 15.4394 27.223 15.401C27.2944 15.3626 27.3466 15.3069 27.3711 15.2429C27.382 15.2051 27.3898 15.1669 27.3943 15.1284L27.42 14.9886C27.4272 14.9492 27.4345 14.9098 27.4417 14.8703C27.4607 14.7965 27.4443 14.7198 27.3955 14.6544C27.3471 14.5945 27.2726 14.5496 27.185 14.5275C27.1243 14.5154 27.0622 14.5075 26.9996 14.5039L26.6194 14.4625C26.5408 14.4486 26.4588 14.4506 26.3814 14.4682C26.2902 14.4922 26.2139 14.5411 26.1672 14.6055C26.135 14.6612 26.1165 14.721 26.1126 14.7818C26.1114 14.7891 26.1101 14.7964 26.1088 14.8036C26.1183 14.7505 26.111 14.7914 26.1088 14.8022C26.1046 14.8254 26.1005 14.8487 26.0963 14.8719C26.0887 14.9133 26.0811 14.9546 26.0735 14.9958C26.0542 15.0583 26.054 15.1233 26.0728 15.1859C26.1025 15.2592 26.1682 15.321 26.2562 15.3582C26.3282 15.3829 26.4055 15.3974 26.4844 15.4007L26.9169 15.4477C26.9767 15.4584 27.0394 15.4522 27.0935 15.4301C27.1447 15.4068 27.1823 15.3694 27.1986 15.3256C27.2233 15.2435 27.1655 15.1247 27.0386 15.1107Z" fill="#211715"/>
<path d="M24.9961 16.1546L24.6876 16.1211L24.5392 16.105L24.4685 16.0977C24.4585 16.0966 24.4482 16.0958 24.4381 16.0945C24.4129 16.091 24.3989 16.0799 24.4447 16.1007C24.4136 16.0867 24.4591 16.1105 24.4606 16.1127C24.4587 16.1096 24.4246 16.085 24.454 16.1102C24.4834 16.1354 24.4504 16.0934 24.4653 16.1248C24.4801 16.1562 24.4683 16.1219 24.4658 16.1192C24.4681 16.1216 24.4712 16.1654 24.4718 16.1369C24.4708 16.1819 24.4662 16.1671 24.4688 16.1538L24.4797 16.095C24.4949 16.0125 24.5097 15.93 24.5241 15.8477L24.5315 15.805C24.5329 15.7968 24.5305 15.7681 24.5328 15.7983L24.5307 15.8118C24.536 15.7983 24.5347 15.7992 24.5268 15.8143C24.5046 15.8424 24.5318 15.8143 24.5324 15.8101C24.5324 15.8127 24.4952 15.8439 24.5207 15.8247C24.4825 15.853 24.4879 15.8424 24.5041 15.836C24.4675 15.8466 24.4605 15.849 24.4833 15.8433L24.4953 15.8413L24.4593 15.8456C24.4777 15.8462 24.4765 15.8457 24.4557 15.844C24.4271 15.8333 24.4475 15.843 24.4624 15.8447L24.5335 15.8524L24.691 15.8696C24.7925 15.8807 24.8943 15.8943 24.9965 15.9032C25.031 15.9062 24.9813 15.9007 24.9774 15.8951C24.9774 15.8951 24.996 15.9042 24.9984 15.9047L24.9706 15.8891C24.9826 15.8992 24.9818 15.898 24.9682 15.8854L24.9575 15.8751C24.9691 15.8909 24.9667 15.8853 24.9503 15.8581C24.9519 15.8642 24.954 15.8702 24.9565 15.8761C24.9412 15.8567 24.9519 15.8373 24.9506 15.8582C24.9542 15.7988 24.9506 15.8575 24.9481 15.8728L24.9038 16.1132C24.9007 16.1306 24.8976 16.148 24.8943 16.1653C24.8931 16.1715 24.8908 16.1785 24.8901 16.1849C24.887 16.217 24.9139 16.1525 24.8948 16.1783C24.8735 16.2075 24.9242 16.1519 24.9043 16.1681C24.8864 16.1827 24.95 16.1463 24.9167 16.1596C24.969 16.1389 24.9515 16.1495 24.9316 16.1532C24.9137 16.1561 24.9237 16.155 24.9617 16.1498C24.9531 16.15 24.9446 16.1496 24.9361 16.1487C24.8754 16.1488 24.8172 16.1673 24.7743 16.2C24.7314 16.2328 24.7072 16.2772 24.707 16.3235C24.7086 16.3695 24.7333 16.4133 24.7759 16.4458C24.8185 16.4783 24.8759 16.4972 24.9361 16.4984C25.0233 16.5023 25.1096 16.4835 25.181 16.4451C25.2523 16.4068 25.3045 16.351 25.3291 16.2871C25.34 16.2494 25.3477 16.2111 25.3522 16.1726L25.3779 16.0329C25.3852 15.9934 25.3925 15.954 25.3997 15.9146C25.4187 15.8407 25.4023 15.7641 25.3535 15.6986C25.3051 15.6387 25.2305 15.5938 25.143 15.5717C25.0822 15.5596 25.0202 15.5517 24.9576 15.5481L24.5774 15.5066C24.4987 15.4928 24.4167 15.4948 24.3393 15.5124C24.2477 15.5362 24.171 15.5852 24.1241 15.6499C24.0919 15.7055 24.0734 15.7653 24.0695 15.826C24.0683 15.8333 24.067 15.8406 24.0657 15.8479C24.0753 15.7948 24.0679 15.8357 24.0657 15.8465C24.0616 15.8697 24.0574 15.893 24.0532 15.9162C24.0458 15.9576 24.0382 15.9988 24.0305 16.04C24.0112 16.1025 24.011 16.1676 24.0298 16.2301C24.0595 16.3035 24.1252 16.3652 24.2132 16.4024C24.2852 16.4271 24.3625 16.4416 24.4414 16.4449L24.874 16.492C24.9337 16.5027 24.9965 16.4964 25.0506 16.4743C25.1017 16.451 25.1393 16.4136 25.1556 16.3699C25.1808 16.2872 25.123 16.1684 24.9961 16.1546Z" fill="#211715"/>
<path d="M28.6 16.5412L28.2914 16.5076L28.1432 16.4915L28.0724 16.4843C28.0623 16.4832 28.0521 16.4824 28.042 16.481C28.0168 16.4776 28.0027 16.4664 28.0486 16.4872C28.0175 16.4733 28.0631 16.497 28.0644 16.4993C28.0625 16.4961 28.0285 16.4716 28.0578 16.4968C28.0871 16.522 28.0542 16.4799 28.0692 16.5114C28.0842 16.5428 28.0721 16.5084 28.0692 16.5057C28.0715 16.5082 28.0746 16.5519 28.0753 16.5235C28.0742 16.5685 28.0696 16.5536 28.0721 16.5404C28.0759 16.5209 28.0795 16.5013 28.0831 16.4816C28.0982 16.399 28.113 16.3165 28.1275 16.2342L28.1349 16.1915C28.1364 16.1834 28.1339 16.1547 28.1363 16.1849L28.1341 16.1984C28.1393 16.1848 28.1381 16.1857 28.1303 16.2008C28.108 16.229 28.1352 16.2013 28.1357 16.1966C28.1357 16.1992 28.0987 16.2304 28.1242 16.2112C28.086 16.2395 28.0913 16.2289 28.1074 16.2226C28.0708 16.2331 28.0639 16.2355 28.0867 16.2299L28.0988 16.2278L28.0628 16.2321C28.081 16.2328 28.0799 16.2321 28.0591 16.2305C28.0305 16.2199 28.0509 16.2296 28.0657 16.2312L28.1369 16.2389L28.2944 16.2561C28.396 16.2672 28.4976 16.2809 28.5999 16.2897C28.6344 16.2927 28.5847 16.2872 28.5808 16.2816C28.5808 16.2816 28.5993 16.2908 28.6018 16.2913L28.574 16.2757C28.586 16.2857 28.5852 16.2845 28.5716 16.272L28.5609 16.2616C28.5725 16.2775 28.5701 16.2718 28.5537 16.2446C28.5552 16.2508 28.5574 16.2568 28.56 16.2627C28.5446 16.2432 28.5553 16.2239 28.5541 16.2448C28.5576 16.1853 28.5541 16.244 28.5516 16.2593L28.5073 16.4998C28.504 16.5172 28.501 16.5346 28.4977 16.552C28.4966 16.5581 28.4942 16.5652 28.4936 16.5715C28.4906 16.6036 28.5174 16.5391 28.4983 16.565C28.4769 16.5941 28.5276 16.5385 28.5078 16.5547C28.4899 16.5693 28.5536 16.5329 28.5202 16.5463C28.5725 16.5255 28.5549 16.5361 28.5351 16.5398C28.5172 16.5427 28.5272 16.5416 28.5652 16.5364C28.5567 16.5366 28.5481 16.5362 28.5396 16.5353C28.4789 16.5354 28.4207 16.5539 28.3778 16.5866C28.3349 16.6194 28.3107 16.6638 28.3105 16.7101C28.3121 16.7561 28.3368 16.7999 28.3794 16.8324C28.422 16.865 28.4794 16.8838 28.5396 16.885C28.6268 16.8889 28.7131 16.8701 28.7845 16.8317C28.8558 16.7934 28.908 16.7376 28.9325 16.6737C28.9434 16.6359 28.9512 16.5977 28.9557 16.5592L28.9814 16.4194C28.9887 16.38 28.996 16.3405 29.0032 16.3011C29.0222 16.2272 29.0058 16.1506 28.957 16.0852C28.9086 16.0253 28.834 15.9804 28.7464 15.9583C28.6857 15.9461 28.6236 15.9382 28.561 15.9347L28.1809 15.8932C28.1022 15.8794 28.0202 15.8814 27.9429 15.899C27.8516 15.9229 27.7753 15.9719 27.7286 16.0363C27.6964 16.092 27.678 16.1517 27.6741 16.2125C27.6728 16.2198 27.6715 16.2271 27.6703 16.2344C27.6798 16.1812 27.6724 16.2222 27.6703 16.233C27.6662 16.2562 27.662 16.2794 27.6578 16.3027C27.6503 16.3441 27.6427 16.3854 27.635 16.4266C27.6157 16.489 27.6155 16.5541 27.6344 16.6166C27.6641 16.69 27.7298 16.7517 27.8177 16.789C27.8897 16.8137 27.967 16.8282 28.0459 16.8315C28.1902 16.8471 28.3344 16.8628 28.4785 16.8785C28.5382 16.8892 28.601 16.8829 28.6551 16.8609C28.7063 16.8376 28.7439 16.8002 28.7601 16.7564C28.7846 16.6737 28.7268 16.5549 28.6 16.5412Z" fill="#211715"/>
<path d="M26.8104 16.3494L26.5019 16.3159L26.3536 16.2998L26.2829 16.2925C26.2727 16.2914 26.2624 16.2906 26.2525 16.2892C26.2273 16.2858 26.2132 16.2746 26.2591 16.2955C26.228 16.2815 26.2735 16.3052 26.2749 16.3075C26.2729 16.3043 26.239 16.2797 26.2683 16.3049C26.2976 16.3301 26.2646 16.2881 26.2796 16.3195C26.2946 16.3509 26.2826 16.3166 26.2796 16.3139C26.2819 16.3164 26.2851 16.3602 26.2857 16.3317C26.2847 16.3767 26.2801 16.3618 26.2826 16.3485C26.2863 16.3291 26.29 16.3095 26.2936 16.2898C26.3087 16.2072 26.3235 16.1246 26.338 16.0421L26.3454 15.9994C26.3467 15.9913 26.3444 15.9625 26.3467 15.9927L26.3445 16.0062C26.3498 15.9927 26.3486 15.9935 26.3407 16.0087C26.3185 16.0367 26.3457 16.0087 26.3462 16.0045C26.3462 16.0071 26.3091 16.0383 26.3346 16.019C26.2964 16.0474 26.3018 16.0367 26.3179 16.0304C26.2813 16.0409 26.2744 16.0434 26.2972 16.0377L26.3092 16.0356L26.2732 16.0399C26.2915 16.0405 26.2903 16.0399 26.2696 16.0383C26.241 16.0276 26.2614 16.0373 26.2762 16.039L26.3474 16.0467L26.5048 16.0639C26.6064 16.075 26.7081 16.0886 26.8103 16.0975C26.8449 16.1005 26.7952 16.0949 26.7912 16.0894C26.7912 16.0894 26.8098 16.0986 26.8122 16.099L26.7845 16.0834C26.7964 16.0935 26.7956 16.0923 26.7821 16.0797L26.7714 16.0694C26.7829 16.0853 26.7805 16.0796 26.7641 16.0524C26.7657 16.0585 26.7678 16.0645 26.7704 16.0704C26.7551 16.051 26.7658 16.0316 26.7645 16.0525C26.768 15.9931 26.7645 16.0517 26.7619 16.067L26.7177 16.3075C26.7145 16.3249 26.7114 16.3423 26.7082 16.3597C26.707 16.3658 26.7047 16.3729 26.7041 16.3792C26.701 16.4113 26.7279 16.3467 26.7088 16.3726C26.6874 16.4018 26.7381 16.3462 26.7183 16.3624C26.7004 16.377 26.764 16.3406 26.7306 16.3539C26.7829 16.3332 26.7654 16.3438 26.7455 16.3475C26.7277 16.3504 26.7377 16.3493 26.7757 16.3441C26.7671 16.3442 26.7586 16.3439 26.7501 16.343C26.6894 16.3431 26.6312 16.3616 26.5883 16.3943C26.5453 16.4271 26.5211 16.4715 26.521 16.5178C26.5226 16.5638 26.5472 16.6076 26.5898 16.6401C26.6325 16.6726 26.6898 16.6915 26.7501 16.6927C26.8372 16.6966 26.9235 16.6778 26.9949 16.6394C27.0663 16.601 27.1185 16.5453 27.143 16.4814C27.1539 16.4437 27.1617 16.4054 27.1662 16.3669L27.1918 16.2272C27.1991 16.1877 27.2065 16.1483 27.2137 16.1089C27.2327 16.035 27.2163 15.9583 27.1675 15.8929C27.1191 15.833 27.0445 15.7881 26.9569 15.7661C26.8962 15.7539 26.8341 15.746 26.7715 15.7424L26.3913 15.701C26.3127 15.6871 26.2307 15.6891 26.1533 15.7068C26.0621 15.7307 25.9857 15.7796 25.9391 15.8441C25.9069 15.8998 25.8884 15.9595 25.8846 16.0203C25.8832 16.0276 25.882 16.0348 25.8808 16.0421C25.8903 15.989 25.8829 16.0299 25.8808 16.0407C25.8766 16.0639 25.8724 16.0872 25.8682 16.1104C25.8608 16.1518 25.8532 16.1931 25.8454 16.2343C25.8262 16.2967 25.8259 16.3618 25.8448 16.4243C25.8745 16.4977 25.9402 16.5594 26.0282 16.5966C26.1001 16.6213 26.1775 16.6358 26.2563 16.6391L26.689 16.6862C26.7487 16.6969 26.8115 16.6906 26.8655 16.6686C26.9167 16.6453 26.9543 16.6079 26.9705 16.5641C26.9951 16.4818 26.9373 16.3631 26.8104 16.3494Z" fill="#211715"/>
<path d="M24.7681 17.393L24.4595 17.3595L24.3112 17.3434L24.2405 17.3357C24.2304 17.3346 24.2201 17.3338 24.21 17.3324C24.1848 17.329 24.1708 17.3179 24.2167 17.3387C24.1855 17.3247 24.2311 17.3485 24.2325 17.3508C24.2306 17.3476 24.1966 17.323 24.2259 17.3482C24.2552 17.3734 24.2223 17.3313 24.2372 17.3628C24.2522 17.3943 24.2402 17.3599 24.2372 17.3571C24.2395 17.3596 24.2426 17.4034 24.2433 17.375C24.2422 17.4199 24.2377 17.4051 24.2402 17.3918C24.244 17.3724 24.2476 17.3528 24.2512 17.333C24.2663 17.2504 24.2811 17.1679 24.2955 17.0853C24.2981 17.0711 24.3006 17.0569 24.303 17.0426C24.3044 17.0345 24.3019 17.0057 24.3043 17.036L24.3022 17.0494C24.3074 17.0359 24.3062 17.0368 24.2984 17.0519C24.276 17.08 24.3033 17.0524 24.3038 17.0477C24.3038 17.0503 24.2667 17.0815 24.2921 17.0623C24.254 17.0906 24.2594 17.08 24.2755 17.0737C24.2389 17.0842 24.2319 17.0866 24.2547 17.081L24.2668 17.0789L24.2309 17.0832C24.2491 17.0839 24.2478 17.0832 24.2272 17.0816C24.1986 17.0709 24.2189 17.0807 24.2338 17.0823L24.305 17.09L24.4625 17.1072C24.564 17.1183 24.6657 17.132 24.768 17.1408C24.8024 17.1438 24.7528 17.1383 24.7489 17.1327C24.7489 17.1327 24.7674 17.1419 24.7699 17.1423L24.7421 17.1268C24.7541 17.1368 24.7533 17.1356 24.7397 17.1231L24.729 17.1127C24.7405 17.1286 24.7381 17.1229 24.7218 17.0957C24.7233 17.1018 24.7254 17.1079 24.7281 17.1138C24.7126 17.0943 24.7234 17.0749 24.7221 17.0959C24.7257 17.0364 24.7221 17.0951 24.7196 17.1104L24.6754 17.3509C24.6721 17.3683 24.6691 17.3857 24.6658 17.4031C24.6646 17.4092 24.6623 17.4163 24.6617 17.4225C24.6587 17.4547 24.6855 17.3902 24.6664 17.4161C24.645 17.4452 24.6957 17.3896 24.6759 17.4058C24.658 17.4204 24.7216 17.3839 24.6882 17.3973C24.7406 17.3766 24.723 17.3871 24.7031 17.3909C24.6852 17.3938 24.6952 17.3927 24.7332 17.3875C24.7247 17.3877 24.7162 17.3873 24.7077 17.3863C24.647 17.3865 24.5888 17.4049 24.5459 17.4377C24.503 17.4705 24.4788 17.5149 24.4786 17.5612C24.4802 17.6072 24.5048 17.651 24.5475 17.6835C24.5901 17.716 24.6475 17.7348 24.7077 17.7361C24.7949 17.74 24.8812 17.7212 24.9525 17.6828C25.0239 17.6444 25.0761 17.5887 25.1006 17.5248C25.1115 17.487 25.1193 17.4488 25.1238 17.4102L25.1495 17.2705C25.1567 17.2311 25.164 17.1917 25.1712 17.1522C25.1902 17.0783 25.1738 17.0017 25.125 16.9363C25.0767 16.8764 25.0024 16.8315 24.915 16.8094C24.8543 16.7972 24.7922 16.7893 24.7296 16.7858L24.3494 16.7443C24.2708 16.7305 24.1888 16.7325 24.1114 16.7501C24.0202 16.774 23.9438 16.823 23.8972 16.8874C23.865 16.9431 23.8465 17.0028 23.8426 17.0636C23.8413 17.0709 23.8401 17.0781 23.8388 17.0854C23.8483 17.0323 23.841 17.0733 23.8388 17.084C23.8346 17.1073 23.8305 17.1305 23.8263 17.1538C23.8187 17.1952 23.8111 17.2364 23.8034 17.2776C23.7842 17.3401 23.7839 17.4052 23.8028 17.4677C23.8325 17.5411 23.8982 17.6028 23.9862 17.64C24.0581 17.6648 24.1355 17.6792 24.2143 17.6826C24.3585 17.6983 24.5027 17.7139 24.647 17.7296C24.7067 17.7403 24.7695 17.734 24.8235 17.7119C24.8747 17.6886 24.9123 17.6513 24.9285 17.6075C24.9527 17.5255 24.8949 17.4067 24.7681 17.393Z" fill="#211715"/>
<path d="M28.3719 17.7796L28.0634 17.7461L27.9151 17.73L27.8443 17.7227C27.8348 17.7216 27.824 17.7207 27.8139 17.7194C27.7887 17.7159 27.7747 17.7048 27.8205 17.7257C27.7894 17.7116 27.835 17.7354 27.8363 17.7377C27.8345 17.7345 27.8004 17.7099 27.8298 17.7351C27.8592 17.7603 27.8262 17.7183 27.8411 17.7497C27.856 17.7811 27.8441 17.7468 27.8411 17.744C27.8434 17.7466 27.8465 17.7903 27.8472 17.7619C27.8461 17.8068 27.8415 17.792 27.844 17.7787C27.8477 17.7593 27.8514 17.7397 27.855 17.7199C27.8703 17.6373 27.8851 17.5549 27.8994 17.4726L27.9068 17.4298C27.9083 17.4218 27.9058 17.3934 27.9082 17.4232L27.906 17.4367C27.9113 17.4232 27.91 17.424 27.9022 17.4392C27.8799 17.4673 27.9071 17.4392 27.9077 17.435C27.9077 17.4376 27.8706 17.4688 27.8961 17.4496C27.8579 17.478 27.8632 17.4674 27.8793 17.461C27.8428 17.4716 27.8359 17.474 27.8586 17.4683L27.8707 17.4663L27.8347 17.4706C27.853 17.4712 27.8518 17.4707 27.831 17.469C27.8024 17.4583 27.8228 17.468 27.8377 17.4696L27.9088 17.4774L28.0664 17.4945C28.1679 17.5056 28.2696 17.5193 28.3719 17.5281C28.4063 17.5312 28.3566 17.5257 28.3528 17.5201C28.3528 17.5201 28.3713 17.5292 28.3737 17.5297L28.3459 17.5141C28.3579 17.5242 28.3571 17.523 28.3435 17.5104L28.3328 17.5001C28.3443 17.5159 28.3419 17.5102 28.3256 17.4831C28.3272 17.4892 28.3293 17.4952 28.3319 17.5011C28.3165 17.4816 28.3272 17.4623 28.326 17.4832C28.3296 17.4237 28.326 17.4825 28.3235 17.4978L28.2792 17.7382C28.276 17.7556 28.273 17.7731 28.2696 17.7904C28.2685 17.7966 28.2662 17.8036 28.2655 17.8099C28.2625 17.8421 28.2893 17.7775 28.2702 17.8034C28.2489 17.8325 28.2995 17.7769 28.2797 17.7931C28.2618 17.8077 28.3255 17.7713 28.2922 17.7847C28.3444 17.764 28.3269 17.7745 28.307 17.7782C28.2891 17.7811 28.2991 17.7801 28.3371 17.7749C28.3286 17.775 28.32 17.7746 28.3115 17.7737C28.2508 17.7738 28.1927 17.7923 28.1497 17.825C28.1068 17.8578 28.0826 17.9022 28.0824 17.9485C28.084 17.9945 28.1087 18.0383 28.1513 18.0708C28.1939 18.1034 28.2513 18.1222 28.3115 18.1234C28.3987 18.1273 28.485 18.1086 28.5564 18.0702C28.6278 18.0318 28.68 17.9761 28.7045 17.9121C28.7154 17.8743 28.7231 17.8361 28.7276 17.7976L28.7534 17.6578C28.7606 17.6184 28.7679 17.579 28.7751 17.5396C28.7941 17.4657 28.7777 17.3891 28.7289 17.3236C28.6806 17.2638 28.6063 17.2189 28.5189 17.1967C28.4582 17.1846 28.3961 17.1767 28.3335 17.1731L27.9533 17.1316C27.8747 17.1178 27.7926 17.1198 27.7152 17.1374C27.624 17.1614 27.5477 17.2103 27.501 17.2747C27.4688 17.3304 27.4503 17.3902 27.4465 17.451C27.4452 17.4583 27.4439 17.4655 27.4427 17.4728C27.4522 17.4197 27.4448 17.4606 27.4427 17.4714C27.4385 17.4946 27.4344 17.5179 27.4302 17.5411C27.4227 17.5825 27.4151 17.6238 27.4074 17.665C27.3882 17.7275 27.3879 17.7925 27.4068 17.855C27.4364 17.9284 27.5021 17.9901 27.5901 18.0274C27.6621 18.0521 27.7394 18.0665 27.8182 18.0699L28.2509 18.117C28.3106 18.1276 28.3733 18.1214 28.4274 18.0993C28.4786 18.076 28.5162 18.0386 28.5325 17.9948C28.5566 17.9121 28.4988 17.7933 28.3719 17.7796Z" fill="#211715"/>
<path d="M26.5824 17.588L26.2739 17.5544L26.1256 17.5383L26.0548 17.531C26.0447 17.5299 26.0345 17.5291 26.0245 17.5277C25.9993 17.5243 25.9852 17.5132 26.0311 17.534C25.9999 17.52 26.0455 17.5438 26.0468 17.5461C26.045 17.543 26.0109 17.5183 26.0403 17.5435C26.0697 17.5688 26.0367 17.5266 26.0516 17.5581C26.0665 17.5896 26.0546 17.5552 26.0516 17.5524C26.054 17.5549 26.057 17.5987 26.0577 17.5703C26.0566 17.6152 26.0521 17.6004 26.0545 17.5871C26.0582 17.5677 26.0619 17.5481 26.0655 17.5283C26.0807 17.4457 26.0955 17.3633 26.1099 17.281L26.1174 17.2383C26.1188 17.2302 26.1163 17.2014 26.1187 17.2316L26.1165 17.2451C26.1218 17.2316 26.1205 17.2324 26.1127 17.2476C26.0904 17.2757 26.1176 17.248 26.1182 17.2434C26.1182 17.2461 26.0811 17.2772 26.1066 17.2579C26.0684 17.2863 26.0737 17.2756 26.0899 17.2694C26.0533 17.2799 26.0464 17.2823 26.0692 17.2767L26.0812 17.2746L26.0452 17.2789C26.0635 17.2796 26.0623 17.279 26.0416 17.2772C26.0129 17.2666 26.0333 17.2764 26.0482 17.278L26.1194 17.2857L26.2769 17.3029C26.3784 17.314 26.4801 17.3277 26.5824 17.3365C26.617 17.3395 26.5672 17.3339 26.5633 17.3285C26.5633 17.3285 26.5818 17.3376 26.5842 17.338L26.5564 17.3225C26.5685 17.3325 26.5676 17.3312 26.554 17.3188L26.5433 17.3084C26.5549 17.3242 26.5524 17.3186 26.5361 17.2914C26.5377 17.2975 26.5398 17.3035 26.5424 17.3095C26.527 17.29 26.5377 17.2706 26.5365 17.2915C26.5401 17.2321 26.5365 17.2908 26.534 17.3061L26.4897 17.5465C26.4865 17.5639 26.4835 17.5814 26.4801 17.5988C26.479 17.6049 26.4767 17.612 26.476 17.6182C26.473 17.6504 26.4998 17.5859 26.4807 17.6117C26.4593 17.6409 26.51 17.5853 26.4903 17.6015C26.4723 17.616 26.536 17.5796 26.5027 17.593C26.5549 17.5723 26.5374 17.5828 26.5176 17.5865C26.4996 17.5894 26.5096 17.5883 26.5476 17.5832C26.5391 17.5833 26.5305 17.5829 26.5221 17.582C26.4613 17.5821 26.4032 17.6006 26.3602 17.6334C26.3173 17.6661 26.2931 17.7105 26.2929 17.7569C26.2945 17.8029 26.3192 17.8466 26.3618 17.8792C26.4044 17.9117 26.4618 17.9305 26.5221 17.9317C26.6092 17.9356 26.6955 17.9169 26.7669 17.8785C26.8383 17.8401 26.8905 17.7844 26.915 17.7204C26.9259 17.6827 26.9336 17.6444 26.9381 17.6059L26.9639 17.4662C26.9711 17.4268 26.9784 17.3873 26.9857 17.3478C27.0046 17.274 26.9882 17.1974 26.9394 17.132C26.8911 17.0722 26.8168 17.0272 26.7294 17.0051C26.6687 16.9929 26.6066 16.985 26.544 16.9814L26.1638 16.94C26.0851 16.9262 26.0031 16.9282 25.9258 16.9457C25.8345 16.9697 25.7582 17.0187 25.7115 17.0831C25.6793 17.1388 25.6608 17.1985 25.657 17.2593C25.6558 17.2665 25.6544 17.2738 25.6532 17.2811C25.6627 17.2281 25.6553 17.2689 25.6532 17.2797C25.6491 17.3029 25.6449 17.3262 25.6407 17.3495C25.6332 17.3908 25.6257 17.4321 25.618 17.4733C25.5986 17.5358 25.5984 17.6008 25.6173 17.6634C25.647 17.7367 25.7126 17.7985 25.8006 17.8357C25.8726 17.8605 25.9499 17.8749 26.0288 17.8783C26.173 17.8939 26.3172 17.9096 26.4614 17.9253C26.5211 17.936 26.5839 17.9297 26.638 17.9076C26.6892 17.8843 26.7268 17.8469 26.743 17.8031C26.7671 17.7202 26.7093 17.6014 26.5824 17.588Z" fill="#211715"/>
<path d="M29.2998 13.8252C29.2902 13.8801 29.2821 13.9286 29.2755 13.9668C29.2729 13.9826 29.2662 13.9978 29.2558 14.0116C29.2455 14.0254 29.2316 14.0374 29.215 14.0471C29.1984 14.0567 29.1795 14.0637 29.1594 14.0677C29.1392 14.0718 29.1182 14.0727 29.0976 14.0704C28.2122 13.9771 25.5652 13.7061 24.7875 13.6243C24.7669 13.6222 24.747 13.6171 24.7291 13.6091C24.7111 13.6012 24.6953 13.5906 24.6827 13.578C24.6701 13.5653 24.6609 13.551 24.6556 13.5356C24.6503 13.5203 24.649 13.5043 24.6519 13.4886C24.7045 13.1964 24.8079 12.602 24.8338 12.4856L25.9838 12.6013C27.1326 12.7243 28.6934 12.8886 29.2907 12.9527C29.332 12.957 29.3695 12.9736 29.3948 12.9989C29.4201 13.0242 29.4313 13.0561 29.4258 13.0877C29.3991 13.2442 29.3397 13.5922 29.2998 13.8252Z" fill="#79C6E0"/>
<path d="M29.1966 13.0878C29.16 13.3549 29.1124 13.6207 29.062 13.8865C29.0525 13.9375 29.0393 13.9169 29.0991 13.8989C29.1391 13.8868 29.1575 13.9042 29.1261 13.8984C29.1154 13.8966 29.1033 13.896 29.0923 13.8949L28.9127 13.8761L28.5112 13.8343C27.811 13.7615 27.1109 13.6892 26.4108 13.6174C26.0858 13.5838 25.7607 13.5503 25.4356 13.5167L25.0613 13.4779L24.9075 13.4619C24.8979 13.4609 24.8546 13.4515 24.8488 13.4558C24.8392 13.463 24.8712 13.4818 24.8774 13.49C24.8743 13.5263 24.8747 13.532 24.8785 13.507L24.8867 13.4605C24.9344 13.1882 24.9756 12.9153 25.0224 12.643C25.0285 12.6261 25.0316 12.6087 25.0314 12.5912C25.0449 12.6377 24.7259 12.5877 24.896 12.6543C24.9309 12.662 24.967 12.6658 25.0032 12.6657L25.2642 12.6934C25.4602 12.7141 25.6562 12.7346 25.8521 12.7551C26.7628 12.8502 27.6738 12.9434 28.5839 13.0415C28.6424 13.0523 28.7041 13.0456 28.7565 13.023C28.8088 13.0003 28.8479 12.9633 28.8658 12.9194C28.8815 12.8747 28.8735 12.827 28.8436 12.7868C28.8136 12.7465 28.7641 12.7169 28.7057 12.7042C27.8072 12.6075 26.9077 12.5154 26.0086 12.4215C25.8011 12.3998 25.5935 12.3779 25.3861 12.3559C25.1951 12.3357 24.9075 12.2634 24.7352 12.3474C24.5401 12.4422 24.5585 12.6739 24.5326 12.8306C24.506 12.9909 24.4802 13.1517 24.4535 13.3121C24.4481 13.345 24.4424 13.3777 24.4369 13.4108C24.435 13.4221 24.4331 13.4334 24.4311 13.4447C24.4394 13.3967 24.4274 13.4665 24.4275 13.4652C24.4177 13.5207 24.4288 13.5772 24.4595 13.6281C24.4901 13.679 24.5391 13.7221 24.6007 13.7526C24.7132 13.8072 24.868 13.8074 24.9973 13.8209C25.3198 13.8543 25.6423 13.8877 25.9649 13.9209C26.7477 14.0017 27.5306 14.0825 28.3134 14.1634C28.483 14.181 28.6525 14.1986 28.822 14.2163C29.0416 14.2392 29.2856 14.285 29.4341 14.1192C29.4867 14.0493 29.5171 13.9709 29.5228 13.8904C29.5415 13.7957 29.5582 13.7003 29.5745 13.6051C29.6042 13.4329 29.6318 13.2604 29.6556 13.0878C29.6553 13.0415 29.631 12.9972 29.5881 12.9645C29.5452 12.9318 29.4872 12.9133 29.4265 12.913C29.3662 12.914 29.3086 12.9327 29.2659 12.9653C29.2233 12.9979 29.1987 13.0418 29.1974 13.0878L29.1966 13.0878Z" fill="#211715"/>
<path d="M20.0423 8.00956C20.7865 8.02602 21.6298 8.01029 22.094 7.49176C22.4413 7.10371 22.5133 6.423 22.0205 6.08312C21.9299 6.03576 21.8272 6.00349 21.7191 5.9884C21.6247 5.96669 21.5294 5.94726 21.4333 5.93011C21.2271 5.89421 21.0181 5.86846 20.8077 5.85303C20.3977 5.82277 19.9843 5.83616 19.5792 5.89281C19.2309 5.94075 18.8144 5.99408 18.614 6.24034C18.4729 6.42612 18.4096 6.64034 18.4326 6.85432C18.4571 7.17153 18.6329 7.47091 18.9268 7.69598C19.2264 7.90727 19.642 7.99761 20.0422 8.00927C20.3371 8.01801 20.3366 7.66822 20.0422 7.65955C19.7367 7.65044 19.4025 7.5813 19.1917 7.40287C19.0807 7.3051 18.997 7.19111 18.9455 7.06785C18.8941 6.94459 18.876 6.81463 18.8924 6.68587C18.905 6.6156 18.9291 6.54681 18.9642 6.48114C19.0296 6.36938 19.0749 6.35524 19.222 6.31998C19.6181 6.22576 20.0316 6.18081 20.4464 6.18687C20.907 6.1942 21.3632 6.25776 21.7975 6.37513L21.6964 6.33018C22.0257 6.58853 21.949 7.0632 21.6802 7.33467C21.3094 7.70909 20.5878 7.67171 20.0423 7.65962C19.7473 7.65328 19.7476 8.003 20.0423 8.00956Z" fill="#211715"/>
<path d="M14.3429 6.37511C14.9734 6.20259 15.6488 6.14736 16.3129 6.21402C16.4826 6.23274 16.6504 6.26017 16.8152 6.29614C16.8998 6.3092 16.9824 6.32938 17.0612 6.35632C17.0582 6.35508 17.1031 6.38546 17.1083 6.39049C17.2136 6.51078 17.2644 6.65408 17.253 6.79849C17.2446 7.01172 17.1454 7.21706 16.9705 7.38347C16.7897 7.53258 16.544 7.62643 16.2792 7.64751C15.9728 7.67788 15.6627 7.68009 15.3555 7.65406C15.0792 7.63454 14.7792 7.5745 14.5714 7.42653C14.2086 7.16817 14.0764 6.61839 14.444 6.33001C14.6497 6.16856 14.326 5.92106 14.12 6.08273C13.6563 6.44651 13.6821 7.07266 14.0378 7.48161C14.4873 7.99803 15.321 8.02754 16.0573 8.01027C16.413 8.0117 16.7616 7.9346 17.0611 7.78827C17.3551 7.62103 17.564 7.38111 17.6521 7.10945C17.7361 6.88347 17.7297 6.64346 17.6336 6.42029C17.59 6.31278 17.5158 6.21398 17.4163 6.13097C17.2882 6.03181 17.1073 5.99589 16.937 5.95902C16.0423 5.77363 15.0947 5.80116 14.2211 6.03793C14.1633 6.05123 14.1144 6.08099 14.0846 6.12105C14.0548 6.16111 14.0463 6.20838 14.061 6.25308C14.0777 6.29755 14.1165 6.33525 14.1693 6.35808C14.222 6.3809 14.2843 6.38702 14.3429 6.37511Z" fill="#211715"/>
<path d="M17.7211 6.88801C17.7669 6.87052 17.6668 6.90258 17.7175 6.88874C17.7334 6.88429 17.7498 6.88036 17.7661 6.87686C17.8006 6.86957 17.8358 6.8644 17.8711 6.85967C17.888 6.85741 17.9214 6.85733 17.852 6.86127C17.8602 6.86083 17.8684 6.85974 17.8766 6.85908C17.8976 6.85733 17.9186 6.85593 17.9396 6.85486C17.983 6.8526 18.0265 6.85165 18.07 6.85187C18.1115 6.85187 18.1529 6.85313 18.1941 6.85566C18.2154 6.85687 18.2367 6.8584 18.2579 6.86025C18.2746 6.86163 18.309 6.86753 18.2407 6.85814C18.2487 6.8593 18.2569 6.85996 18.265 6.8609C18.3032 6.86549 18.3414 6.87125 18.3787 6.87868C18.3941 6.88174 18.4093 6.88509 18.4244 6.88881C18.4435 6.89362 18.5079 6.91431 18.4283 6.88801C18.4823 6.91019 18.5451 6.91646 18.6048 6.90564C18.6622 6.89326 18.7112 6.86458 18.7418 6.8255C18.794 6.75009 18.777 6.62506 18.6596 6.5863C18.4723 6.52828 18.2716 6.49973 18.0696 6.50237C17.8703 6.49538 17.6716 6.52413 17.4894 6.5863C17.4373 6.60992 17.3994 6.64826 17.384 6.69303C17.3686 6.7378 17.377 6.78538 17.4072 6.8255C17.4389 6.8647 17.4891 6.8931 17.5475 6.90478C17.6059 6.91646 17.6679 6.91053 17.7207 6.88823L17.7211 6.88801Z" fill="#211715"/>
<path d="M22.5001 6.70052C22.508 6.69783 22.5159 6.6952 22.5238 6.69265L22.469 6.71029C22.6079 6.66417 22.7528 6.62925 22.9012 6.6061C22.9587 6.59391 23.0078 6.56518 23.0381 6.52595C23.0533 6.50613 23.0632 6.48421 23.0673 6.46145C23.0714 6.43869 23.0696 6.41554 23.0619 6.39332C23.0543 6.37111 23.041 6.35025 23.0228 6.33195C23.0046 6.31366 22.9819 6.29828 22.9559 6.28669C22.9017 6.26487 22.8391 6.25864 22.7794 6.26913C22.6032 6.29724 22.432 6.34073 22.2689 6.39874C22.2174 6.42181 22.1797 6.45933 22.1639 6.5033C22.148 6.54877 22.1563 6.59718 22.187 6.63801C22.2173 6.67721 22.2664 6.70593 22.3239 6.71815L22.3848 6.72442C22.4254 6.72442 22.4653 6.71617 22.5004 6.70052H22.5001Z" fill="#211715"/>
<path d="M13.8185 6.39846C13.6553 6.34046 13.484 6.29697 13.3079 6.26885C13.2482 6.25766 13.1853 6.26392 13.1314 6.28641C13.1054 6.29799 13.0826 6.31338 13.0644 6.33167C13.0462 6.34997 13.0329 6.37082 13.0253 6.39304C13.0177 6.41526 13.0159 6.43841 13.02 6.46117C13.024 6.48393 13.034 6.50585 13.0492 6.52567C13.0791 6.56517 13.1283 6.594 13.1861 6.60582C13.3345 6.62895 13.4794 6.66387 13.6183 6.71L13.5636 6.69237C13.5715 6.69492 13.5793 6.69755 13.5871 6.70024C13.6126 6.71278 13.642 6.71994 13.6723 6.72101C13.7026 6.7262 13.7341 6.72512 13.7637 6.71787C13.821 6.70547 13.8701 6.6768 13.9007 6.63773C13.916 6.61755 13.9259 6.59526 13.9299 6.57214C13.9338 6.54901 13.9318 6.52552 13.9238 6.50301C13.9162 6.48113 13.9031 6.46062 13.8851 6.44267C13.867 6.42471 13.8445 6.40969 13.8187 6.39846H13.8185Z" fill="#211715"/>
<path d="M17.1402 9.50928C17.4382 9.62664 17.7699 9.68511 18.1051 9.67933C18.4488 9.67765 18.7984 9.62672 19.0739 9.46286C19.1166 9.42996 19.1406 9.38553 19.1406 9.33922C19.1406 9.29292 19.1166 9.24849 19.0739 9.21558C19.0303 9.18384 18.9722 9.16614 18.9119 9.16614C18.8516 9.16614 18.7936 9.18384 18.7499 9.21558C18.818 9.17515 18.7595 9.20888 18.7424 9.21748C18.7227 9.22719 18.7025 9.23608 18.6818 9.24414C18.6672 9.25005 18.5959 9.27263 18.6538 9.25587C18.6261 9.26389 18.5986 9.27205 18.5704 9.27897C18.4102 9.31815 18.2421 9.33529 18.074 9.32961C17.9136 9.33312 17.7536 9.31668 17.6002 9.28094C17.5696 9.27365 17.5398 9.26564 17.5097 9.2577C17.5001 9.25515 17.4906 9.25128 17.481 9.24903C17.5376 9.26163 17.4982 9.25493 17.483 9.24946C17.4456 9.23606 17.4088 9.222 17.3722 9.20728C17.3194 9.18487 17.2574 9.17888 17.199 9.19057C17.1406 9.20226 17.0903 9.23072 17.0588 9.27001C17.0287 9.31017 17.0205 9.35771 17.0359 9.40244C17.0513 9.44717 17.089 9.48553 17.141 9.50928H17.1402Z" fill="#211715"/>
<path d="M18 7.76329C18.0449 7.88731 18.081 8.01313 18.1078 8.14018L18.0997 8.0937C18.1029 8.11093 18.1035 8.12838 18.1015 8.14572L18.1098 8.09923C18.1083 8.1072 18.1057 8.11503 18.1022 8.12262L18.1253 8.08087C18.1223 8.08615 18.1187 8.0912 18.1145 8.09596L18.1503 8.06055C18.1455 8.06503 18.1401 8.06911 18.1342 8.07271L18.1806 8.04532C18.168 8.05127 18.155 8.05656 18.1414 8.06113L18.1962 8.0435C18.1751 8.05033 18.1529 8.05522 18.1303 8.05807L18.1912 8.0518C18.1706 8.05366 18.1499 8.05366 18.1293 8.0518L18.1902 8.05807C18.1668 8.05552 18.1439 8.05122 18.1206 8.04882C18.0609 8.03821 17.9982 8.04448 17.9441 8.06645C17.9181 8.07803 17.8954 8.09342 17.8772 8.11171C17.859 8.13001 17.8457 8.15086 17.8381 8.17308C17.8304 8.1953 17.8286 8.21845 17.8327 8.24121C17.8368 8.26397 17.8467 8.28589 17.8619 8.30571C17.8765 8.32544 17.8961 8.3427 17.9196 8.35648C17.9431 8.37025 17.9701 8.38025 17.9988 8.38586C18.0498 8.3911 18.0992 8.40101 18.1511 8.40276C18.2281 8.40315 18.3041 8.38946 18.3728 8.36283C18.4158 8.3481 18.454 8.32618 18.4844 8.29869C18.5149 8.2712 18.5368 8.23884 18.5487 8.204C18.5643 8.14685 18.5635 8.0878 18.5464 8.03089C18.5195 7.90944 18.4827 7.78915 18.4414 7.67003C18.4334 7.64789 18.4198 7.62717 18.4013 7.60905C18.3828 7.59093 18.3598 7.57577 18.3336 7.56443C18.3075 7.55309 18.2786 7.54579 18.2488 7.54296C18.2189 7.54013 18.1886 7.54181 18.1596 7.54792C18.1306 7.55402 18.1034 7.56443 18.0797 7.57854C18.0559 7.59265 18.0361 7.61019 18.0212 7.63017C18.0064 7.65014 17.9968 7.67215 17.9931 7.69494C17.9894 7.71773 17.9916 7.74085 17.9996 7.76299L18 7.76329Z" fill="#211715"/>
<path d="M15.3652 6.70076C15.2827 6.90527 15.3365 7.37579 15.8443 7.41586C16.5154 7.4128 16.5507 6.84393 16.3252 6.57647C16.1402 6.35745 15.5963 6.26638 15.3652 6.70076Z" fill="#211715"/>
<path d="M20.7396 6.70077C20.8221 6.90528 20.7682 7.37587 20.2606 7.41587C19.5895 7.41281 19.5541 6.84394 19.7796 6.5764C19.9646 6.35746 20.5085 6.26639 20.7396 6.70077Z" fill="#211715"/>
</svg>
