<svg width="37" height="29" viewBox="0 0 37 29" fill="none" xmlns="http://www.w3.org/2000/svg">
<g clip-path="url(#clip0_14_589)">
<path d="M18.5 29C28.7173 29 37 22.5081 37 14.5C37 6.49187 28.7173 0 18.5 0C8.28273 0 0 6.49187 0 14.5C0 22.5081 8.28273 29 18.5 29Z" fill="#84DBFF"/>
<path d="M0.495361 17.8281C2.4182 24.2332 9.74536 29 18.5001 29C27.2548 29 34.582 24.2332 36.5048 17.8281H0.495361Z" fill="#54C0EB"/>
<path d="M4.64673 19.2896C4.64673 19.2896 4.69771 19.3124 4.78511 19.3524C4.82881 19.3695 4.8798 19.3923 4.94535 19.4095C4.95992 19.4152 4.97448 19.4209 4.99633 19.4266C5.0109 19.4323 5.03275 19.4323 5.04732 19.438C5.06189 19.4437 5.08374 19.4437 5.0983 19.4494C5.12015 19.4494 5.13472 19.4551 5.15657 19.4551C5.23669 19.4666 5.31681 19.4608 5.40421 19.4551C5.49161 19.4494 5.5863 19.4266 5.68098 19.3981C5.87035 19.3467 6.067 19.2668 6.27094 19.1868C6.47488 19.1069 6.69338 19.027 6.91917 18.987C7.03571 18.9642 7.14496 18.9528 7.25421 18.9585C7.30519 18.9585 7.36346 18.9642 7.41445 18.9699C7.46543 18.9813 7.51641 18.987 7.56011 19.0042C7.60382 19.0156 7.64752 19.027 7.68393 19.0498C7.70578 19.0555 7.72035 19.067 7.73492 19.0727C7.74948 19.0841 7.76405 19.0898 7.77862 19.1012C7.84417 19.1355 7.88059 19.1697 7.917 19.1982C7.95342 19.2268 7.97527 19.2553 7.98984 19.2725C8.00441 19.2896 8.01169 19.301 8.01169 19.301C8.01169 19.301 7.96071 19.2782 7.8733 19.2382C7.8296 19.2211 7.77862 19.1982 7.71307 19.1811C7.6985 19.1754 7.68393 19.1697 7.66208 19.164C7.64752 19.1583 7.62567 19.1583 7.6111 19.1526C7.59653 19.1469 7.57468 19.1469 7.56011 19.1412C7.53826 19.1412 7.5237 19.1355 7.50185 19.1355C7.42173 19.124 7.34161 19.1297 7.25421 19.1355C7.16681 19.1412 7.07212 19.164 6.97744 19.1925C6.78807 19.2439 6.59141 19.3238 6.38748 19.4038C6.18354 19.4837 5.96504 19.5636 5.73925 19.6036C5.62271 19.6264 5.51346 19.6378 5.40421 19.6321C5.29496 19.6321 5.19299 19.615 5.10559 19.5864C5.06189 19.575 5.01819 19.5636 4.98177 19.5408C4.95992 19.5351 4.94535 19.5236 4.93078 19.5179C4.91622 19.5065 4.90165 19.5008 4.88708 19.4894C4.82882 19.4551 4.77783 19.4209 4.74141 19.3923C4.705 19.3638 4.68315 19.3353 4.66858 19.3181C4.6613 19.2953 4.64673 19.2896 4.64673 19.2896Z" fill="#84DBFF"/>
<path d="M9.8252 21.2134C9.8252 21.2134 9.87618 21.2363 9.96358 21.2762C10.0073 21.2933 10.0583 21.3162 10.1238 21.3333C10.1384 21.339 10.153 21.3447 10.1748 21.3504C10.1894 21.3561 10.2112 21.3561 10.2258 21.3618C10.2404 21.3676 10.2622 21.3676 10.2768 21.3733C10.2986 21.3733 10.3132 21.379 10.335 21.379C10.4152 21.3904 10.4953 21.3847 10.5827 21.379C10.6701 21.3733 10.7648 21.3504 10.8594 21.3219C11.0488 21.2705 11.2455 21.1906 11.4494 21.1107C11.6533 21.0307 11.8718 20.9508 12.0976 20.9109C12.2142 20.888 12.3234 20.8766 12.4327 20.8823C12.4837 20.8823 12.5419 20.888 12.5929 20.8937C12.6439 20.9051 12.6949 20.9109 12.7386 20.928C12.7823 20.9394 12.826 20.9508 12.8624 20.9737C12.8843 20.9794 12.8988 20.9908 12.9134 20.9965C12.928 21.0079 12.9425 21.0136 12.9571 21.025C13.0226 21.0593 13.0591 21.0935 13.0955 21.1221C13.1319 21.1506 13.1537 21.1792 13.1683 21.1963C13.1829 21.2134 13.1902 21.2248 13.1902 21.2248C13.1902 21.2248 13.1392 21.202 13.0518 21.162C13.0081 21.1449 12.9571 21.1221 12.8915 21.105C12.877 21.0992 12.8624 21.0935 12.8406 21.0878C12.826 21.0821 12.8041 21.0821 12.7896 21.0764C12.775 21.0707 12.7531 21.0707 12.7386 21.065C12.7167 21.065 12.7022 21.0593 12.6803 21.0593C12.6002 21.0479 12.5201 21.0536 12.4327 21.0593C12.3453 21.065 12.2506 21.0878 12.1559 21.1164C11.9665 21.1677 11.7699 21.2477 11.5659 21.3276C11.362 21.4075 11.1435 21.4874 10.9177 21.5274C10.8012 21.5502 10.6919 21.5616 10.5827 21.5559C10.4734 21.5559 10.3715 21.5388 10.2841 21.5103C10.2404 21.4988 10.1967 21.4874 10.1602 21.4646C10.1384 21.4589 10.1238 21.4475 10.1093 21.4418C10.0947 21.4303 10.0801 21.4246 10.0655 21.4132C10.0073 21.379 9.9563 21.3447 9.91988 21.3162C9.88346 21.2876 9.86161 21.2591 9.84705 21.242C9.83248 21.2248 9.8252 21.2134 9.8252 21.2134Z" fill="#84DBFF"/>
<path d="M20.1824 19.8091C20.1824 19.8091 20.2334 19.832 20.3208 19.8719C20.3645 19.889 20.4154 19.9119 20.481 19.929C20.4956 19.9347 20.5101 19.9404 20.532 19.9461C20.5465 19.9518 20.5684 19.9518 20.583 19.9575C20.5975 19.9633 20.6194 19.9633 20.6339 19.969C20.6558 19.969 20.6704 19.9747 20.6922 19.9747C20.7723 19.9861 20.8525 19.9804 20.9399 19.9747C21.0273 19.969 21.1219 19.9461 21.2166 19.9176C21.406 19.8662 21.6026 19.7863 21.8066 19.7064C22.0105 19.6264 22.229 19.5465 22.4548 19.5066C22.5713 19.4837 22.6806 19.4723 22.7899 19.478C22.8408 19.478 22.8991 19.4837 22.9501 19.4894C23.0011 19.5009 23.0521 19.5066 23.0958 19.5237C23.1395 19.5351 23.1832 19.5465 23.2196 19.5694C23.2414 19.5751 23.256 19.5865 23.2706 19.5922C23.2851 19.6036 23.2997 19.6093 23.3143 19.6207C23.3798 19.655 23.4162 19.6892 23.4526 19.7178C23.4891 19.7463 23.5109 19.7749 23.5255 19.792C23.54 19.8091 23.5473 19.8205 23.5473 19.8205C23.5473 19.8205 23.4963 19.7977 23.4089 19.7577C23.3652 19.7406 23.3143 19.7178 23.2487 19.7007C23.2341 19.6949 23.2196 19.6892 23.1977 19.6835C23.1832 19.6778 23.1613 19.6778 23.1467 19.6721C23.1322 19.6664 23.1103 19.6664 23.0958 19.6607C23.0739 19.6607 23.0593 19.655 23.0375 19.655C22.9574 19.6436 22.8773 19.6493 22.7899 19.655C22.7025 19.6607 22.6078 19.6835 22.5131 19.7121C22.3237 19.7634 22.1271 19.8434 21.9231 19.9233C21.7192 20.0032 21.5007 20.0831 21.2749 20.1231C21.1584 20.1459 21.0491 20.1573 20.9399 20.1516C20.8306 20.1516 20.7286 20.1345 20.6412 20.106C20.5975 20.0946 20.5538 20.0831 20.5174 20.0603C20.4956 20.0546 20.481 20.0432 20.4664 20.0375C20.4519 20.026 20.4373 20.0203 20.4227 20.0089C20.3645 19.9747 20.3135 19.9404 20.2771 19.9119C20.2406 19.8833 20.2188 19.8548 20.2042 19.8377C20.1897 19.8205 20.1824 19.8091 20.1824 19.8091Z" fill="#84DBFF"/>
<path d="M27.3784 20.1459C27.3784 20.1459 27.4294 20.1687 27.5168 20.2087C27.5605 20.2258 27.6115 20.2487 27.677 20.2658C27.6916 20.2715 27.7062 20.2772 27.728 20.2829C27.7426 20.2886 27.7644 20.2886 27.779 20.2943C27.7936 20.3 27.8154 20.3 27.83 20.3058C27.8518 20.3058 27.8664 20.3115 27.8883 20.3115C27.9684 20.3229 28.0485 20.3172 28.1359 20.3115C28.2233 20.3058 28.318 20.2829 28.4127 20.2544C28.602 20.203 28.7987 20.1231 29.0026 20.0432C29.2066 19.9632 29.4251 19.8833 29.6509 19.8434C29.7674 19.8205 29.8766 19.8091 29.9859 19.8148C30.0369 19.8148 30.0952 19.8205 30.1461 19.8262C30.1971 19.8376 30.2481 19.8434 30.2918 19.8605C30.3355 19.8719 30.3792 19.8833 30.4156 19.9061C30.4375 19.9119 30.452 19.9233 30.4666 19.929C30.4812 19.9404 30.4957 19.9461 30.5103 19.9575C30.5759 19.9918 30.6123 20.026 30.6487 20.0546C30.6851 20.0831 30.707 20.1117 30.7215 20.1288C30.7361 20.1459 30.7434 20.1573 30.7434 20.1573C30.7434 20.1573 30.6924 20.1345 30.605 20.0945C30.5613 20.0774 30.5103 20.0546 30.4448 20.0374C30.4302 20.0317 30.4156 20.026 30.3938 20.0203C30.3792 20.0146 30.3574 20.0146 30.3428 20.0089C30.3282 20.0032 30.3064 20.0032 30.2918 19.9975C30.27 19.9975 30.2554 19.9918 30.2335 19.9918C30.1534 19.9804 30.0733 19.9861 29.9859 19.9918C29.8985 19.9975 29.8038 20.0203 29.7091 20.0489C29.5198 20.1002 29.3231 20.1802 29.1192 20.2601C28.9152 20.34 28.6967 20.4199 28.4709 20.4599C28.3544 20.4827 28.2451 20.4941 28.1359 20.4884C28.0266 20.4884 27.9247 20.4713 27.8373 20.4428C27.7936 20.4313 27.7499 20.4199 27.7135 20.3971C27.6916 20.3914 27.677 20.38 27.6625 20.3743C27.6479 20.3628 27.6333 20.3571 27.6188 20.3457C27.5605 20.3115 27.5095 20.2772 27.4731 20.2487C27.4367 20.2201 27.4148 20.1916 27.4003 20.1745C27.3857 20.1573 27.3784 20.1459 27.3784 20.1459Z" fill="#84DBFF"/>
<path d="M22.7971 23.4169C22.7971 23.4169 22.8481 23.4397 22.9355 23.4797C22.9792 23.4968 23.0302 23.5197 23.0957 23.5368C23.1103 23.5425 23.1249 23.5482 23.1467 23.5539C23.1613 23.5596 23.1831 23.5596 23.1977 23.5653C23.2123 23.571 23.2341 23.571 23.2487 23.5768C23.2705 23.5768 23.2851 23.5825 23.307 23.5825C23.3871 23.5939 23.4672 23.5882 23.5546 23.5825C23.642 23.5768 23.7367 23.5539 23.8314 23.5254C24.0207 23.474 24.2174 23.3941 24.4213 23.3142C24.6253 23.2342 24.8438 23.1543 25.0696 23.1143C25.1861 23.0915 25.2953 23.0801 25.4046 23.0858C25.4556 23.0858 25.5139 23.0915 25.5648 23.0972C25.6158 23.1086 25.6668 23.1143 25.7105 23.1315C25.7542 23.1429 25.7979 23.1543 25.8343 23.1771C25.8562 23.1829 25.8707 23.1943 25.8853 23.2C25.8999 23.2114 25.9144 23.2171 25.929 23.2285C25.9946 23.2628 26.031 23.297 26.0674 23.3256C26.1038 23.3541 26.1257 23.3827 26.1402 23.3998C26.1548 23.4169 26.1621 23.4283 26.1621 23.4283C26.1621 23.4283 26.1111 23.4055 26.0237 23.3655C25.98 23.3484 25.929 23.3256 25.8635 23.3084C25.8489 23.3027 25.8343 23.297 25.8125 23.2913C25.7979 23.2856 25.7761 23.2856 25.7615 23.2799C25.7469 23.2742 25.7251 23.2742 25.7105 23.2685C25.6887 23.2685 25.6741 23.2628 25.6522 23.2628C25.5721 23.2514 25.492 23.2571 25.4046 23.2628C25.3172 23.2685 25.2225 23.2913 25.1278 23.3199C24.9385 23.3712 24.7418 23.4512 24.5379 23.5311C24.3339 23.611 24.1154 23.6909 23.8896 23.7309C23.7731 23.7537 23.6639 23.7651 23.5546 23.7594C23.4453 23.7594 23.3434 23.7423 23.256 23.7138C23.2123 23.7023 23.1686 23.6909 23.1322 23.6681C23.1103 23.6624 23.0957 23.651 23.0812 23.6453C23.0666 23.6338 23.052 23.6281 23.0375 23.6167C22.9792 23.5825 22.9282 23.5482 22.8918 23.5197C22.8554 23.4911 22.8335 23.4626 22.819 23.4455C22.8044 23.4226 22.7971 23.4169 22.7971 23.4169Z" fill="#84DBFF"/>
<path d="M12.7969 24.7757C12.7969 24.7757 12.8479 24.7985 12.9353 24.8385C12.979 24.8556 13.0299 24.8784 13.0955 24.8956C13.1101 24.9013 13.1246 24.907 13.1465 24.9127C13.161 24.9184 13.1829 24.9184 13.1975 24.9241C13.212 24.9298 13.2339 24.9298 13.2484 24.9355C13.2703 24.9355 13.2849 24.9412 13.3067 24.9412C13.3868 24.9526 13.467 24.9469 13.5544 24.9412C13.6418 24.9355 13.7364 24.9127 13.8311 24.8841C14.0205 24.8328 14.2172 24.7528 14.4211 24.6729C14.625 24.593 14.8435 24.5131 15.0693 24.4731C15.1859 24.4503 15.2951 24.4389 15.4044 24.4446C15.4553 24.4446 15.5136 24.4503 15.5646 24.456C15.6156 24.4674 15.6666 24.4731 15.7103 24.4902C15.754 24.5017 15.7977 24.5131 15.8341 24.5359C15.8559 24.5416 15.8705 24.553 15.8851 24.5587C15.8996 24.5702 15.9142 24.5759 15.9288 24.5873C15.9943 24.6215 16.0307 24.6558 16.0672 24.6843C16.1036 24.7129 16.1254 24.7414 16.14 24.7585C16.1546 24.7757 16.1618 24.7871 16.1618 24.7871C16.1618 24.7871 16.1109 24.7643 16.0234 24.7243C15.9797 24.7072 15.9288 24.6843 15.8632 24.6672C15.8486 24.6615 15.8341 24.6558 15.8122 24.6501C15.7977 24.6444 15.7758 24.6444 15.7612 24.6387C15.7467 24.633 15.7248 24.633 15.7103 24.6272C15.6884 24.6272 15.6738 24.6215 15.652 24.6215C15.5719 24.6101 15.4918 24.6158 15.4044 24.6215C15.317 24.6272 15.2223 24.6501 15.1276 24.6786C14.9382 24.73 14.7416 24.8099 14.5376 24.8898C14.3337 24.9698 14.1152 25.0497 13.8894 25.0896C13.7729 25.1125 13.6636 25.1239 13.5544 25.1182C13.4451 25.1182 13.3431 25.1011 13.2557 25.0725C13.212 25.0611 13.1683 25.0497 13.1319 25.0269C13.1101 25.0211 13.0955 25.0097 13.0809 25.004C13.0664 24.9926 13.0518 24.9869 13.0372 24.9755C12.979 24.9412 12.928 24.907 12.8916 24.8784C12.8551 24.8499 12.8333 24.8213 12.8187 24.8042C12.8042 24.7814 12.7969 24.7757 12.7969 24.7757Z" fill="#84DBFF"/>
<path d="M5.63745 15.0023H5.59375V15.185H5.63745V15.0023Z" fill="#2B3B4E"/>
<path d="M5.43359 15.0023H5.38989V15.185H5.43359V15.0023Z" fill="#2B3B4E"/>
<path d="M5.23682 15.0023H5.19312V15.185H5.23682V15.0023Z" fill="#2B3B4E"/>
<path d="M5.04028 15.0023H4.99658V15.185H5.04028V15.0023Z" fill="#2B3B4E"/>
<path d="M4.84351 15.0023H4.7998V15.185H4.84351V15.0023Z" fill="#2B3B4E"/>
<path d="M4.64697 15.0023H4.60327V15.185H4.64697V15.0023Z" fill="#2B3B4E"/>
<path d="M4.45019 15.0023H4.40649V15.185H4.45019V15.0023Z" fill="#2B3B4E"/>
<path d="M4.25366 15.0023H4.20996V15.185H4.25366V15.0023Z" fill="#2B3B4E"/>
<path d="M4.05688 15.0023H4.01318V15.185H4.05688V15.0023Z" fill="#2B3B4E"/>
<path d="M3.86035 15.0023H3.81665V15.185H3.86035V15.0023Z" fill="#2B3B4E"/>
<path d="M3.66357 15.0023H3.61987V15.185H3.66357V15.0023Z" fill="#2B3B4E"/>
<path d="M3.45972 15.0023H3.41602V15.185H3.45972V15.0023Z" fill="#2B3B4E"/>
<path d="M3.26294 15.0023H3.21924V15.185H3.26294V15.0023Z" fill="#2B3B4E"/>
<path d="M3.06641 15.0023H3.02271V15.185H3.06641V15.0023Z" fill="#2B3B4E"/>
<path d="M2.86963 15.0023H2.82593V15.185H2.86963V15.0023Z" fill="#2B3B4E"/>
<path d="M2.6731 15.0023H2.62939V15.185H2.6731V15.0023Z" fill="#2B3B4E"/>
<path d="M23.8242 15.6703H33.8973C33.8317 15.1908 33.4384 14.7398 32.7829 14.3402H23.8242V15.6703Z" fill="#ACB3BA"/>
<path d="M24.4797 14.3402H32.3459C32.2949 13.9349 31.989 13.5524 31.4791 13.2156H24.4797V14.3402Z" fill="#CED5E0"/>
<path d="M25.0188 13.2156H30.9767C30.9403 12.8788 30.7072 12.5648 30.3212 12.2908H25.0188V13.2156Z" fill="#E6E9EE"/>
<path d="M10.7358 14.8539H6.79541V16.4066H10.7358V14.8539Z" fill="#FF7058"/>
<path d="M22.5715 14.8539H18.6311V16.4066H22.5715V14.8539Z" fill="#FFD05B"/>
<path d="M7.32723 15.0652H7.12329V16.1841H7.32723V15.0652Z" fill="#F1543F"/>
<path d="M7.83699 15.0652H7.63306V16.1841H7.83699V15.0652Z" fill="#F1543F"/>
<path d="M8.35408 15.0652H8.15015V16.1841H8.35408V15.0652Z" fill="#F1543F"/>
<path d="M8.87142 15.0652H8.66748V16.1841H8.87142V15.0652Z" fill="#F1543F"/>
<path d="M9.38851 15.0652H9.18457V16.1841H9.38851V15.0652Z" fill="#F1543F"/>
<path d="M9.9056 15.0652H9.70166V16.1841H9.9056V15.0652Z" fill="#F1543F"/>
<path d="M10.4154 15.0652H10.2114V16.1841H10.4154V15.0652Z" fill="#F1543F"/>
<path d="M16.6574 13.3011H12.717V14.8539H16.6574V13.3011Z" fill="#FF7058"/>
<path d="M13.2413 13.5125H13.0374V14.6313H13.2413V13.5125Z" fill="#F1543F"/>
<path d="M13.7584 13.5125H13.5544V14.6313H13.7584V13.5125Z" fill="#F1543F"/>
<path d="M14.2681 13.5125H14.0642V14.6313H14.2681V13.5125Z" fill="#F1543F"/>
<path d="M14.7855 13.5125H14.5815V14.6313H14.7855V13.5125Z" fill="#F1543F"/>
<path d="M15.3026 13.5125H15.0986V14.6313H15.3026V13.5125Z" fill="#F1543F"/>
<path d="M15.8197 13.5125H15.6157V14.6313H15.8197V13.5125Z" fill="#F1543F"/>
<path d="M16.3367 13.5125H16.1328V14.6313H16.3367V13.5125Z" fill="#F1543F"/>
<path d="M14.6835 14.8539H10.7432V16.4066H14.6835V14.8539Z" fill="#84DBFF"/>
<path d="M11.2674 15.0652H11.0635V16.1841H11.2674V15.0652Z" fill="#54C0EB"/>
<path d="M11.7845 15.0652H11.5806V16.1841H11.7845V15.0652Z" fill="#54C0EB"/>
<path d="M12.3016 15.0652H12.0977V16.1841H12.3016V15.0652Z" fill="#54C0EB"/>
<path d="M12.8116 15.0652H12.6077V16.1841H12.8116V15.0652Z" fill="#54C0EB"/>
<path d="M13.3287 15.0652H13.1248V16.1841H13.3287V15.0652Z" fill="#54C0EB"/>
<path d="M13.8458 15.0652H13.6418V16.1841H13.8458V15.0652Z" fill="#54C0EB"/>
<path d="M14.3629 15.0652H14.1589V16.1841H14.3629V15.0652Z" fill="#54C0EB"/>
<path d="M20.5976 13.3011H16.6572V14.8539H20.5976V13.3011Z" fill="#84DBFF"/>
<path d="M17.1817 13.5125H16.9778V14.6313H17.1817V13.5125Z" fill="#54C0EB"/>
<path d="M17.6988 13.5125H17.4949V14.6313H17.6988V13.5125Z" fill="#54C0EB"/>
<path d="M18.2159 13.5125H18.012V14.6313H18.2159V13.5125Z" fill="#54C0EB"/>
<path d="M18.733 13.5125H18.5291V14.6313H18.733V13.5125Z" fill="#54C0EB"/>
<path d="M19.243 13.5125H19.0391V14.6313H19.243V13.5125Z" fill="#54C0EB"/>
<path d="M19.7601 13.5125H19.5562V14.6313H19.7601V13.5125Z" fill="#54C0EB"/>
<path d="M20.2772 13.5125H20.0732V14.6313H20.2772V13.5125Z" fill="#54C0EB"/>
<path d="M18.6237 14.8539H14.6833V16.4066H18.6237V14.8539Z" fill="#E6E9EE"/>
<path d="M15.2078 15.0652H15.0039V16.1841H15.2078V15.0652Z" fill="#CED5E0"/>
<path d="M15.7249 15.0652H15.521V16.1841H15.7249V15.0652Z" fill="#CED5E0"/>
<path d="M16.242 15.0652H16.0381V16.1841H16.242V15.0652Z" fill="#CED5E0"/>
<path d="M16.7591 15.0652H16.5552V16.1841H16.7591V15.0652Z" fill="#CED5E0"/>
<path d="M17.2764 15.0652H17.0725V16.1841H17.2764V15.0652Z" fill="#CED5E0"/>
<path d="M17.7935 15.0652H17.5896V16.1841H17.7935V15.0652Z" fill="#CED5E0"/>
<path d="M18.3033 15.0652H18.0994V16.1841H18.3033V15.0652Z" fill="#CED5E0"/>
<path d="M14.6835 11.7427H10.7432V13.2954H14.6835V11.7427Z" fill="#E6E9EE"/>
<path d="M11.2674 11.9596H11.0635V13.0785H11.2674V11.9596Z" fill="#CED5E0"/>
<path d="M11.7845 11.9596H11.5806V13.0785H11.7845V11.9596Z" fill="#CED5E0"/>
<path d="M12.3016 11.9596H12.0977V13.0785H12.3016V11.9596Z" fill="#CED5E0"/>
<path d="M12.8116 11.9596H12.6077V13.0785H12.8116V11.9596Z" fill="#CED5E0"/>
<path d="M13.3287 11.9596H13.1248V13.0785H13.3287V11.9596Z" fill="#CED5E0"/>
<path d="M13.8458 11.9596H13.6418V13.0785H13.8458V11.9596Z" fill="#CED5E0"/>
<path d="M14.3629 11.9596H14.1589V13.0785H14.3629V11.9596Z" fill="#CED5E0"/>
<path d="M19.1556 15.0652H18.9517V16.1841H19.1556V15.0652Z" fill="#F9B54C"/>
<path d="M19.6727 15.0652H19.4688V16.1841H19.6727V15.0652Z" fill="#F9B54C"/>
<path d="M20.1898 15.0652H19.9858V16.1841H20.1898V15.0652Z" fill="#F9B54C"/>
<path d="M20.6998 15.0652H20.4958V16.1841H20.6998V15.0652Z" fill="#F9B54C"/>
<path d="M21.2169 15.0652H21.0129V16.1841H21.2169V15.0652Z" fill="#F9B54C"/>
<path d="M21.734 15.0652H21.53V16.1841H21.734V15.0652Z" fill="#F9B54C"/>
<path d="M22.2511 15.0652H22.0471V16.1841H22.2511V15.0652Z" fill="#F9B54C"/>
<path d="M12.7096 13.3011H8.76929V14.8539H12.7096V13.3011Z" fill="#FFD05B"/>
<path d="M9.29378 13.5125H9.08984V14.6313H9.29378V13.5125Z" fill="#F9B54C"/>
<path d="M9.81087 13.5125H9.60693V14.6313H9.81087V13.5125Z" fill="#F9B54C"/>
<path d="M10.328 13.5125H10.124V14.6313H10.328V13.5125Z" fill="#F9B54C"/>
<path d="M10.845 13.5125H10.6411V14.6313H10.845V13.5125Z" fill="#F9B54C"/>
<path d="M11.3624 13.5125H11.1584V14.6313H11.3624V13.5125Z" fill="#F9B54C"/>
<path d="M11.8722 13.5125H11.6682V14.6313H11.8722V13.5125Z" fill="#F9B54C"/>
<path d="M12.3892 13.5125H12.1853V14.6313H12.3892V13.5125Z" fill="#F9B54C"/>
<path d="M18.6237 11.7427H14.6833V13.2954H18.6237V11.7427Z" fill="#FFD05B"/>
<path d="M15.2078 11.9596H15.0039V13.0785H15.2078V11.9596Z" fill="#F9B54C"/>
<path d="M15.7249 11.9596H15.521V13.0785H15.7249V11.9596Z" fill="#F9B54C"/>
<path d="M16.242 11.9596H16.0381V13.0785H16.242V11.9596Z" fill="#F9B54C"/>
<path d="M16.7591 11.9596H16.5552V13.0785H16.7591V11.9596Z" fill="#F9B54C"/>
<path d="M17.2764 11.9596H17.0725V13.0785H17.2764V11.9596Z" fill="#F9B54C"/>
<path d="M17.7935 11.9596H17.5896V13.0785H17.7935V11.9596Z" fill="#F9B54C"/>
<path d="M18.3033 11.9596H18.0994V13.0785H18.3033V11.9596Z" fill="#F9B54C"/>
<path d="M23.0885 15.5561L22.4184 16.4467C22.4184 16.4467 12.4473 16.3325 8.58711 16.3325C5.87766 16.3325 5.73199 15.2992 5.7247 15.1565H2.5564C2.76762 15.6531 3.81644 16.6864 3.81644 16.6864C2.6875 17.3715 3.05896 17.7996 3.05896 17.7996H32.3094C34.1521 17.7482 34.4143 16.087 34.4434 15.5561H23.0885Z" fill="#324A5E"/>
<path d="M24.953 14.6427H24.4141V14.9909H24.953V14.6427Z" fill="#54C0EB"/>
<path d="M26.1547 14.6427H25.6157V14.9909H26.1547V14.6427Z" fill="#54C0EB"/>
<path d="M27.3566 14.6427H26.8176V14.9909H27.3566V14.6427Z" fill="#54C0EB"/>
<path d="M28.5656 14.6427H28.0266V14.9909H28.5656V14.6427Z" fill="#54C0EB"/>
<path d="M29.7675 14.6427H29.2285V14.9909H29.7675V14.6427Z" fill="#54C0EB"/>
<path d="M30.9765 14.6427H30.4375V14.9909H30.9765V14.6427Z" fill="#54C0EB"/>
<path d="M32.1781 14.6427H31.6392V14.9909H32.1781V14.6427Z" fill="#54C0EB"/>
<path d="M25.2152 13.4325H24.7637V13.7236H25.2152V13.4325Z" fill="#54C0EB"/>
<path d="M26.235 13.4325H25.7834V13.7236H26.235V13.4325Z" fill="#54C0EB"/>
<path d="M27.2546 13.4325H26.803V13.7236H27.2546V13.4325Z" fill="#54C0EB"/>
<path d="M28.267 13.4325H27.8154V13.7236H28.267V13.4325Z" fill="#54C0EB"/>
<path d="M29.2868 13.4325H28.8352V13.7236H29.2868V13.4325Z" fill="#54C0EB"/>
<path d="M30.3063 13.4325H29.8547V13.7236H30.3063V13.4325Z" fill="#54C0EB"/>
<path d="M31.3261 13.4325H30.8745V13.7236H31.3261V13.4325Z" fill="#54C0EB"/>
<path d="M25.6158 12.462H25.2808V12.679H25.6158V12.462Z" fill="#54C0EB"/>
<path d="M26.3587 12.462H26.0237V12.679H26.3587V12.462Z" fill="#54C0EB"/>
<path d="M27.1016 12.462H26.7666V12.679H27.1016V12.462Z" fill="#54C0EB"/>
<path d="M27.8519 12.462H27.5168V12.679H27.8519V12.462Z" fill="#54C0EB"/>
<path d="M28.5948 12.462H28.2598V12.679H28.5948V12.462Z" fill="#54C0EB"/>
<path d="M29.3377 12.462H29.0027V12.679H29.3377V12.462Z" fill="#54C0EB"/>
<path d="M30.0806 12.462H29.7456V12.679H30.0806V12.462Z" fill="#54C0EB"/>
<path d="M27.3568 11.2004H26.0239V12.2908H27.3568V11.2004Z" fill="#324A5E"/>
<path d="M27.3568 11.2004H26.0239V11.4916H27.3568V11.2004Z" fill="#ACB3BA"/>
<path d="M28.8717 11.3717H27.75V12.2908H28.8717V11.3717Z" fill="#324A5E"/>
<path d="M28.8717 11.3717H27.75V11.6172H28.8717V11.3717Z" fill="#ACB3BA"/>
<path d="M5.69557 15.0424H2.57096C2.56368 15.0424 2.5564 15.0367 2.5564 15.0309V14.9567C2.5564 14.951 2.56368 14.9453 2.57096 14.9453H5.68829C5.69557 14.9453 5.70285 14.951 5.70285 14.9567V15.0309C5.71014 15.0367 5.70285 15.0424 5.69557 15.0424Z" fill="#324A5E"/>
</g>
<defs>
<clipPath id="clip0_14_589">
<rect width="37" height="29" fill="white"/>
</clipPath>
</defs>
</svg>
