<svg width="28" height="20" viewBox="0 0 28 20" fill="none" xmlns="http://www.w3.org/2000/svg">
<path d="M27.202 6.34827H0.798C0.693507 6.34855 0.590138 6.36581 0.493969 6.39902C0.3978 6.43223 0.310772 6.48073 0.238 6.54167C0.0856998 6.66535 9.05393e-05 6.83313 0 7.0081V19.3516C0 19.5235 0.0840746 19.6885 0.233729 19.8101C0.383383 19.9317 0.586357 20 0.798 20H27.202C27.4136 20 27.6166 19.9317 27.7663 19.8101C27.9159 19.6885 28 19.5235 28 19.3516V7.0081C28 6.83506 27.9164 6.66892 27.7671 6.5455C27.6179 6.42208 27.4149 6.35125 27.202 6.34827Z" fill="#FFEABB"/>
<path d="M27.9999 16.0183C26.7003 16.0183 25.454 16.4378 24.535 17.1845C23.6161 17.9313 23.0999 18.944 23.0999 20.0001H27.2019C27.4135 20.0001 27.6165 19.9317 27.7661 19.8101C27.9158 19.6885 27.9999 19.5236 27.9999 19.3516V16.0183Z" fill="#F7BF75"/>
<path d="M0 16.0183V19.3516C0 19.5236 0.0840746 19.6885 0.233729 19.8101C0.383383 19.9317 0.586357 20.0001 0.798 20.0001H4.9C4.9 18.944 4.38375 17.9313 3.46482 17.1845C2.5459 16.4378 1.29956 16.0183 0 16.0183Z" fill="#F7BF75"/>
<path d="M23.0999 6.34827C23.0999 7.40429 23.6161 8.41707 24.535 9.1638C25.454 9.91052 26.7003 10.33 27.9999 10.33V7.0081C27.9999 6.83506 27.9163 6.66892 27.767 6.5455C27.6177 6.42208 27.4148 6.35125 27.2019 6.34827H23.0999Z" fill="#F7BF75"/>
<path d="M0.798 6.34827C0.58508 6.35125 0.382123 6.42208 0.232859 6.5455C0.0835937 6.66892 -3.16449e-05 6.83506 8.98296e-09 7.0081V10.33C1.29956 10.33 2.5459 9.91052 3.46482 9.1638C4.38375 8.41707 4.9 7.40429 4.9 6.34827H0.798Z" fill="#F7BF75"/>
<path d="M9.37996 0.000174246C9.1799 -0.00267136 8.98141 0.0293659 8.79786 0.0941268C8.61432 0.158888 8.45 0.254867 8.31596 0.375597L6.07596 2.43474C5.82953 2.6597 5.70293 2.95489 5.72393 3.25559C5.74492 3.55628 5.9118 3.83795 6.18796 4.03882C6.43738 4.20324 6.74879 4.29297 7.06996 4.29297C7.39114 4.29297 7.70254 4.20324 7.95196 4.03882V7.14459C7.95196 7.44631 8.09946 7.73567 8.36201 7.94902C8.62456 8.16237 8.98066 8.28223 9.35196 8.28223C9.72327 8.28223 10.0794 8.16237 10.3419 7.94902C10.6045 7.73567 10.752 7.44631 10.752 7.14459V4.0957C11.0025 4.26302 11.3167 4.3545 11.641 4.3545C11.9652 4.3545 12.2795 4.26302 12.53 4.0957C12.6744 3.99323 12.7915 3.86774 12.8738 3.727C12.9561 3.58627 13.002 3.43329 13.0085 3.27756C13.0151 3.12183 12.9822 2.96666 12.9119 2.82168C12.8416 2.6767 12.7355 2.54499 12.6 2.43474L10.402 0.375597C10.2727 0.259153 10.1151 0.165693 9.93925 0.101087C9.76337 0.0364807 9.57296 0.00212391 9.37996 0.000174246Z" fill="#96CCEE"/>
<path d="M18.634 9.29475C18.8328 9.29455 19.0292 9.25995 19.2102 9.19326C19.3913 9.12656 19.5528 9.02931 19.684 8.90795L21.924 6.86019C22.1704 6.63523 22.297 6.34004 22.276 6.03934C22.255 5.73864 22.0881 5.45698 21.812 5.25611C21.5626 5.09169 21.2511 5.00196 20.93 5.00196C20.6088 5.00196 20.2974 5.09169 20.048 5.25611V2.15034C20.048 1.84862 19.9005 1.55925 19.6379 1.3459C19.3754 1.13255 19.0193 1.0127 18.648 1.0127C18.2767 1.0127 17.9206 1.13255 17.658 1.3459C17.3955 1.55925 17.248 1.84862 17.248 2.15034V5.18785C16.9681 5.04031 16.6327 4.97881 16.302 5.01442C15.9713 5.05004 15.6671 5.18043 15.4443 5.38211C15.2214 5.5838 15.0945 5.84352 15.0864 6.11451C15.0782 6.38549 15.1894 6.64993 15.4 6.86019L17.64 8.90795C17.7696 9.02788 17.9288 9.12429 18.1073 9.19093C18.2858 9.25757 18.4796 9.29295 18.676 9.29475" fill="#F94060"/>
<path d="M28.0002 7.0081C28.0002 6.83506 27.9166 6.66892 27.7673 6.5455C27.6181 6.42208 27.4151 6.35125 27.2022 6.34827H25.2002V20H27.1462C27.3578 20 27.5608 19.9317 27.7105 19.8101C27.8601 19.6885 27.9442 19.5235 27.9442 19.3516L28.0002 7.0081Z" fill="#F7BF75"/>
<path d="M25.2002 6.34827V9.64744C26.0251 10.1032 27.0028 10.3415 28.0002 10.33V7.0081C28.0002 6.83506 27.9166 6.66892 27.7673 6.5455C27.6181 6.42208 27.4151 6.35125 27.2022 6.34827H25.2002ZM28.0002 16.0183C27.0013 16.0101 26.0235 16.2525 25.2002 16.7122V20H27.1462C27.3578 20 27.5608 19.9317 27.7105 19.8101C27.8601 19.6885 27.9442 19.5235 27.9442 19.3516L28.0002 16.0183Z" fill="#F1734D"/>
<path fill-rule="evenodd" clip-rule="evenodd" d="M11.8162 18.5211H16.1842C16.3699 18.5211 16.5479 18.4611 16.6792 18.3545C16.8105 18.2478 16.8842 18.1031 16.8842 17.9522C16.8842 17.8014 16.8105 17.6567 16.6792 17.55C16.5479 17.4434 16.3699 17.3834 16.1842 17.3834H11.8162C11.6306 17.3834 11.4525 17.4434 11.3212 17.55C11.19 17.6567 11.1162 17.8014 11.1162 17.9522C11.1162 18.1031 11.19 18.2478 11.3212 18.3545C11.4525 18.4611 11.6306 18.5211 11.8162 18.5211Z" fill="#F1734D"/>
<path fill-rule="evenodd" clip-rule="evenodd" d="M13.2999 10.5916V10.3299C13.2999 10.1791 13.3736 10.0344 13.5049 9.92771C13.6362 9.82104 13.8142 9.76111 13.9999 9.76111C14.1855 9.76111 14.3636 9.82104 14.4949 9.92771C14.6261 10.0344 14.6999 10.1791 14.6999 10.3299V10.5916C14.9678 10.6744 15.2112 10.8023 15.4139 10.967C15.5988 11.1126 15.7463 11.2867 15.8479 11.479C15.8846 11.5483 15.9038 11.623 15.9046 11.6985C15.9055 11.774 15.8877 11.8489 15.8526 11.9188C15.8174 11.9886 15.7654 12.0521 15.6997 12.1055C15.634 12.159 15.5559 12.2012 15.4699 12.2298C15.3855 12.2594 15.2947 12.2749 15.2027 12.2754C15.1108 12.276 15.0197 12.2615 14.9348 12.2328C14.85 12.2042 14.773 12.1619 14.7086 12.1087C14.6442 12.0554 14.5936 11.9921 14.5599 11.9226C14.5311 11.8667 14.4882 11.8163 14.4339 11.7747C14.3817 11.7294 14.319 11.6929 14.2492 11.6675C14.1795 11.6421 14.1043 11.6283 14.0279 11.6268C13.8682 11.6268 13.7151 11.6784 13.6022 11.7701C13.4893 11.8619 13.4259 11.9863 13.4259 12.116C13.4259 12.2458 13.4893 12.3702 13.6022 12.4619C13.7151 12.5537 13.8682 12.6052 14.0279 12.6052C14.4942 12.6122 14.9431 12.7504 15.2981 12.9962C15.6531 13.242 15.8922 13.5802 15.9748 13.9532C16.0573 14.3262 15.9782 14.7109 15.7508 15.0418C15.5235 15.3727 15.162 15.6293 14.7279 15.7679V16.0182C14.7279 16.169 14.6541 16.3137 14.5229 16.4204C14.3916 16.5271 14.2135 16.587 14.0279 16.587C13.8422 16.587 13.6642 16.5271 13.5329 16.4204C13.4016 16.3137 13.3279 16.169 13.3279 16.0182V15.7679C13.0599 15.6851 12.8166 15.5572 12.6139 15.3925C12.4256 15.2447 12.2777 15.0664 12.1799 14.8691C12.1342 14.7991 12.1069 14.722 12.1 14.6429C12.0931 14.5638 12.1066 14.4844 12.1397 14.4098C12.1727 14.3352 12.2246 14.2671 12.292 14.2097C12.3594 14.1524 12.4408 14.1071 12.531 14.0768C12.6212 14.0465 12.7182 14.0319 12.8158 14.0339C12.9133 14.0359 13.0093 14.0544 13.0975 14.0883C13.1857 14.1222 13.2643 14.1707 13.328 14.2308C13.3918 14.2908 13.4395 14.361 13.4679 14.4368C13.4974 14.4954 13.5457 14.5465 13.6079 14.5847C13.6611 14.632 13.7261 14.6697 13.7984 14.6951C13.8708 14.7206 13.949 14.7334 14.0279 14.7326C14.1735 14.7146 14.3064 14.6548 14.4025 14.564C14.4985 14.4732 14.5513 14.3575 14.5513 14.2377C14.5513 14.118 14.4985 14.0023 14.4025 13.9115C14.3064 13.8207 14.1735 13.7609 14.0279 13.7429C13.5584 13.7431 13.1038 13.6092 12.7435 13.3646C12.3832 13.1201 12.1401 12.7804 12.0567 12.405C11.9734 12.0296 12.055 11.6423 12.2873 11.3108C12.5197 10.9794 12.888 10.7248 13.3279 10.5916H13.2999Z" fill="#F1734D"/>
</svg>
