<svg width="37" height="30" viewBox="0 0 37 30" fill="none" xmlns="http://www.w3.org/2000/svg">
<path d="M8.67485 26.6998C8.60868 26.651 8.5502 26.5958 8.50075 26.5354C8.41602 26.4318 8.2955 26.1793 8.35994 26.0322L8.3838 25.962C8.2603 25.9609 8.14005 25.9297 8.03859 25.8726C7.95976 25.8136 7.89925 25.7403 7.86198 25.6588C7.82618 25.5756 7.85124 25.2031 7.85959 25.115C7.92284 24.4194 8.24144 24.1775 8.79871 23.745H11.6745C11.6745 24.2354 11.6745 26.2393 11.6745 26.2393C11.8679 26.606 11.6101 26.9514 11.3607 27.0298C11.0087 27.1401 10.4848 27.1207 9.9025 27.0646C9.34428 27.0117 8.93892 26.8951 8.67485 26.6998Z" fill="white"/>
<path d="M22.5169 5.97619C22.6716 5.89345 22.8594 5.86178 23.0419 5.88766C23.1577 5.89584 23.2687 5.92882 23.3635 5.98323C23.4583 6.03763 23.5336 6.11151 23.5817 6.19728C23.7358 6.48192 23.6497 6.96666 23.4688 7.25353C23.3148 7.53334 23.0613 7.76954 22.7409 7.93196C22.5386 8.01536 22.3143 8.0576 22.0874 8.05503L22.0689 8.08338C21.9828 8.23151 21.7784 8.4911 21.7784 8.4911C21.6982 8.58873 21.6156 8.68461 21.5285 8.77846L21.5156 9.09774C21.506 9.37527 21.5389 9.65268 21.6136 9.92363C20.6598 10.5093 19.3065 11.1781 18.2185 11.4935L17.748 11.479C17.7468 11.481 16.4557 10.8035 16.3464 10.7455C16.3464 10.7455 16.3464 10.5263 16.3464 10.2948C15.8198 10.1679 15.3327 9.95128 14.9178 9.6594C14.1245 9.12009 13.7881 8.27844 13.6768 7.35038C13.6122 6.81524 13.5574 6.23365 13.4719 5.65217C13.4719 5.65217 13.2144 2.67981 17.5739 2.67981C23.1073 2.6801 22.5169 5.97619 22.5169 5.97619Z" fill="white"/>
<path d="M27.7364 27.2621C25.4135 27.3234 21.3542 27.2662 18.7231 27.1931C17.5119 27.1594 15.5728 27.1254 14.3619 27.0921C14.3223 26.6101 14.2235 20.9386 14.1121 19.3597L10.8574 16.0631C10.9111 15.7099 10.9851 15.3578 11.0579 15.0056C11.1653 14.4899 11.2787 13.9626 11.6569 13.4924C12.3526 12.6255 13.8275 12.0807 15.238 11.597L15.2788 11.583C15.2701 11.5616 15.2686 11.5386 15.2744 11.5165C15.2802 11.4944 15.2932 11.474 15.312 11.4573C15.4732 11.3013 15.6685 11.163 15.8213 11.0357C15.9135 10.9588 16.0043 10.8808 16.0937 10.8016C16.2021 10.7055 16.206 10.6707 16.3464 10.7453C16.4557 10.8034 17.7469 11.4807 17.7481 11.4789L18.2186 11.4934C19.3548 11.164 20.7807 10.4485 21.7388 9.84583C21.7837 9.90233 21.8359 9.96435 21.8918 10.0279L22.6508 10.5067C24.2737 11.2892 24.7426 11.1918 26.0911 11.7852C26.6116 12.0144 27.3726 12.4403 27.7205 12.8289C28.1678 13.3392 28.4718 13.9227 28.6111 14.5385C28.882 15.7382 29.1161 18.0053 29.1561 19.4612C28.5823 19.515 27.9057 19.552 27.2246 19.5698C27.3201 21.1056 27.4919 23.8649 27.4919 23.8649C27.5782 25.023 27.6869 26.2697 27.7368 27.2617" fill="#3D8DCC"/>
<path d="M13.6121 3.0477C13.5345 3.23811 13.4732 3.43267 13.4288 3.62996C13.3113 4.2451 13.2999 4.87051 13.3949 5.4882L13.4226 5.4822C14.9733 5.14434 18.0904 3.87978 19.0715 2.93498C19.4901 3.74887 20.6133 5.16031 21.5524 5.50233L22.5168 5.97642C22.6715 5.89368 22.8593 5.86201 23.0419 5.88789C23.1576 5.89607 23.2686 5.92905 23.3634 5.98345C23.4583 6.03786 23.5336 6.11173 23.5816 6.1975C23.6071 6.24571 23.6259 6.29607 23.6377 6.34766C23.9917 5.83487 24.0291 4.90681 24.0619 4.50935C24.0916 4.13328 24.0492 3.75574 23.9362 3.3902C23.7126 2.66339 23.3718 2.06807 22.6755 1.54705L22.5376 1.44382L21.8135 1.02778C20.8569 0.453281 19.6789 0.174359 18.4914 0.241176C16.7826 0.310935 15.4085 0.846658 14.4878 1.72653C14.0966 2.11867 13.7996 2.56681 13.6121 3.0477Z" fill="#85807F"/>
<path d="M24.702 11.2858C23.9858 11.0865 23.298 10.8254 22.6505 10.5071L21.8914 10.0283L21.5857 9.83547C21.5328 9.5921 21.5093 9.3451 21.5157 9.09802C21.5157 9.09802 21.5157 8.98192 21.5157 8.79209C21.6073 8.69359 21.6939 8.59336 21.7782 8.49099C21.7782 8.49099 21.9826 8.2314 22.0688 8.08327L22.0896 8.05502C22.3157 8.05717 22.5391 8.01491 22.7407 7.93185C23.0611 7.76943 23.3146 7.53323 23.4686 7.25342C23.4686 7.25342 23.5641 7.10161 23.6613 6.9502C24.0187 7.04368 24.3416 7.2081 24.6007 7.42851C24.8598 7.64891 25.0469 7.91832 25.1449 8.21224C25.3044 8.7112 25.1927 9.23638 25.133 9.74946C25.0733 10.2625 25.0776 10.8162 25.4287 11.2458L25.7544 11.6444C25.4121 11.509 25.0608 11.3893 24.702 11.2858Z" fill="#85807F"/>
<path d="M8.59668 23.5811C8.31975 23.7754 8.07647 23.9992 7.87343 24.2464C7.68946 24.5167 7.58646 24.8183 7.57272 25.1268C7.55184 25.3652 7.51091 25.6359 7.65887 25.8525C7.91507 26.2271 8.52926 26.2829 8.95813 26.0716C9.27268 25.9168 8.9851 25.5148 8.66899 25.6706C8.6095 25.7023 8.54173 25.7224 8.47102 25.7292C8.40032 25.736 8.32863 25.7294 8.26161 25.71C8.21239 25.6917 8.1737 25.6588 8.15349 25.618C8.0912 25.5256 8.15922 25.6288 8.13476 25.5866C8.11614 25.5544 8.13356 25.6336 8.13476 25.5832C8.12844 25.3803 8.13821 25.1773 8.16399 24.9755C8.19383 24.7673 8.2869 24.5684 8.43487 24.3966C8.60572 24.2209 8.79557 24.0579 9.00216 23.9096C9.26898 23.7025 8.8635 23.3744 8.59644 23.5812L8.59668 23.5811Z" fill="#211715"/>
<path d="M11.3885 26.2395C11.3885 26.3215 11.4495 26.3959 11.4557 26.4786C11.4604 26.5426 11.4467 26.6065 11.4156 26.6654C11.3966 26.7075 11.3649 26.745 11.3234 26.7745C11.2819 26.8041 11.2319 26.8247 11.178 26.8346C10.7991 26.92 10.3713 26.8754 9.98698 26.8405C9.64092 26.8091 9.27685 26.7558 8.98056 26.5996C8.80837 26.509 8.56875 26.2859 8.63617 26.0942C8.73748 25.8063 8.18487 25.6834 8.0838 25.9707C7.98511 26.2513 8.15337 26.5726 8.37747 26.7847C8.60555 26.9815 8.89727 27.1223 9.21933 27.1911C9.64368 27.2852 10.0811 27.3351 10.521 27.3395C10.8658 27.3501 11.3048 27.3513 11.602 27.1869C11.778 27.0849 11.9088 26.9396 11.9749 26.7725C12.0116 26.684 12.0297 26.591 12.0286 26.4976C12.0274 26.4444 12.0207 26.3914 12.0088 26.3392C12.0045 26.3192 11.9993 26.2993 11.9931 26.2796C11.9905 26.2712 11.9613 26.1841 11.9613 26.2395C11.9613 25.9408 11.3885 25.9403 11.3885 26.2395Z" fill="#211715"/>
<path d="M14.6483 27.0921C14.5848 26.2993 14.5976 25.4988 14.5775 24.7048C14.5456 23.436 14.5145 22.1671 14.4701 20.8985C14.452 20.3858 14.4343 19.8722 14.3985 19.3602C14.3777 19.063 13.8048 19.0611 13.8258 19.3602C13.8996 20.4155 13.918 21.474 13.9477 22.5305C13.9814 23.7265 14.0085 24.9225 14.0413 26.1186C14.0501 26.4428 14.0496 26.7689 14.0755 27.0926C14.0772 27.1537 14.1079 27.212 14.1613 27.2553C14.2146 27.2985 14.2865 27.3234 14.3619 27.3248C14.4377 27.3243 14.5101 27.2996 14.5637 27.2562C14.6173 27.2128 14.6476 27.154 14.6483 27.0926V27.0921Z" fill="#211715"/>
<path d="M8.94782 16.0632H8.81274C8.81274 16.4275 8.81274 25.7284 8.81274 26.2371C12.1943 26.2371 22.7949 26.2689 24.6558 26.2689H25.0189V26.1535C25.0189 24.3525 25.0291 17.815 25.0291 16.0632H8.94782Z" fill="#BD957A"/>
<path d="M11.144 16.063C11.2103 15.6343 11.2991 15.2063 11.3959 14.7815C11.4664 14.3822 11.629 13.9973 11.8751 13.6467C12.3326 13.0516 13.128 12.6662 13.879 12.3536C14.3693 12.1494 14.8754 11.9716 15.3825 11.7975C15.4478 11.7661 15.4951 11.7152 15.5144 11.6557C15.5336 11.5962 15.5231 11.533 15.4853 11.4797C15.4456 11.4277 15.3828 11.3901 15.3098 11.3746C15.2369 11.3591 15.1594 11.3669 15.0934 11.3964C14.1809 11.7097 13.2481 12.0324 12.4487 12.5153C12.066 12.7375 11.7307 13.009 11.4561 13.319C11.1703 13.676 10.9755 14.0757 10.8833 14.4947C10.7504 15.0119 10.6526 15.539 10.5715 16.063C10.5719 16.1245 10.6022 16.1834 10.6559 16.2269C10.7095 16.2703 10.7821 16.2949 10.8579 16.2952C10.9333 16.2938 11.0051 16.2688 11.0585 16.2256C11.1118 16.1824 11.1425 16.1241 11.1443 16.063H11.144Z" fill="#211715"/>
<path d="M29.4481 19.9728C29.4554 19.118 29.3892 18.2617 29.3081 17.4099C29.2237 16.5236 29.119 15.6358 28.9463 14.7576C28.8566 14.2589 28.6766 13.7736 28.4121 13.3175C28.1398 12.8482 27.7348 12.4375 27.2301 12.1189C26.7546 11.8196 26.238 11.5659 25.6908 11.3627C25.2677 11.2045 24.8291 11.0806 24.3945 10.9457C24.1401 10.8667 23.8924 10.7805 23.6471 10.6831C23.3705 10.5783 23.1009 10.4618 22.8394 10.334C22.5789 10.196 22.3405 10.0191 22.0948 9.86412C22.04 9.82233 21.9675 9.79907 21.8923 9.79907C21.817 9.79907 21.7446 9.82233 21.6898 9.86412C21.6365 9.90786 21.6067 9.96685 21.6067 10.0283C21.6067 10.0898 21.6365 10.1488 21.6898 10.1925L22.3741 10.6243C22.7933 10.8681 23.2477 11.0693 23.7273 11.2234C24.145 11.371 24.576 11.4894 24.9995 11.6251C25.4819 11.7788 25.9446 11.9702 26.3812 12.1966C26.8713 12.4531 27.3297 12.7481 27.6435 13.1515C27.9899 13.602 28.2264 14.1023 28.3401 14.6252C28.5245 15.4487 28.6207 16.2863 28.7064 17.1214C28.8037 18.0687 28.8831 19.022 28.8749 19.9732C28.8724 20.2721 29.4452 20.2724 29.4477 19.9732L29.4481 19.9728Z" fill="#211715"/>
<path d="M21.2294 9.09798C21.2266 9.28026 21.2373 9.46251 21.2613 9.64376C21.2946 9.86697 21.3399 10.1209 21.5119 10.3057C21.5516 10.3564 21.6123 10.3941 21.683 10.4121C21.7575 10.4281 21.8369 10.4197 21.9038 10.3887C22.0214 10.3271 22.1031 10.1746 22.0065 10.071C21.9754 10.0365 21.9486 9.99965 21.9263 9.96092C21.9035 9.92348 21.9502 10.013 21.9311 9.96992C21.9267 9.95976 21.9218 9.9496 21.9174 9.93944C21.9074 9.91612 21.8984 9.89261 21.8903 9.86891C21.8739 9.8215 21.8609 9.77331 21.85 9.72484C21.8441 9.69872 21.8392 9.67259 21.8341 9.64637C21.8259 9.6039 21.8395 9.68759 21.836 9.65779C21.8343 9.64347 21.8317 9.62877 21.8297 9.61474C21.8088 9.44293 21.7995 9.27032 21.8019 9.09769C21.8019 9.06719 21.7945 9.037 21.7801 9.00882C21.7657 8.98065 21.7446 8.95505 21.718 8.93349C21.6914 8.91193 21.6598 8.89482 21.6251 8.88315C21.5903 8.87149 21.5531 8.86548 21.5155 8.86548C21.4779 8.86548 21.4406 8.87149 21.4059 8.88315C21.3711 8.89482 21.3396 8.91193 21.313 8.93349C21.2864 8.95505 21.2653 8.98065 21.2509 9.00882C21.2365 9.037 21.2291 9.06719 21.2291 9.09769L21.2294 9.09798Z" fill="#211715"/>
<path d="M19.1586 12.7608L19.3581 13.0297C20.1108 12.5836 20.8273 12.0986 21.5031 11.5778C21.8042 11.3425 22.145 11.0923 22.3783 10.8085C22.5335 10.619 22.4076 10.5616 22.2561 10.4139C22.0712 10.2323 21.8985 10.0428 21.7386 9.84619C20.7809 10.4494 19.355 11.1644 18.2192 11.4943L19.1586 12.7608Z" fill="white"/>
<path d="M24.4499 23.842C24.3661 23.7981 24.2759 23.7627 24.1814 23.7367L24.2185 23.6379C24.4343 23.1756 24.8067 22.1635 25.0192 21.5964V21.5541C25.0192 20.8998 25.0205 20.2276 25.022 19.5527C26.2981 19.6067 27.5774 19.585 28.8497 19.4878C28.8988 20.1294 28.8176 20.7731 28.6093 21.3933C28.3445 22.0564 26.9626 24.3637 26.2989 24.9048L26.0383 25.1171L26.0118 25.0896C25.8124 24.8826 25.4539 24.5616 25.2277 24.3736C24.9947 24.1726 24.7336 23.9942 24.4499 23.842Z" fill="white"/>
<path d="M16.5463 12.6833C16.1798 12.4385 15.8455 12.1637 15.5487 11.8632C15.4365 11.7496 15.1692 11.5956 15.312 11.4576C15.4732 11.3016 15.6685 11.1633 15.8212 11.036C15.9134 10.9591 16.0043 10.8811 16.0937 10.8019C16.202 10.7058 16.206 10.6711 16.3464 10.7457C16.4557 10.8037 17.7469 11.481 17.7481 11.4792C17.4568 11.9474 17.0019 12.311 16.5463 12.6833Z" fill="white"/>
<path d="M16.749 12.5191C16.381 12.2595 16.0386 11.9769 15.725 11.6739C15.6773 11.63 15.6014 11.5738 15.5699 11.5384C15.586 11.5564 15.5369 11.5005 15.5436 11.5017C15.5526 11.5033 15.5576 11.5383 15.5577 11.5375C15.5516 11.5561 15.5469 11.575 15.5435 11.5941C15.5435 11.5941 15.6135 11.5312 15.618 11.5274C15.7885 11.3795 15.9744 11.2438 16.1461 11.0968C16.2239 11.0377 16.296 10.9739 16.3617 10.906L16.3703 10.8989C16.426 10.8552 16.3649 10.8666 16.1869 10.9331L16.1783 10.9313C16.1577 10.9262 16.1656 10.9313 16.2022 10.9459C16.2107 10.951 16.2201 10.9556 16.2289 10.96C16.2986 10.9964 16.3679 11.0332 16.4375 11.0697C16.6653 11.1893 16.8931 11.3087 17.1211 11.4277C17.2325 11.4857 17.3437 11.5438 17.4546 11.6018C17.5017 11.6308 17.5516 11.6567 17.6038 11.6792L17.5011 11.3615C17.2168 11.8107 16.7781 12.164 16.3436 12.5187C16.0837 12.7315 16.4885 13.0596 16.7486 12.847C17.2149 12.4659 17.6899 12.0784 17.9951 11.5959C18.0591 11.4949 18.0408 11.3298 17.8924 11.2782C17.8426 11.2568 17.7949 11.2322 17.7499 11.2047C17.6364 11.1457 17.523 11.0864 17.4097 11.027C17.1608 10.8967 16.912 10.7662 16.6634 10.6355C16.5918 10.5977 16.5202 10.5553 16.4447 10.5222C16.3852 10.4925 16.3168 10.4763 16.2469 10.4754C16.177 10.4745 16.1081 10.4888 16.0474 10.517C15.9439 10.5826 15.851 10.6585 15.7709 10.7429C15.5848 10.9036 15.3818 11.0509 15.1973 11.2128C15.0853 11.2913 15.0111 11.3994 14.9877 11.5179C14.9817 11.6185 15.0203 11.7175 15.0965 11.7971C15.1712 11.8807 15.2644 11.9492 15.346 12.0277C15.448 12.1258 15.5477 12.2249 15.6551 12.3194C15.8696 12.508 16.0997 12.6845 16.3436 12.8479C16.3983 12.8899 16.4708 12.9133 16.5461 12.9133C16.6214 12.9133 16.6939 12.8899 16.7486 12.8479C16.8019 12.8041 16.8319 12.7451 16.832 12.6836C16.832 12.6221 16.8022 12.563 16.749 12.5191Z" fill="#211715"/>
<path d="M18.9112 12.8779L19.1107 13.1467C19.1494 13.1996 19.2122 13.2379 19.2855 13.2535C19.3588 13.2691 19.4368 13.2607 19.5025 13.2301C20.3539 12.7193 21.1638 12.1647 21.9271 11.5695C22.1051 11.4344 22.2727 11.2906 22.429 11.1389C22.574 10.9938 22.7495 10.8293 22.7325 10.6301C22.7168 10.448 22.5341 10.3262 22.4019 10.1934C22.2536 10.0445 22.1147 9.88946 21.9858 9.72903C21.9629 9.69912 21.9321 9.67371 21.8956 9.65466C21.859 9.63561 21.8177 9.62339 21.7747 9.61889C21.7316 9.61439 21.6878 9.61772 21.6465 9.62863C21.6053 9.63955 21.5675 9.65779 21.536 9.68201C21.0146 10.0063 20.4686 10.3036 19.9012 10.5721C19.3429 10.8483 18.7542 11.0818 18.1427 11.2698C18.1009 11.2798 18.0623 11.2973 18.0299 11.3211C17.9976 11.3448 17.9722 11.3742 17.9558 11.407C17.9393 11.4397 17.9322 11.4751 17.9349 11.5104C17.9376 11.5457 17.9501 11.5801 17.9715 11.611C18.2848 12.0333 18.5982 12.4558 18.9114 12.8784C19.1013 13.1343 19.5967 12.901 19.4061 12.644L18.4661 11.3765L18.295 11.7177C19.6125 11.3318 20.8379 10.7028 21.9412 10.0104L21.4915 9.96347C21.6117 10.1132 21.742 10.2571 21.8774 10.3989C21.9351 10.4593 21.993 10.5199 22.0537 10.5785C22.0857 10.6093 22.118 10.6405 22.1521 10.6699C22.1589 10.6756 22.2105 10.726 22.1709 10.6786C22.1461 10.649 22.1814 10.628 22.1312 10.6917C22.1038 10.7263 22.0738 10.76 22.0428 10.7924C21.9838 10.8543 21.9191 10.9128 21.8539 10.9703C21.7009 11.1049 21.5366 11.2306 21.3737 11.3573C20.6923 11.8841 19.9709 12.3759 19.2138 12.8297L19.6056 12.913L19.4062 12.6441C19.216 12.3878 18.7203 12.621 18.9112 12.8779Z" fill="#211715"/>
<path d="M27.2052 23.8653C27.2897 24.9973 27.3925 26.1289 27.4501 27.2621C27.4651 27.5599 28.038 27.5615 28.0229 27.2621C27.9652 26.1289 27.8625 24.9974 27.778 23.8653C27.7559 23.5684 27.1829 23.5663 27.2052 23.8653Z" fill="#211715"/>
<path d="M27.7366 27.0299C26.0265 27.0744 24.3134 27.0589 22.6029 27.0375C20.8607 27.0157 19.1198 26.9668 17.3781 26.9284C16.3728 26.9063 15.3672 26.8877 14.3621 26.8599C13.9933 26.8497 13.9938 27.3142 14.3621 27.3243C16.0848 27.3719 17.8083 27.4048 19.5313 27.4461C21.3655 27.4901 23.2004 27.5148 25.0358 27.5201C25.9361 27.5214 26.8367 27.5177 27.7366 27.4943C28.1042 27.4846 28.1058 27.0202 27.7366 27.0299Z" fill="#211715"/>
<path d="M14.0859 27.0304C13.9464 27.7618 13.8902 28.5016 13.7114 29.2284C13.6931 29.2877 13.7037 29.3505 13.7409 29.4037C13.7781 29.4569 13.8392 29.4964 13.9114 29.5141C13.9846 29.5299 14.0626 29.5217 14.1284 29.4914C14.1943 29.461 14.2429 29.4109 14.2637 29.3519C14.3638 28.9455 14.4307 28.5334 14.4917 28.1218C14.5189 27.9397 14.5444 27.7575 14.5709 27.5752C14.5826 27.4939 14.5946 27.4126 14.6067 27.3314C14.6095 27.3138 14.6123 27.2964 14.6151 27.279C14.6213 27.2409 14.6151 27.2752 14.6193 27.2544C14.6252 27.2209 14.6312 27.1874 14.6375 27.1538C14.6553 27.0945 14.6446 27.0319 14.6074 26.9788C14.5702 26.9258 14.5095 26.8862 14.4375 26.8682C14.3643 26.8523 14.2863 26.8604 14.2204 26.8907C14.1545 26.9211 14.1059 26.9712 14.0853 27.0304H14.0859Z" fill="#211715"/>
<path d="M20.0763 26.6625C20.1792 26.4798 20.3582 26.3322 20.5818 26.2458C20.6466 26.2354 20.7081 26.2145 20.7627 26.1843C20.8172 26.1541 20.8637 26.1153 20.8992 26.0701C21.1353 25.7559 21.4214 25.2275 21.5217 25.0617C21.6104 24.9415 21.7353 24.8417 21.8847 24.7714C22.026 24.6955 22.1904 24.6529 22.3598 24.6483C22.5924 24.6549 22.8229 24.6104 23.0269 24.5196C23.2309 24.4287 23.4009 24.295 23.519 24.1323C23.6204 23.9707 23.7724 23.8336 23.9598 23.7346C24.1779 23.6456 24.7012 23.9354 25.2275 24.3732C25.5191 24.6154 25.7951 24.8696 26.0545 25.1347C25.4799 25.9794 24.973 26.6762 24.2217 27.3794C23.8986 27.6817 23.1892 27.9061 22.8163 27.8739C21.6946 27.7771 21.0102 27.7104 19.9722 26.9584C19.9892 26.8562 20.0243 26.7566 20.0763 26.6625Z" fill="white"/>
<path d="M26.88 27.3211C27.0105 27.7327 27.0125 28.1839 27.0144 28.623C27.0224 29.0052 27.0039 29.3874 26.9589 29.7678C26.9594 29.8293 26.9897 29.8881 27.0433 29.9316C27.0969 29.9751 27.1695 29.9996 27.2453 30C27.3207 29.9986 27.3926 29.9737 27.4459 29.9305C27.4992 29.8872 27.53 29.829 27.5317 29.7678C27.5779 29.3766 27.5962 28.9835 27.5866 28.5906C27.5833 28.1297 27.5747 27.6467 27.4315 27.1974C27.3398 26.9082 26.7871 27.0308 26.8792 27.3208L26.88 27.3211Z" fill="#211715"/>
<path d="M29.1616 19.228C27.8208 19.353 26.4693 19.3854 25.1217 19.3248C24.7535 19.308 24.7546 19.7726 25.1217 19.7892C26.4693 19.8498 27.8208 19.8174 29.1616 19.6924C29.2369 19.6907 29.3085 19.6656 29.3617 19.6225C29.4149 19.5793 29.4458 19.5213 29.448 19.4602C29.4476 19.3988 29.4173 19.3399 29.3636 19.2964C29.31 19.253 29.2374 19.2284 29.1616 19.228Z" fill="#211715"/>
<path d="M28.5715 19.6312C28.6003 20.1614 28.535 20.6923 28.3776 21.2074C28.2914 21.4489 28.1808 21.6842 28.0471 21.911C27.6664 22.6146 27.2361 23.2999 26.7583 23.9634C26.642 24.1238 26.5218 24.2827 26.3923 24.4359C26.3622 24.4717 26.3314 24.5072 26.3 24.5423C26.2901 24.5534 26.28 24.5643 26.2701 24.5752C26.2602 24.5862 26.2507 24.5963 26.2408 24.6069C26.2592 24.5875 26.2621 24.5845 26.2496 24.5972C26.2014 24.6469 26.1501 24.6945 26.0959 24.74C25.8374 24.9534 26.2421 25.2818 26.5009 25.0684C26.7507 24.8456 26.9684 24.6005 27.1497 24.3378C27.4069 23.9949 27.6422 23.6412 27.8681 23.2842C28.0858 22.9399 28.2943 22.5915 28.4901 22.2385C28.6446 21.9764 28.7795 21.707 28.8939 21.4317C29.0972 20.8465 29.1816 20.2384 29.1439 19.6312C29.1331 19.333 28.5602 19.3318 28.5712 19.6312H28.5715Z" fill="#211715"/>
<path d="M24.9419 20.4605C24.962 20.767 24.916 21.0739 24.8059 21.3675C24.7202 21.5982 24.6339 21.8287 24.5469 22.0589C24.356 22.5668 24.1728 23.079 23.9424 23.5761C23.9228 23.6355 23.9329 23.6987 23.9703 23.7522C24.0077 23.8056 24.0695 23.845 24.1424 23.8618C24.2156 23.8769 24.2931 23.8684 24.3587 23.8381C24.4244 23.8079 24.4731 23.7583 24.4947 23.6996C24.7298 23.1922 24.9168 22.6692 25.1111 22.1508C25.1995 21.9152 25.2908 21.68 25.3757 21.4434C25.489 21.1243 25.536 20.7921 25.5147 20.4605C25.497 20.163 24.9241 20.1612 24.9419 20.4605Z" fill="#211715"/>
<path d="M21.1929 18.0724V24.0045C21.1929 24.3033 21.7657 24.3038 21.7657 24.0045V18.0724C21.7657 17.7736 21.1929 17.7731 21.1929 18.0724Z" fill="#211715"/>
<path d="M19.6604 27.0418C20.0789 27.3715 20.5666 27.6379 21.1007 27.8283C21.5556 27.9642 22.0313 28.0485 22.5146 28.0789C22.7465 28.1098 22.9831 28.1094 23.2149 28.0778C23.4725 28.0323 23.7196 27.9542 23.9472 27.8464C24.4553 27.6104 24.8032 27.1868 25.135 26.8073C25.5436 26.3268 25.9189 25.8282 26.259 25.3139C26.438 25.0522 25.9431 24.8176 25.7645 25.0795C25.4808 25.4955 25.1905 25.9085 24.8669 26.3048C24.7134 26.4926 24.5534 26.6772 24.3834 26.8555C24.2324 27.0346 24.0549 27.1979 23.8549 27.3419C23.538 27.5509 23.1355 27.6551 22.7279 27.6336C22.293 27.6075 21.863 27.5424 21.4457 27.4394C20.9189 27.2936 20.4707 27.0161 20.0654 26.7137C19.7947 26.5115 19.3886 26.8395 19.6604 27.0421V27.0418Z" fill="#211715"/>
<path d="M26.2141 24.925C25.8551 24.5452 25.4486 24.1967 25.0009 23.885C24.7936 23.7316 24.5545 23.6091 24.2947 23.523C24.1791 23.4885 24.0536 23.482 23.9335 23.5044C23.8134 23.5269 23.704 23.5772 23.6187 23.6493C23.4091 23.8021 23.3085 24.0219 23.1112 24.1808C22.9592 24.3035 22.7626 24.3834 22.5504 24.4087C22.4072 24.4256 22.2653 24.4144 22.1223 24.4401C21.9712 24.4676 21.8286 24.5196 21.703 24.5931C21.4898 24.7078 21.3194 24.8675 21.2101 25.055C21.0913 25.2611 20.9738 25.4678 20.8452 25.67C20.7895 25.7794 20.7177 25.883 20.6314 25.9785C20.6467 25.9649 20.6084 25.9922 20.6104 25.9909C20.6429 25.9716 20.573 26.0034 20.5653 26.0061C20.5362 26.0163 20.4348 26.0421 20.3803 26.0585C20.3081 26.0763 20.2472 26.1159 20.21 26.1691C20.1728 26.2222 20.1621 26.2849 20.1803 26.3442C20.201 26.4033 20.2495 26.4535 20.3154 26.4838C20.3813 26.5141 20.4593 26.5223 20.5325 26.5064C20.7812 26.4312 20.9949 26.3765 21.1467 26.1871C21.2821 26.007 21.4031 25.82 21.5089 25.6272C21.5968 25.4785 21.6746 25.3246 21.7692 25.1787C21.828 25.0994 21.9076 25.0316 22.0023 24.9801C22.097 24.9287 22.2046 24.8947 22.3173 24.8808C22.4427 24.8682 22.5679 24.8741 22.694 24.8567C23.0813 24.8008 23.4275 24.6271 23.6619 24.3711C23.7416 24.2866 23.803 24.1928 23.8804 24.1073C23.9177 24.0648 23.9603 24.0255 24.0075 23.9899C24.0286 23.9747 24.0462 23.9658 24.069 23.9512C24.1353 23.908 24.0665 23.967 24.056 23.9494L24.0388 23.9511C24.0542 23.9506 24.0697 23.9509 24.0851 23.9522C24.0731 23.9495 24.0289 23.9425 24.0863 23.9561C24.1138 23.9614 24.1405 23.9693 24.1657 23.9796C24.2839 24.0268 24.3956 24.084 24.4989 24.1503C24.9905 24.4724 25.4307 24.8429 25.8094 25.2533C25.8633 25.2965 25.936 25.3207 26.0119 25.3207C26.0877 25.3207 26.1605 25.2965 26.2144 25.2533C26.2664 25.209 26.2954 25.1502 26.2954 25.0891C26.2954 25.0279 26.2664 24.9691 26.2144 24.9249L26.2141 24.925Z" fill="#211715"/>
<path d="M20.8438 9.71233C21.2063 9.45717 21.5318 9.16931 21.8139 8.85432C22.0059 8.64935 22.1741 8.43044 22.3164 8.20036C22.3354 8.17403 22.3478 8.14493 22.3529 8.11471C22.358 8.08449 22.3557 8.05376 22.3461 8.02426C22.3366 7.99476 22.32 7.96707 22.2972 7.94278C22.2745 7.91848 22.2461 7.89806 22.2136 7.88267C22.1811 7.86729 22.1452 7.85724 22.108 7.8531C22.0707 7.84896 22.0328 7.85082 21.9964 7.85856C21.96 7.8663 21.9259 7.87977 21.8959 7.89821C21.8659 7.91665 21.8408 7.93969 21.8218 7.96603C21.684 8.18891 21.5217 8.40125 21.3368 8.60044C21.305 8.63611 21.2724 8.67158 21.2391 8.70687C21.2611 8.68365 21.2272 8.71954 21.2196 8.7268C21.2041 8.74267 21.1885 8.7585 21.1726 8.7743C21.1021 8.84474 21.0291 8.91353 20.9537 8.98068C20.7923 9.12346 20.6203 9.25813 20.4388 9.38395C20.3854 9.42764 20.3555 9.48665 20.3555 9.54814C20.3555 9.60963 20.3854 9.66863 20.4388 9.71233C20.4934 9.75448 20.5659 9.77799 20.6413 9.77799C20.7167 9.77799 20.7892 9.75448 20.8438 9.71233Z" fill="#211715"/>
<path d="M22.4735 1.71064C23.0821 2.17089 23.4363 2.74803 23.6429 3.39531C23.8446 4.02701 23.7962 4.69112 23.6926 5.33328C23.6423 5.64511 23.5688 5.97843 23.3734 6.25417C23.1894 6.51376 23.6836 6.74761 23.8679 6.48861C24.2577 5.93876 24.2933 5.24668 24.3396 4.62852C24.4026 3.84945 24.2134 3.07055 23.7907 2.36905C23.5626 1.99802 23.2534 1.66364 22.878 1.38216C22.6088 1.1784 22.2029 1.5061 22.473 1.71054L22.4735 1.71064Z" fill="#211715"/>
<path d="M16.4394 8.85029C16.6804 8.94788 16.9475 8.99533 17.2167 8.98836C17.3487 8.98771 17.4801 8.97374 17.6079 8.94675C17.7516 8.90672 17.8913 8.85764 18.0255 8.79998C18.091 8.76878 18.1385 8.71785 18.1577 8.65834C18.177 8.59882 18.1664 8.53555 18.1283 8.48234C18.0885 8.43047 18.0257 8.39294 17.9528 8.37744C17.8799 8.36195 17.8025 8.36967 17.7364 8.39903C17.6803 8.41945 17.6256 8.44218 17.5701 8.46386C17.5567 8.46918 17.5432 8.47421 17.5299 8.47934C17.4668 8.50382 17.5664 8.46966 17.5299 8.47934C17.5077 8.48505 17.4862 8.49172 17.4637 8.49695C17.4413 8.50217 17.418 8.50662 17.395 8.51049C17.3831 8.51252 17.3711 8.51436 17.3592 8.5161C17.35 8.51736 17.3064 8.5223 17.3513 8.51765C17.3963 8.51301 17.3513 8.51765 17.3425 8.51765C17.3297 8.51872 17.317 8.51959 17.3042 8.52036C17.2751 8.5221 17.2459 8.52313 17.2166 8.52346C17.1639 8.5241 17.1112 8.52268 17.0586 8.5192C17.0455 8.51833 17.0324 8.51717 17.0192 8.5162C16.9803 8.51339 17.0215 8.51552 17.0369 8.51862C17.0122 8.51359 16.9857 8.51214 16.9605 8.50817C16.9088 8.50005 16.8578 8.48942 16.8077 8.47634C16.7965 8.47334 16.7852 8.47024 16.7741 8.46666C16.7651 8.46395 16.7264 8.45079 16.7683 8.4656C16.8102 8.4804 16.7726 8.46724 16.7641 8.46366C16.7522 8.45873 16.7403 8.45399 16.7283 8.44896C16.6958 8.43331 16.6599 8.42303 16.6225 8.41871C16.5851 8.41438 16.547 8.4161 16.5104 8.42377C16.4738 8.43144 16.4395 8.44489 16.4093 8.46337C16.3792 8.48184 16.3539 8.50497 16.3348 8.53142C16.3157 8.55787 16.3033 8.58711 16.2982 8.61747C16.2932 8.64783 16.2956 8.6787 16.3053 8.7083C16.315 8.7379 16.3318 8.76566 16.3548 8.78996C16.3778 8.81426 16.4066 8.83463 16.4393 8.8499L16.4394 8.85029Z" fill="#211715"/>
<path d="M18.0674 6.62124C18.0077 6.43141 18.0781 6.00269 18.5175 5.98267C19.0953 6.00734 19.096 6.52893 18.8874 6.76637C18.7166 6.96055 18.243 7.02615 18.0674 6.62124Z" fill="#211715"/>
<path d="M14.6312 6.57917C14.5764 6.38876 14.6422 5.9586 15.0445 5.93799C15.5735 5.96218 15.5734 6.48542 15.382 6.72372C15.2252 6.91839 14.7918 6.98467 14.6312 6.57917Z" fill="#211715"/>
<path d="M16.3577 7.01158C16.282 7.11221 16.2089 7.21477 16.1442 7.32042C16.1031 7.38064 16.0775 7.44705 16.0691 7.51557C16.0664 7.5585 16.0753 7.60138 16.0952 7.64122C16.1151 7.68107 16.1455 7.7169 16.1842 7.74623C16.2454 7.79423 16.3195 7.82992 16.4008 7.85043C16.4535 7.86087 16.5073 7.86734 16.5614 7.86979L16.4853 7.86156C16.4891 7.86156 16.4929 7.86234 16.4966 7.86292C16.5336 7.87255 16.573 7.87396 16.6108 7.86698C16.6487 7.86567 16.6855 7.85619 16.7174 7.8395C16.7499 7.82411 16.7783 7.80369 16.801 7.77939C16.8238 7.75509 16.8404 7.7274 16.8499 7.69789C16.8595 7.66839 16.8618 7.63764 16.8566 7.60742C16.8515 7.5772 16.8391 7.54809 16.8201 7.52176C16.8018 7.49565 16.7772 7.47278 16.7478 7.4545C16.7184 7.43622 16.6848 7.4229 16.6489 7.41534C16.6055 7.40972 16.5618 7.40634 16.5182 7.40189L16.5944 7.41021C16.5726 7.40787 16.5513 7.40325 16.531 7.39647L16.5994 7.41988C16.5825 7.41352 16.5665 7.40577 16.5516 7.39676L16.6096 7.43304C16.5954 7.42396 16.5823 7.41382 16.5705 7.40276L16.6154 7.44978C16.6121 7.44627 16.6093 7.44243 16.6072 7.43836L16.6361 7.4938C16.6333 7.48754 16.6314 7.48105 16.6304 7.47445L16.6407 7.53618C16.6402 7.52934 16.6405 7.52248 16.6414 7.51567L16.6311 7.57749C16.6342 7.56297 16.6393 7.54877 16.6461 7.53512L16.6173 7.59056C16.6853 7.47136 16.7637 7.35625 16.8519 7.24611C16.8878 7.19309 16.8969 7.13078 16.877 7.07244C16.8572 7.01411 16.81 6.96436 16.7456 6.93379C16.6812 6.90322 16.6046 6.89424 16.5322 6.90877C16.4597 6.9233 16.3971 6.96019 16.3577 7.01158Z" fill="#211715"/>
<path d="M21.9585 0.826818C21.1519 0.356944 20.2019 0.0754356 19.2117 0.0129295C18.3071 -0.0378707 17.3993 0.0642657 16.5459 0.312865C15.7522 0.541276 15.0354 0.917121 14.4529 1.41034C13.8172 1.97672 13.3807 2.67105 13.1888 3.42087C12.9784 4.27916 12.9862 5.16325 13.212 6.01899C13.2322 6.07838 13.2807 6.12883 13.3467 6.15925C13.4128 6.18967 13.4911 6.19756 13.5643 6.18119C13.6376 6.16482 13.6998 6.12553 13.7373 6.07196C13.7748 6.01838 13.7846 5.95492 13.7644 5.89553C13.435 4.57233 13.5654 2.98161 14.676 1.90446C15.7103 0.901512 17.313 0.448706 18.8965 0.466606C19.8949 0.48507 20.8625 0.750703 21.6694 1.22786C21.7352 1.25842 21.8131 1.26681 21.8864 1.25123C21.9596 1.23564 22.0224 1.19733 22.0612 1.14456C22.098 1.09109 22.1079 1.02815 22.0887 0.968919C22.0696 0.90969 22.0229 0.858768 21.9585 0.826818Z" fill="#211715"/>
<path d="M19.4501 9.77697C18.3209 10.1833 16.9925 10.3642 15.8498 9.88852C15.3338 9.68644 14.8937 9.37627 14.575 8.99007C14.2736 8.57526 14.08 8.11486 14.0062 7.63717C13.8805 6.98138 13.8541 6.31165 13.7576 5.65237C13.7554 5.59135 13.7245 5.53331 13.6713 5.49015C13.618 5.44698 13.5465 5.42194 13.4712 5.42017C13.3954 5.42057 13.3228 5.44517 13.2692 5.48863C13.2156 5.53209 13.1853 5.59091 13.1848 5.65237C13.2788 6.29482 13.3189 6.94268 13.4235 7.58386C13.4932 8.12713 13.6938 8.65402 14.0139 9.13462C14.6822 10.0747 16.0293 10.6338 17.3483 10.6387C18.1858 10.6418 18.9803 10.4513 19.7396 10.178C19.8047 10.1466 19.852 10.0957 19.8713 10.0362C19.8905 9.97676 19.8801 9.91356 19.8423 9.86027C19.8027 9.80822 19.7399 9.77053 19.6669 9.75502C19.594 9.73951 19.5164 9.74737 19.4504 9.77697H19.4501Z" fill="#211715"/>
<path d="M22.6615 6.17667C22.7296 6.14027 22.8078 6.11825 22.8891 6.11262C22.9704 6.10699 23.0521 6.11794 23.1269 6.14445C23.1791 6.16001 23.2259 6.18557 23.2633 6.21895C23.2852 6.23975 23.286 6.23936 23.2658 6.21759C23.2745 6.22727 23.2828 6.23695 23.2907 6.24739C23.3007 6.26123 23.3105 6.27507 23.3199 6.28929C23.3312 6.30864 23.3303 6.30641 23.3177 6.28242C23.3254 6.29877 23.3323 6.31522 23.3384 6.33196C23.3518 6.36704 23.3618 6.40291 23.3683 6.43926C23.3751 6.49784 23.3771 6.55674 23.3741 6.61554C23.3664 6.76463 23.3302 6.91184 23.2667 7.0519C23.1582 7.29143 22.9713 7.50249 22.726 7.66241C22.6848 7.68775 22.6414 7.71079 22.5963 7.7314C22.5862 7.73604 22.5047 7.7671 22.5605 7.74813C22.4874 7.77203 22.4119 7.79061 22.3348 7.80367C22.187 7.8374 22.0299 7.83266 21.8856 7.79013C21.8196 7.76073 21.7421 7.75298 21.6692 7.76847C21.5964 7.78397 21.5336 7.82153 21.4938 7.87343C21.4561 7.92673 21.4458 7.98991 21.465 8.04935C21.4842 8.10878 21.5315 8.15972 21.5966 8.19117C21.7767 8.25431 21.971 8.2866 22.1673 8.28602C22.3636 8.28544 22.5576 8.25199 22.7371 8.18778C23.0981 8.05429 23.3978 7.8317 23.5933 7.55182C23.7906 7.29167 23.9097 6.99757 23.941 6.69323C23.97 6.41768 23.9172 6.11949 23.6856 5.90586C23.5173 5.76659 23.2956 5.67785 23.057 5.65418C22.8183 5.63052 22.5768 5.67334 22.3721 5.77563C22.0639 5.93769 22.3506 6.33989 22.6611 6.17667H22.6615Z" fill="#211715"/>
<path d="M17.6475 11.4815C17.5577 12.4014 17.5104 13.3152 17.5066 14.238C17.5053 14.5368 18.0781 14.5372 18.0794 14.238C18.0832 13.3152 18.1304 12.4014 18.2203 11.4815C18.2196 11.4201 18.1893 11.3613 18.1357 11.3179C18.0821 11.2744 18.0097 11.2498 17.9339 11.2493C17.8584 11.2505 17.7864 11.2753 17.733 11.3186C17.6796 11.3619 17.649 11.4203 17.6475 11.4815Z" fill="#211715"/>
<path d="M23.5858 7.17402C23.9839 7.2792 24.3299 7.48532 24.5726 7.76199C24.8357 8.07937 24.9649 8.45733 24.9408 8.83924C24.9266 9.68467 24.5718 10.5917 25.1816 11.3629C25.3799 11.6137 25.8759 11.3811 25.6762 11.1285C25.0651 10.3557 25.6016 9.36809 25.4987 8.52334C25.4547 8.11687 25.2643 7.72986 24.9513 7.41037C24.6383 7.09087 24.2164 6.85298 23.738 6.72624C23.3865 6.63423 23.2359 7.08249 23.5858 7.17402Z" fill="#211715"/>
<path d="M18.7953 2.99675C19.0818 3.5399 19.4467 4.05357 19.8824 4.527C20.2881 4.97206 20.773 5.46551 21.4079 5.70284C21.474 5.73219 21.5514 5.73992 21.6242 5.72442C21.6971 5.70893 21.7599 5.6714 21.7997 5.61954C21.8374 5.56626 21.8478 5.50308 21.8286 5.44365C21.8094 5.38421 21.7621 5.33329 21.6969 5.3019C21.1398 5.0932 20.709 4.6612 20.3513 4.26412C19.9545 3.83202 19.618 3.36568 19.3477 2.87358C19.3254 2.81532 19.2766 2.76613 19.2111 2.73601C19.1457 2.70589 19.0686 2.6971 18.9954 2.71142C18.9224 2.72808 18.8605 2.76742 18.823 2.82089C18.7855 2.87436 18.7756 2.93766 18.7953 2.99704V2.99675Z" fill="#211715"/>
<path d="M18.869 2.77086C18.3639 3.2525 17.6769 3.59801 17.0112 3.91836C16.222 4.29943 15.3995 4.63309 14.5502 4.91666C14.158 5.05048 13.756 5.16454 13.3465 5.2582C12.9911 5.33637 13.1419 5.78453 13.4987 5.70607C14.3172 5.51129 15.1115 5.25507 15.8712 4.94075C16.7281 4.61344 17.5472 4.22489 18.319 3.77971C18.669 3.58389 18.9894 3.35544 19.2737 3.09905C19.3256 3.05474 19.3545 2.99597 19.3545 2.93486C19.3545 2.87375 19.3256 2.81497 19.2737 2.77067C19.2196 2.72762 19.1469 2.70349 19.0712 2.70349C18.9954 2.70349 18.9227 2.72762 18.8687 2.77067L18.869 2.77086Z" fill="#211715"/>
<path d="M20.2823 26.8845C20.2974 26.8388 20.3162 26.7939 20.3385 26.7503L20.3098 26.8057C20.3457 26.7368 20.3921 26.6718 20.4479 26.6122L20.4031 26.6592C20.4575 26.6026 20.5204 26.5516 20.5903 26.5075L20.5323 26.5439C20.584 26.5119 20.6388 26.4833 20.6962 26.4585C20.7613 26.427 20.8085 26.3761 20.8277 26.3166C20.847 26.2572 20.8366 26.194 20.7989 26.1407C20.7595 26.0885 20.6967 26.0508 20.6237 26.0352C20.5507 26.0197 20.4731 26.0277 20.4072 26.0574C20.241 26.1308 20.0951 26.2311 19.9786 26.3521C19.8622 26.473 19.7775 26.6121 19.73 26.7606C19.7107 26.821 19.721 26.8852 19.7588 26.9395C19.7873 26.979 19.8294 27.0108 19.88 27.0309C19.9306 27.0511 19.9874 27.0587 20.0433 27.0527C20.0992 27.0468 20.1517 27.0277 20.1942 26.9977C20.2367 26.9677 20.2674 26.9281 20.2823 26.8841V26.8845Z" fill="#211715"/>
</svg>
