<svg width="16" height="16" viewBox="0 0 16 16" fill="none" xmlns="http://www.w3.org/2000/svg">
<path d="M10.3382 8.5H5.66178C5.29632 8.5 5 8.28026 5 8.0092V6.27506C5 5.64884 5.35875 5.04827 5.98431 4.62735C6.25081 4.44805 6.66167 4.45949 6.90929 4.6532L8 5.50664L9.09071 4.65317C9.3365 4.46081 9.74388 4.44793 10.0109 4.62416C10.6166 5.02391 11 5.62034 11 6.27506V8.0092C11 8.28026 10.7037 8.5 10.3382 8.5Z" fill="#00D8E0"/>
<path d="M9.59319 4.65139C9.3299 4.47186 8.92836 4.48498 8.68605 4.68095L7.61084 5.55042V8.59994H9.91584C10.2761 8.59994 10.5682 8.37608 10.5682 8.09993V6.33326C10.5682 5.66626 10.1903 5.05867 9.59319 4.65139Z" fill="#00A2A9"/>
<path d="M8.26321 8.60001V5.43213C8.26321 5.31867 8.21332 5.2144 8.13026 5.13049L7.61083 5.55049L7.09144 5.13049C7.00838 5.2144 6.9585 5.31867 6.9585 5.43213V8.60001H8.26321Z" fill="#00A2A9"/>
<path d="M7.56975 6.38492L6.16247 5.4609C5.93374 5.31071 5.94847 5.07279 6.19432 4.93391C7.21776 4.35588 8.78054 4.35484 9.80568 4.93393C10.0519 5.07301 10.0659 5.31095 9.83753 5.4609L8.43028 6.38492C8.19649 6.53845 7.80334 6.53827 7.56975 6.38492Z" fill="#FF9900"/>
<path d="M9.80567 4.93393C9.2933 4.64451 8.64655 4.49998 8 4.5V6.5C8.15669 6.5 8.31341 6.46165 8.43025 6.38491L9.83752 5.46088C10.0659 5.31095 10.0519 5.07302 9.80567 4.93393Z" fill="#FF4F19"/>
<path d="M8 5.5C6.34581 5.5 5 4.37849 5 3C5 1.62151 6.34581 0.5 8 0.5C9.65419 0.5 11 1.62151 11 3C11 4.37849 9.65419 5.5 8 5.5Z" fill="#FFDB2D"/>
<path d="M13.3411 10.6594H8.15875V9.93479C8.15875 9.69468 7.86381 9.5 7.49996 9.5C7.13615 9.5 6.84117 9.69466 6.84117 9.93479V10.6594H1.65879C1.29498 10.6594 1 10.8541 1 11.0942V13.0652C1 13.3053 1.29495 13.5 1.65879 13.5C2.02264 13.5 2.31759 13.3053 2.31759 13.0652V11.529H6.84121V13.0652C6.84121 13.3053 7.13615 13.5 7.5 13.5C7.86381 13.5 8.15879 13.3053 8.15879 13.0652V11.529H12.6824V13.0652C12.6824 13.3053 12.9774 13.5 13.3412 13.5C13.7051 13.5 14 13.3053 14 13.0652V11.0942C13.9999 10.8541 13.705 10.6594 13.3411 10.6594Z" fill="#A7A9AC"/>
<path d="M13.3918 10.6594H8.60812V9.93479C8.60812 9.69468 8.33586 9.5 8 9.5V13.5C8.33582 13.5 8.60812 13.3053 8.60812 13.0652V11.529H12.7838V13.0652C12.7838 13.3053 13.056 13.5 13.3919 13.5C13.7277 13.5 14 13.3053 14 13.0652V11.0942C14 10.8541 13.7277 10.6594 13.3918 10.6594Z" fill="#808285"/>
<path d="M2.95738 15.5001H0.652375C0.29211 15.5001 0 15.2762 0 15.0001V13.2334C0 12.9573 0.292072 12.7334 0.652375 12.7334H2.95738C3.31764 12.7334 3.60975 12.9573 3.60975 13.2334V15.0001C3.60971 15.2762 3.31764 15.5001 2.95738 15.5001Z" fill="#B9F7F9"/>
<path d="M8.74156 15.5001H6.43655C6.07629 15.5001 5.78418 15.2762 5.78418 15.0001V13.2334C5.78418 12.9573 6.07625 12.7334 6.43655 12.7334H8.74156C9.10182 12.7334 9.39393 12.9573 9.39393 13.2334V15.0001C9.39393 15.2762 9.10186 15.5001 8.74156 15.5001Z" fill="#B9F7F9"/>
<path d="M8 0.5V5.5C9.65419 5.5 11 4.37849 11 3C11 1.62151 9.65419 0.5 8 0.5Z" fill="#FF9900"/>
<path d="M8.74159 12.7334H7.61084V15.5001H8.74159C9.10186 15.5001 9.39397 15.2762 9.39397 15.0001V13.2334C9.39397 12.9573 9.10189 12.7334 8.74159 12.7334Z" fill="#00D8E0"/>
<path d="M14.5694 15.5001H12.2644C11.9042 15.5001 11.6121 15.2762 11.6121 15.0001V13.2334C11.6121 12.9573 11.9041 12.7334 12.2644 12.7334H14.5694C14.9297 12.7334 15.2218 12.9573 15.2218 13.2334V15.0001C15.2218 15.2762 14.9297 15.5001 14.5694 15.5001Z" fill="#00D8E0"/>
</svg>
