<svg width="29" height="20" viewBox="0 0 29 20" fill="none" xmlns="http://www.w3.org/2000/svg">
<g clip-path="url(#clip0_14_728)">
<path d="M26.1483 4.20392V15.0627C26.1483 15.9854 25.1055 16.7333 23.8191 16.7333H4.02087C2.73449 16.7333 1.69165 15.9854 1.69165 15.0627V4.20392C1.69165 3.28129 2.73449 2.53333 4.02087 2.53333H23.8191C25.1055 2.53333 26.1483 3.28129 26.1483 4.20392Z" fill="#F2EFE2"/>
<path d="M15.1104 6.21037C15.1104 9.00084 11.8303 11.263 7.78412 11.263C3.73794 11.263 0.457764 9.00084 0.457764 6.21037C0.457764 3.4199 3.73788 1.15771 7.78412 1.15771C11.8304 1.15771 15.1104 3.41986 15.1104 6.21037Z" fill="#E8BA52"/>
<path d="M13.8895 6.21042C13.8895 8.53582 11.156 10.4209 7.78425 10.4209C4.41249 10.4209 1.67896 8.53582 1.67896 6.21042C1.67896 3.88503 4.41243 1.99988 7.78425 1.99988C11.1561 1.99988 13.8895 3.88496 13.8895 6.21042Z" fill="#FED766"/>
<path d="M11.2729 6.21034C11.2729 7.53913 9.71088 8.61635 7.78413 8.61635C5.85739 8.61635 4.29541 7.53913 4.29541 6.21034C4.29541 4.88155 5.85739 3.80432 7.78413 3.80432C9.71088 3.80432 11.2729 4.88151 11.2729 6.21034Z" fill="#FFED80"/>
<path d="M11.7309 6.21034C11.7309 5.03132 10.638 4.0253 9.11434 3.648V2.8419C9.11434 2.66749 8.9093 2.52612 8.65646 2.52612C8.40356 2.52612 8.19858 2.66753 8.19858 2.8419V3.50358C8.06236 3.49374 7.92421 3.48851 7.78425 3.48851C7.64429 3.48851 7.50615 3.49374 7.36993 3.50358V2.8419C7.36993 2.66749 7.16489 2.52612 6.91204 2.52612C6.6592 2.52612 6.45416 2.66753 6.45416 2.8419V3.64796C4.93053 4.02526 3.83765 5.03128 3.83765 6.2103C3.83765 7.38933 4.93053 8.39534 6.45416 8.77265V9.5787C6.45416 9.75312 6.6592 9.89448 6.91204 9.89448C7.16489 9.89448 7.36993 9.75308 7.36993 9.5787V8.91702C7.50615 8.92687 7.64429 8.9321 7.78425 8.9321C7.92421 8.9321 8.06236 8.92687 8.19858 8.91702V9.5787C8.19858 9.75312 8.40362 9.89448 8.65646 9.89448C8.90936 9.89448 9.11434 9.75308 9.11434 9.5787V8.77265C10.638 8.39538 11.7309 7.38937 11.7309 6.21034ZM4.75341 6.21034C4.75341 5.38671 5.44794 4.67304 6.45416 4.33265V8.08808C5.44794 7.74765 4.75341 7.03394 4.75341 6.21034ZM7.78425 8.30054C7.64367 8.30054 7.50552 8.29335 7.36993 8.2805V4.14015C7.50547 4.1273 7.64361 4.12011 7.78425 4.12011C7.92483 4.12011 8.06298 4.1273 8.19858 4.14015V8.28058C8.06292 8.29335 7.92483 8.30054 7.78425 8.30054ZM9.11434 8.088V4.33257C10.1206 4.67296 10.8151 5.38663 10.8151 6.21026C10.8151 7.0339 10.1205 7.74765 9.11434 8.088Z" fill="#AD8653"/>
<path d="M26.7767 4.38924V7.97498C26.7767 8.14002 26.5761 8.27378 26.3287 8.27378C26.0813 8.27378 25.8808 8.13998 25.8808 7.97498V4.38924C25.8808 3.67528 25.01 3.09438 23.9397 3.09438H19.0334V4.525C19.0334 4.56666 19.002 4.60669 18.946 4.63615C18.8294 4.69754 18.6403 4.69754 18.5237 4.63615L16.2009 3.41336C15.9677 3.29057 15.9677 3.09153 16.2009 2.96874L18.5237 1.746C18.6403 1.6846 18.8294 1.6846 18.946 1.746C19.002 1.77549 19.0334 1.81549 19.0334 1.85714V2.49677H23.9397C25.5039 2.49677 26.7767 3.34576 26.7767 4.38924ZM12.2674 16.7199L9.94464 15.4971C9.828 15.4357 9.63894 15.4357 9.52231 15.4971C9.46629 15.5266 9.43487 15.5666 9.43487 15.6083V17.0389H4.52864C3.45834 17.0389 2.58752 16.458 2.58752 15.744V12.1583C2.58752 11.9932 2.38694 11.8595 2.13959 11.8595C1.89223 11.8595 1.69165 11.9933 1.69165 12.1583V15.744C1.69165 16.7875 2.96436 17.6365 4.52864 17.6365H9.43487V18.2761C9.43487 18.3178 9.46634 18.3578 9.52231 18.3872C9.63894 18.4486 9.828 18.4486 9.94464 18.3872L12.2674 17.1645C12.5006 17.0417 12.5006 16.8427 12.2674 16.7199Z" fill="#FC8059"/>
<path d="M29.5798 17.825H28.3387L27.4079 16.4316H26.1668L25.2359 17.825H16.5482L15.3072 16.4316H12.825V12.7158H15.3074L15.3072 11.7869H23.6846V12.7158H25.2359L26.1668 13.877H27.4079L28.3387 11.7869H29.5798V17.825Z" fill="#57513D"/>
<path d="M12.8251 14.5737H11.584C11.4124 14.5737 11.2737 14.4699 11.2737 14.3415C11.2737 14.2131 11.4124 14.1093 11.584 14.1093H12.8251C12.9966 14.1093 13.1353 14.2131 13.1353 14.3415C13.1353 14.4699 12.9966 14.5737 12.8251 14.5737Z" fill="#57513D"/>
<path d="M11.584 15.5027C11.4124 15.5027 11.2737 15.3989 11.2737 15.2704V13.4125C11.2737 13.2841 11.4124 13.1803 11.584 13.1803C11.7555 13.1803 11.8942 13.2841 11.8942 13.4125V15.2704C11.8942 15.3989 11.7555 15.5027 11.584 15.5027Z" fill="#57513D"/>
<path d="M16.8586 10.3934H22.4436V9H16.8586V10.3934Z" fill="#FC5923"/>
<path d="M18.0996 11.7869H21.2024V10.3934H18.0996V11.7869Z" fill="#FC5923"/>
<path d="M12.825 16.4316H15.3072V12.7158H12.825V16.4316Z" fill="#FC5923"/>
<path d="M26.1667 16.4316H27.4079V13.877H26.1667V16.4316Z" fill="#FC5923"/>
</g>
<defs>
<clipPath id="clip0_14_728">
<rect width="29" height="20" fill="white"/>
</clipPath>
</defs>
</svg>
